<ttFont>
<head>
        <!-- Most of this table will be recalculated by the compiler -->
        <tableVersion value="1.0"/>
        <fontRevision value="1.002"/>
        <checkSumAdjustment value="0x9e90b8af"/>
        <magicNumber value="0x5f0f3cf5"/>
        <flags value="00000000 00000011"/>
        <unitsPerEm value="1000"/>
        <created value="Fri Jan 15 16:56:34 2016"/>
        <modified value="Fri Jan 15 21:56:34 2016"/>
        <xMin value="-1771"/>
        <yMin value="-411"/>
        <xMax value="805"/>
        <yMax value="1254"/>
        <macStyle value="00000000 00000010"/>
        <lowestRecPPEM value="3"/>
        <fontDirectionHint value="2"/>
        <indexToLocFormat value="0"/>
        <glyphDataFormat value="0"/>
    </head>
                    <CharString index="0">
                        rmoveto
-178 -141 -171 -201 -150 91 -89 125 179 140 173 200 150 -90 88 -126 hvcurveto
-82 -530 rmoveto
-77 -62 59 111 146 77 133 124 77 62 -58 -112 -146 -77 -133 -124 hvcurveto
endchar
                    </CharString>
                    <CharString index="1">
                        rmoveto
45 -39 41 -41 36 vhcurveto
37 19 44 22 55 26 -26 48 rcurveline
-61 -29 -50 -26 -42 -22 rrcurveto
-29 25 -22 24 21 vvcurveto
31 35 23 124 -28 vhcurveto
25 78 rlineto
-167 23 -93 -64 -71 vvcurveto
-37 27 -33 33 -30 vhcurveto
return
                    </CharString>
                    <CharString index="2">
                        -30 callsubr
144 -21 50 -30 -36 vvcurveto
-38 -53 -39 -184 17 vhcurveto
26 callsubr
return
                    </CharString>
                    <CharString index="3">
                        rmoveto
96 76 64 97 114 -122 42 -111 -81 hvcurveto
24 61 62 64 142 34 -17 69 rcurveline
-219 -59 -81 -130 -122 vvcurveto
-102 63 -51 87 vhcurveto
13 64 rmoveto
-44 -42 28 76 6 0 7 1 6 hvcurveto
90 63 78 -31 -69 vvcurveto
-46 -28 -40 -55 vhcurveto
endchar
                    </CharString>
                    <CharString index="4">
                        rmoveto
45 145 -115 -3 -34 -144 rlineto
-115 1 rmoveto
44 144 -114 -2 -36 -145 rlineto
return
                    </CharString>
                    <CharString index="5">
                        rmoveto
39 -19 67 59 48 87 8 82 rlinecurve
-125 -3 8 -61 -7 -76 -38 -69 rlinecurve
endchar
                    </CharString>
                    <CharString index="6">
                        rmoveto
-12 48 rlineto
-242 -72 -80 32 131 vvcurveto
225 17 137 77 133 vvcurveto
80 -52 51 -89 -173 -141 -194 -181 -172 137 -108 290 158 vhcurveto
-142 413 rmoveto
49 28 -29 -43 -85 -105 -43 -158 -12 hvcurveto
110 19 70 102 97 hhcurveto
endchar
                    </CharString>
                    <CharString index="7">
                        rmoveto
-200 -163 -200 -242 -174 98 -102 138 200 163 200 242 174 -98 102 -138 hvcurveto
-104 -631 rmoveto
-90 -71 71 136 177 95 160 147 90 71 -70 -136 -178 -95 -160 -147 hvcurveto
endchar
                    </CharString>
                    <CharString index="8">
                        -59 callsubr
123 -25 47 -32 -31 vvcurveto
-33 -45 -32 -186 20 vhcurveto
return
                    </CharString>
                    <CharString index="9">
                        rmoveto
-140 76 -82 117 156 142 163 190 140 -77 82 -116 -156 -142 -162 -191 vhcurveto
395 108 rmoveto
-130 -70 -119 -107 -76 -46 60 104 130 70 120 107 76 46 -61 -104 vhcurveto
endchar
                    </CharString>
                    <CharString index="10">
                        rmoveto
77 396 rlineto
-99 hlineto
-74 -385 rlineto
-232 -46 104 -85 142 hhcurveto
138 114 83 185 36 hvcurveto
84 434 rlineto
-98 hlineto
-85 -438 rlineto
-125 -24 -61 -53 -91 hhcurveto
-87 -63 51 169 33 hvcurveto
endchar
                    </CharString>
                    <CharString index="11">
                        18 69 rlineto
-114 hlineto
77 388 -80 -6 -13 -64 -121 -15 -8 -57 116 4 -49 -250 rlineto
-125 hlineto
-13 -69 rlineto
return
                    </CharString>
                    <CharString index="12">
                        rmoveto
-110 55 -64 85 119 101 135 152 110 -56 63 -84 -119 -101 -135 -151 vhcurveto
280 103 rmoveto
-103 -52 -104 -76 -46 -26 37 74 103 52 105 76 46 26 -38 -74 vhcurveto
endchar
                    </CharString>
                    <CharString index="13">
                        rmoveto
146 77 133 124 36 32 -12 -25 25 vhcurveto
-286 -304 rlineto
-5 18 -3 21 23 vvcurveto
139 -170 rmoveto
-38 -34 14 28 -25 hvcurveto
288 307 rlineto
7 -21 3 -23 -26 vvcurveto
-146 -77 -133 -124 vhcurveto
-21 -81 rmoveto
179 140 173 200 hvcurveto
hintmask 10111100
54 -12 46 -20 36 vhcurveto
77 80 -54 47 -68 -72 rlineto
hintmask 11001100
31 -37 -48 16 -54 hhcurveto
-178 -141 -171 -201 -51 11 -44 18 -36 hvcurveto
-80 -84 53 -46 70 74 rlineto
-34 38 49 -18 57 hhcurveto
endchar
                    </CharString>
                    <CharString index="14">
                        -98 callgsubr
endchar
                    </CharString>
                    <CharString index="15">
                        -84 callgsubr
hintmask 01011110
373 -33 rmoveto
-13 48 -114 -34 -4 11 13 66 rlinecurve
79 398 rlineto
hintmask 10101110
-80 callgsubr
hintmask 01011110
-12 -112 51 -41 177 102 rrcurveto
endchar
                    </CharString>
                    <CharString index="16">
                        rmoveto
20 69 rlineto
-56 hlineto
28 144 -75 -7 -50 callgsubr
-85 5 -40 -130 -36 -79 -54 -94 rlinecurve
-5 -56 rlineto
-42 callsubr
return
                    </CharString>
                    <CharString index="17">
                        rmoveto
63 55 81 87 44 57 -93 52 rcurveline
-32 -61 -61 -95 -46 -59 rrcurveto
257 -37 rmoveto
64 55 78 85 44 60 -96 44 rcurveline
-33 -61 -56 -88 -46 -58 rrcurveto
return
                    </CharString>
                    <CharString index="18">
                        rmoveto
-301 hlineto
43 222 rlineto
255 hlineto
15 76 rlineto
-256 hlineto
55 callgsubr
298 hlineto
17 87 rlineto
-397 hlineto
-133 -688 rlineto
392 hlineto
endchar
                    </CharString>
                    <CharString index="19">
                        -5 80 -54 -21 261 71 181 79 hstemhm
471 98 hintmask 10111000
3 callgsubr
-49 -251 rlineto
-66 hlineto
-14 -71 rlineto
66 hlineto
hintmask 01111000
-51 -261 rlineto
hintmask 10111000
355 -41 166 181 216 vvcurveto
-246 -95 rmoveto
18 71 rlineto
-131 hlineto
35 181 rlineto
151 10 75 -58 -119 vvcurveto
-153 -95 -131 -216 13 vhcurveto
36 186 rlineto
endchar
                    </CharString>
                    <CharString index="20">
                        104 hlineto
hintmask 10010100
17 callsubr
-90 hlineto
-83 -436 rlineto
-6 hlineto
hintmask 01001100
-165 438 -117 -4 -113 -583 rlineto
90 hlineto
hintmask 01100100
87 460 rlineto
7 hlineto
return
                    </CharString>
                    <CharString index="21">
                        90 hlineto
100 232 53 146 48 169 rrcurveto
-105 hlineto
-34 -150 -31 -115 -50 -163 rrcurveto
-8 hlineto
-49 283 rlineto
-64 hlineto
-162 -283 rlineto
-5 hlineto
17 158 13 117 19 153 rrcurveto
-99 hlineto
-25 -207 -13 -222 5 -118 rrcurveto
90 hlineto
157 273 rlineto
endchar
                    </CharString>
                    <CharString index="22">
                        rmoveto
hintmask 00111000
104 16 -150 241 rlineto
103 51 72 64 85 vvcurveto
97 -98 71 -274 -34 vhcurveto
hintmask 01011000
-113 -583 rlineto
97 hlineto
99 510 rlineto
127 13 64 -32 -60 vvcurveto
-60 -50 -47 -140 -59 vhcurveto
-1 -2 rlineto
endchar
                    </CharString>
                    <CharString index="23">
                        70 126 84 132 99 120 15 68 rcurveline
-313 hlineto
-17 -72 rlineto
229 hlineto
1 -4 -100 -116 -84 -122 -69 -122 rlinecurve
return
                    </CharString>
                    <CharString index="24">
                        -91 callsubr
endchar
                    </CharString>
                    <CharString index="25">
                        38 30 -107 66 hhcurveto
52 58 61 87 49 hvcurveto
-47 30 rlineto
-61 -37 -29 -39 -23 hhcurveto
return
                    </CharString>
                    <CharString index="26">
                        rmoveto
219 59 81 130 122 vvcurveto
102 -63 51 -88 -95 -76 -64 -97 -114 122 -42 111 81 vhcurveto
-24 -61 -62 -64 -142 -34 rrcurveto
71 245 rmoveto
46 28 40 55 44 42 -28 -76 -6 0 -6 -1 -7 vhcurveto
-89 -63 -79 30 70 vvcurveto
endchar
                    </CharString>
                    <CharString index="27">
                        11 18 -21 24 -21 24 -21 168 70 263 83 return
                    </CharString>
                    <CharString index="28">
                        104 hlineto
49 130 80 262 76 296 rrcurveto
-93 hlineto
-22 -83 -114 -438 -15 -41 rrcurveto
-5 hlineto
-59 367 rlineto
-69 hlineto
hintmask 11100000
-197 -367 rlineto
-7 hlineto
1 41 56 438 11 83 rrcurveto
-96 hlineto
-38 -296 -24 -262 -2 -130 rrcurveto
106 hlineto
196 353 rlineto
endchar
                    </CharString>
                    <CharString index="29">
                        17 83 -303 -2 380 424 14 80 rlineto
-403 hlineto
-17 -83 297 2 -383 -424 -14 -80 rlineto
endchar
                    </CharString>
                    <CharString index="30">
                        rmoveto
-46 -35 32 74 118 73 135 99 26 40 -10 -25 46 hvcurveto
-28 -66 -24 -85 -7 -79 rrcurveto
-60 -48 -49 -34 -47 hhcurveto
229 -199 rmoveto
32 63 -34 84 1 137 rrcurveto
9 1 10 9 vvcurveto
66 112 53 134 45 vvcurveto
20 -34 19 -28 -10 -12 -10 -19 -13 vhcurveto
18 -34 -34 9 -36 hhcurveto
-192 -130 -180 -185 -113 57 -57 74 67 66 47 61 54 hvcurveto
return
                    </CharString>
                    <CharString index="31">
                        38 192 rlineto
hintmask 11010000
284 393 rlineto
-103 hlineto
-206 -302 rlineto
-3 hlineto
hintmask 10110000
-99 305 -101 -5 132 -380 -39 -203 rlineto
endchar
                    </CharString>
                    <CharString index="32">
                        rmoveto
-84 callsubr
endchar
                    </CharString>
                    <CharString index="33">
                        rmoveto
-198 -167 -217 -235 -235 179 -88 282 98 hvcurveto
9 89 rlineto
-248 -87 -124 58 185 vvcurveto
163 91 181 150 83 14 -56 -117 2 vhcurveto
94 1 rlineto
171 3 -38 89 -132 hhcurveto
endchar
                    </CharString>
                    <CharString index="34">
                        -23 callgsubr
hintmask 01110000
-114 -583 rlineto
hintmask 10110000
355 -41 166 181 216 vvcurveto
-98 -10 rmoveto
-153 -95 -131 -216 13 vhcurveto
85 438 rlineto
151 10 75 -58 -119 vvcurveto
endchar
                    </CharString>
                    <CharString index="35">
                        rmoveto
-13 48 -113 -34 -5 11 14 67 rlinecurve
hintmask 10101100
80 408 rlineto
-93 hlineto
-68 -348 rlineto
-82 -72 -55 -40 -58 hhcurveto
-47 -26 36 87 19 hvcurveto
hintmask 10011100
79 352 -94 -7 -104 -134 64 -41 -38 -176 rlineto
-146 -32 51 -62 79 hhcurveto
71 70 43 84 77 hvcurveto
hintmask 01011100
-19 -124 50 -45 183 103 rrcurveto
endchar
                    </CharString>
                    <CharString index="36">
                        -63 -33 60 367 131 hvcurveto
-94 -5 rlineto
-420 -159 69 -93 101 hhcurveto
77 82 49 62 63 hvcurveto
4 -102 11 -81 -23 -23 -24 -24 -98 -16 -198 15 rrcurveto
return
                    </CharString>
                    <CharString index="37">
                        555 687 -52 41 -556 -686 rlineto
return
                    </CharString>
                    <CharString index="38">
                        rmoveto
93 -106 90 -36 78 vhcurveto
hintmask 10110000
110 97 -19 64 -62 hhcurveto
-54 -76 -56 -80 -18 3 -18 6 -17 hvcurveto
-36 -40 -54 -46 -78 -60 28 -40 rcurveline
69 45 56 43 44 38 rrcurveto
hintmask 01101000
48 -77 76 -66 -58 vvcurveto
-50 -58 -23 -202 17 vhcurveto
hintmask 10101000
-5 -90 rlineto
274 -11 85 82 90 vvcurveto
endchar
                    </CharString>
                    <CharString index="39">
                        16 81 rlineto
-260 hlineto
98 504 rlineto
-98 hlineto
-113 -585 rlineto
return
                    </CharString>
                    <CharString index="40">
                        -62 callgsubr
287 -494 -106 callsubr
return
                    </CharString>
                    <CharString index="41">
                        rmoveto
121 -18 -50 67 -110 hhcurveto
-133 -103 -102 -107 hvcurveto
-161 261 -68 -111 vvcurveto
-63 -80 -49 -251 70 vhcurveto
hintmask 01111000
-24 -97 rlineto
hintmask 10111000
319 -71 135 111 113 149 -261 72 124 vvcurveto
57 45 49 65 63 37 -39 -85 16 vhcurveto
endchar
                    </CharString>
                    <CharString index="42">
                        hintmask 10011000
404 -7 rmoveto
hintmask 00111000
105 14 -178 285 274 293 rlineto
-107 hlineto
-276 -292 rlineto
-60 292 rmoveto
hintmask 01011000
53 callsubr
17 callsubr
return
                    </CharString>
                    <CharString index="43">
                        -14 -171 -21 135 129 -83 83 -50 -21 514 83 hstemhm
59 98 122 86 79 93 hintmask 10101111
476 21 rmoveto
9 83 rlineto
-222 -71 -106 48 153 vvcurveto
133 76 148 127 70 13 -45 -97 1 vhcurveto
93 1 rlineto
149 3 -38 75 -119 hhcurveto
-177 -147 -184 -200 hvcurveto
hintmask 10011111
-112 51 -73 91 -28 vhcurveto
-36 -23 -32 -48 -30 -77 51 -17 rcurveline
hintmask 11001111
-40 callgsubr
86 hlineto
hintmask 10101111
6 90 -18 60 -32 31 47 3 52 11 56 18 rrcurveto
endchar
                    </CharString>
                    <CharString index="44">
                        rmoveto
1 -85 -6 -78 -42 -93 40 -19 rcurveline
73 90 36 87 9 104 rrcurveto
return
                    </CharString>
                    <CharString index="45">
                        -62 0 80 180 69 176 80 return
                    </CharString>
                    <CharString index="46">
                        63 0 149 -128 -21 460 127 -2 -20 22 -20 return
                    </CharString>
                    <CharString index="47">
                        rmoveto
hintmask 00111000
106 17 -173 286 rlineto
119 60 84 75 102 vvcurveto
112 -108 81 -297 -38 vhcurveto
hintmask 01011000
-133 -686 rlineto
99 hlineto
117 607 rlineto
149 16 73 -37 -75 vvcurveto
-73 -59 -57 -160 -72 vhcurveto
-1 -2 rlineto
endchar
                    </CharString>
                    <CharString index="48">
                        -47 callsubr
180 123 8 70 rlineto
-277 hlineto
-15 -71 rlineto
191 hlineto
-184 -124 -5 -36 rlineto
return
                    </CharString>
                    <CharString index="49">
                        rmoveto
130 70 120 107 34 28 -12 -24 21 vhcurveto
-253 -276 rlineto
-5 18 -2 21 23 vvcurveto
122 -164 rmoveto
-34 -28 12 22 -20 hvcurveto
253 275 rlineto
4 -18 2 -20 -22 vvcurveto
-130 -70 -119 -107 vhcurveto
-25 -81 rmoveto
156 142 163 190 48 -9 40 -16 34 hvcurveto
68 73 -54 45 -57 -62 rlineto
29 -32 -43 15 -50 hhcurveto
-156 -142 -162 -191 -48 9 -41 16 -33 hvcurveto
-67 -73 54 -45 56 61 rlineto
-28 33 42 -15 50 hhcurveto
endchar
                    </CharString>
                    <CharString index="50">
                        68 callgsubr
-85 122 96 99 hintmask 10110100
10 callgsubr
hintmask 01110100
-20 -91 rlineto
hintmask 10110100
290 -59 118 95 97 128 -232 64 100 vvcurveto
45 37 40 55 54 32 -32 -71 14 vhcurveto
hintmask 10101100
-317 -712 -102 callsubr
                    </CharString>
                    <CharString index="51">
                        44 227 rlineto
hintmask 11010000
323 461 rlineto
-105 hlineto
-241 -360 rlineto
-6 hlineto
hintmask 10110000
-113 363 -101 -5 147 -446 -47 -240 rlineto
endchar
                    </CharString>
                    <CharString index="52">
                        41 -230 70 148 80 517 -20 hstemhm
84 96 -39 89 hintmask 11101000
384 31 callsubr
-38 17 35 vvcurveto
50 68 32 87 48 vhcurveto
82 45 47 56 22 110 72 369 rcurveline
-98 hlineto
-72 -372 rlineto
-102 -20 -51 -43 -78 hhcurveto
hintmask 11110000
-74 -55 42 136 27 hvcurveto
67 339 rlineto
-98 hlineto
-64 -327 -36 -187 82 -76 123 -7 rlinecurve
hintmask 11101000
-89 -52 -31 -45 -44 vvcurveto
-71 83 76 callsubr
                    </CharString>
                    <CharString index="53">
                        236 -18 89 84 79 vvcurveto
return
                    </CharString>
                    <CharString index="54">
                        -29 callgsubr
192 122 122 98 hintmask 10011100
405 -8 rmoveto
hintmask 00111100
104 16 -150 241 rlineto
103 51 72 64 85 vvcurveto
97 -98 71 -274 -34 vhcurveto
hintmask 01011100
-113 -583 rlineto
97 hlineto
99 510 rlineto
127 13 64 -32 -60 vvcurveto
-60 -50 -47 -140 -59 vhcurveto
-1 -2 rlineto
-93 -558 -102 callsubr
                    </CharString>
                    <CharString index="55">
                        61 callgsubr
-39 18 36 vvcurveto
37 54 46 134 40 vhcurveto
return
                    </CharString>
                    <CharString index="56">
                        rmoveto
47 76 rlineto
-140 67 -65 46 52 vvcurveto
hintmask 11010000
68 122 37 84 vvcurveto
36 -21 35 -67 25 vhcurveto
hintmask 11001000
92 27 38 56 43 vvcurveto
hintmask 11100000
55 -63 65 46 vvcurveto
52 82 38 189 42 vhcurveto
-15 86 rlineto
-261 -68 -85 -85 -83 -71 64 -56 -43 vvcurveto
hintmask 11001000
-32 -33 -29 -123 -6 vhcurveto
-17 -71 rlineto
hintmask 11010000
87 -14 41 -28 -35 vvcurveto
hintmask 11001000
-57 -127 -34 -103 vvcurveto
-73 70 -56 185 -92 vhcurveto
endchar
                    </CharString>
                    <CharString index="57">
                        rmoveto
hintmask 10011000
262 67 85 85 83 71 -65 57 42 vvcurveto
hintmask 11001000
32 34 29 123 7 vhcurveto
16 70 rlineto
hintmask 10101000
-86 14 -41 28 36 vvcurveto
hintmask 11001000
56 126 34 104 vvcurveto
73 -69 56 -186 92 vhcurveto
-46 -77 rlineto
139 -66 66 -47 -52 vvcurveto
hintmask 10101000
-68 -122 -37 -83 vvcurveto
-37 21 -35 67 -25 vhcurveto
hintmask 11001000
-93 -27 -38 -56 -43 vvcurveto
hintmask 10011000
-55 64 -65 -45 vvcurveto
-53 -83 -38 -188 -41 vhcurveto
endchar
                    </CharString>
                    <CharString index="58">
                        rmoveto
-96 callsubr
endchar
                    </CharString>
                    <CharString index="59">
                        258 0 80 180 69 176 80 hstem
62 97 vstem
748 80 rmoveto
52 callgsubr
223 hlineto
13 69 rlineto
-223 hlineto
34 176 rlineto
262 hlineto
15 80 rlineto
-328 hlineto
-321 -131 -152 -191 -175 130 -67 201 hvcurveto
332 hlineto
-566 252 rmoveto
139 79 113 231 2 vhcurveto
-82 -425 rlineto
-148 -80 48 123 hvcurveto
endchar
                    </CharString>
                    <CharString index="60">
                        rmoveto
47 -41 42 -107 28 vhcurveto
return
                    </CharString>
                    <CharString index="61">
                        -61 callsubr
hstemhm
202 122 -12 callsubr
-71 -747 -102 callsubr
                    </CharString>
                    <CharString index="62">
                        -95 -230 70 160 75 435 75 hstem
43 90 vstem
288 28 callsubr
-101 -39 -42 15 38 vvcurveto
38 39 46 87 39 vhcurveto
116 hlineto
19 75 rlineto
-132 hlineto
85 435 rlineto
127 hlineto
15 75 rlineto
-354 hlineto
-16 -75 rlineto
130 hlineto
-85 -435 rlineto
-128 hlineto
-15 -75 rlineto
132 hlineto
-76 -50 -34 -54 -48 vvcurveto
-74 88 -43 157 88 vhcurveto
endchar
                    </CharString>
                    <CharString index="63">
                        155 21 -21 51.5 135.5 281 117 -117 120 hstemhm
49 666 hintmask 11011000
296 588 rmoveto
-134 -5 -113 -583 rlineto
90 hlineto
hintmask 11101000
84 468 rlineto
6 hlineto
66 -417 73 1 228 416 rlineto
6 hlineto
-96 -468 rlineto
96 hlineto
113 585 rlineto
-137 hlineto
-218 -398 rlineto
-3 hlineto
endchar
                    </CharString>
                    <CharString index="64">
                        45 -13 81 449 81 return
                    </CharString>
                    <CharString index="65">
                        210 hlineto
-16 -85 rlineto
74 hlineto
16 85 rlineto
return
                    </CharString>
                    <CharString index="66">
                        18 11 -21 527 81 hstem
69 96 312 101 vstem
463 -138 rmoveto
35 81 -218 84 rlineto
174 78 124 136 147 vvcurveto
118 -74 92 -140 -224 -146 -240 -245 115 vhcurveto
82 32 rlineto
236 -72 87 136 133 hhcurveto
86 52 -51 -86 -136 -128 -127 -180 -61 hvcurveto
-24 -66 rlineto
endchar
                    </CharString>
                    <CharString index="67">
                        26 87 -313 -4 372 382 16 82 rlineto
-399 hlineto
-27 -87 304 4 -373 -382 -17 -82 rlineto
endchar
                    </CharString>
                    <CharString index="68">
                        40 -24 99 93 63 92 9 133 rlinecurve
-125 -3 5 -119 -17 -85 -74 -87 rlinecurve
return
                    </CharString>
                    <CharString index="69">
                        74 vstem
851 386 rmoveto
218 -147 119 -195 -226 -196 -166 -254 -218 147 -119 194 227 196 165 255 vhcurveto
-345 269 rmoveto
153 118 -93 -183 -208 -160 -137 -185 -154 -117 93 183 207 160 138 185 hvcurveto
return
                    </CharString>
                    <CharString index="70">
                        423 74 -92 callgsubr
return
                    </CharString>
                    <CharString index="71">
                        68 callgsubr
133 99 hintmask 10111000
return
                    </CharString>
                    <CharString index="72">
                        -175 126 -83 196 46 vhcurveto
-25 -107 rlineto
return
                    </CharString>
                    <CharString index="73">
                        41 -12 80 517 -20 return
                    </CharString>
                    <CharString index="74">
                        103 hlineto
42 110 70 224 65 251 rrcurveto
-92 hlineto
-18 -66 -96 -367 -12 -33 rrcurveto
-6 hlineto
-52 305 rlineto
-64 hlineto
hintmask 11100000
-167 -305 rlineto
-6 hlineto
1 32 47 368 9 66 rrcurveto
-95 hlineto
-33 -251 -19 -223 -111 vvcurveto
103 hlineto
164 291 rlineto
endchar
                    </CharString>
                    <CharString index="75">
                        -37 21 -21 514 77 hstem
442 96 vstem
146 hmoveto
35 178 rlineto
225 26 132 90 130 vvcurveto
116 -110 78 -266 -35 vhcurveto
-113 -583 rlineto
393 408 rmoveto
-85 -85 -64 -159 7 vhcurveto
47 245 rlineto
130 14 67 -44 -73 vvcurveto
endchar
                    </CharString>
                    <CharString index="76">
                        65 -14 91 -87 86 471 -20 25 -20 return
                    </CharString>
                    <CharString index="77">
                        rmoveto
54 -45 49 -141 27 vhcurveto
22 95 184 -1 21 71 rlineto
-263 hlineto
-50 -217 rlineto
return
                    </CharString>
                    <CharString index="78">
                        -62 callgsubr
297 -462 -105 callsubr
endchar
                    </CharString>
                    <CharString index="79">
                        123 -25 47 -32 -31 vvcurveto
-33 -45 -32 -186 20 vhcurveto
-10 -76 rlineto
return
                    </CharString>
                    <CharString index="80">
                        rmoveto
18 69 rlineto
-114 hlineto
77 388 -80 -6 return
                    </CharString>
                    <CharString index="81">
                        91.5 return
                    </CharString>
                    <CharString index="82">
                        1 rlineto
180 56 94 147 82 hhcurveto
70 1 -82 -96 -68 hvcurveto
31 -25 rlineto
152 147 -8 154 -124 hhcurveto
-141 -151 -197 -233 -79 hvcurveto
-53 hlineto
-15 -57 46 -19 rlineto
-20 -78 -12 -80 -76 vvcurveto
-163 64 -77 84 100 87 91 return
                    </CharString>
                    <CharString index="83">
                        130 0 162 -141 -21 558 133 -3 -20 23 -20 return
                    </CharString>
                    <CharString index="84">
                        rmoveto
-13 49 rlineto
-96 -29 -14 4 26 vvcurveto
return
                    </CharString>
                    <CharString index="85">
                        -50 -12 87 128 62 212 84 return
                    </CharString>
                    <CharString index="86">
                        -100 -167 -62 callgsubr
return
                    </CharString>
                    <CharString index="87">
                        -26 callsubr
145 return
                    </CharString>
                    <CharString index="88">
                        108 0 119 466 -20 return
                    </CharString>
                    <CharString index="89">
                        57 21 -21 259 72 254 -20 hstem
48 569 vstem
405 hmoveto
98 hlineto
17 callsubr
-98 hlineto
-49 -254 rlineto
-259 hlineto
49 254 rlineto
-98 hlineto
-114 -585 63 callgsubr
                    </CharString>
                    <CharString index="90">
                        -97 0 81 182 127 195 -20 hstem
49 421 vstem
406 hmoveto
-68 callsubr
396 263 rmoveto
25 127 rlineto
-110 hlineto
-25 -127 rlineto
endchar
                    </CharString>
                    <CharString index="91">
                        -81 21 -21 248 71 185 81 hstem
49 473 vstem
418 248 rmoveto
14 71 rlineto
-224 hlineto
36 185 rlineto
264 hlineto
14 81 rlineto
-360 hlineto
-113 -585 rlineto
97 hlineto
48 248 rlineto
endchar
                    </CharString>
                    <CharString index="92">
                        -68 callsubr
endchar
                    </CharString>
                    <CharString index="93">
                        -33 -168 -21 135 74 hstem
295 86 vstem
170 -161 rmoveto
-40 callgsubr
86 hlineto
144 10 -53 65 -68 hhcurveto
-57 -50 -51 -113 -44 hvcurveto
endchar
                    </CharString>
                    <CharString index="94">
                        -60 callgsubr
-85 5 rlineto
return
                    </CharString>
                    <CharString index="95">
                        hintmask 01001100
405 hmoveto
-87 callsubr
return
                    </CharString>
                    <CharString index="96">
                        rmoveto
276 205 107 168 191 vvcurveto
132 -59 143 -141 177 vhcurveto
-75 -55 rlineto
131 -156 52 -127 -116 vvcurveto
-162 -82 -147 -261 -183 vhcurveto
endchar
                    </CharString>
                    <CharString index="97">
                        -33 778 66 callsubr
137 367 hintmask 01100000
285 614 rmoveto
hintmask 10100000
219 164 rlineto
hintmask 01100000
-44 53 -156 -115 -98 119 -69 -55 147 -166 rlineto
endchar
                    </CharString>
                    <CharString index="98">
                        72 4 -20 167 -20 166.5 -26 callgsubr
hstemhm
return
                    </CharString>
                    <CharString index="99">
                        rmoveto
201 hlineto
17 87 rlineto
-501 hlineto
-17 -87 rlineto
202 hlineto
-117 -601 rlineto
99 hlineto
return
                    </CharString>
                    <CharString index="100">
                        -40 -130 -36 -79 -54 -94 -5 -56 rcurveline
210 hlineto
return
                    </CharString>
                    <CharString index="101">
                        412 rmoveto
25 135 rlineto
-128 hlineto
-25 -135 rlineto
-133 -571 rmoveto
39 -24 100 93 62 92 10 133 rlinecurve
-125 -3 5 -119 -17 -85 -74 -87 rlinecurve
endchar
                    </CharString>
                    <CharString index="102">
                        3 -22 -21 1 -20 hhcurveto
-210 -136 -194 -199 -121 54 -61 69 60 75 48 return
                    </CharString>
                    <CharString index="103">
                        rmoveto
-98 callgsubr
return
                    </CharString>
                    <CharString index="104">
                        -40 24 -99 -93 -63 -92 -9 -133 rlinecurve
125 3 -5 119 17 85 74 87 rlinecurve
return
                    </CharString>
                    <CharString index="105">
                        35 21 -21 688 -20 23 -20 hstemhm
117 566 hintmask 10110000
return
                    </CharString>
                    <CharString index="106">
                        -97 0 81 504 -20 hstem
return
                    </CharString>
                    <CharString index="107">
                        286 466 rmoveto
-84 callsubr
return
                    </CharString>
                    <CharString index="108">
                        -20 callsubr
hstem
return
                    </CharString>
                    <CharString index="109">
                        1 0 88.5 511 88.5 return
                    </CharString>
                    <CharString index="110">
                        5 -94 20 -83 -22 -21 -23 -23 -102 -16 -199 15 rrcurveto
return
                    </CharString>
                    <CharString index="111">
                        -203 -11 87 475 -20 return
                    </CharString>
                    <CharString index="112">
                        100 71 55 67 hvcurveto
return
                    </CharString>
                    <CharString index="113">
                        -33 637.5 145.5 hstem
221 151 vstem
326 638 -77 callgsubr
endchar
                    </CharString>
                    <CharString index="114">
                        -12 -11 76 485 -20 57 -20 hstemhm
130 168 return
                    </CharString>
                    <CharString index="115">
                        85 -46 160 89 vhcurveto
return
                    </CharString>
                    <CharString index="116">
                        rmoveto
75 66 -181 220 273 224 -63 76 -265 -235 -24 -116 rlineto
501 -235 rmoveto
77 63 -175 223 return
                    </CharString>
                    <CharString index="117">
                        109 16 -185 213 rlineto
152 91 59 86 71 vvcurveto
54 -37 38 -65 -68 -85 -43 -84 -82 vhcurveto
67 347 -95 -8 rlineto
return
                    </CharString>
                    <CharString index="118">
                        -26 -9 85 -64 -21 626 84 hstemhm
129 99 162 99 hintmask 10111000
return
                    </CharString>
                    <CharString index="119">
                        -11 -100 254 -13 127 47 37 75 rlinecurve
endchar
                    </CharString>
                    <CharString index="120">
                        106 -14 86 616 -20 hstem
100 98 vstem
return
                    </CharString>
                    <CharString index="121">
                        hstem
57 93 269 93 vstem
return
                    </CharString>
                    <CharString index="122">
                        8 -189 94 -94 100 114 94 359 82 return
                    </CharString>
                    <CharString index="123">
                        433 rmoveto
105 -17 -47 58 -100 hhcurveto
-121 -92 -87 -91 hvcurveto
-138 231 -62 -87 vvcurveto
-51 -70 -39 -219 58 vhcurveto
return
                    </CharString>
                    <CharString index="124">
                        114 585 rlineto
return
                    </CharString>
                    <CharString index="125">
                        -132 -686 rlineto
97 hlineto
119 611 rlineto
128 12 60 -38 -75 vvcurveto
-71 -52 -57 -158 -73 vhcurveto
-2 vlineto
return
                    </CharString>
                    <CharString index="126">
                        -56 0 82 421 82 hstem
17 return
                    </CharString>
                    <CharString index="127">
                        46 -23 callsubr
return
                    </CharString>
                    <CharString index="128">
                        45 12 -21 30 -21 29 -21 603 84 hstemhm
return
                    </CharString>
                    <CharString index="129">
                        hstemhm
93 97 225 95 return
                    </CharString>
                    <CharString index="130">
                        rmoveto
318 hlineto
16 82 rlineto
-224 hlineto
155 801 rlineto
224 hlineto
16 81 rlineto
-317 hlineto
endchar
                    </CharString>
                    <CharString index="131">
                        -33 668 86 hstem
113 361 vstem
474 754 -75 callgsubr
endchar
                    </CharString>
                    <CharString index="132">
                        rmoveto
70 126 84 132 99 120 15 68 rcurveline
-313 hlineto
-17 -72 rlineto
229 hlineto
1 -4 return
                    </CharString>
                    <CharString index="133">
                        -10 -76 rlineto
-54 callsubr
return
                    </CharString>
                    <CharString index="134">
                        -41 callgsubr
hstem
return
                    </CharString>
                    <CharString index="135">
                        -181 rmoveto
-12 44 rlineto
return
                    </CharString>
                    <CharString index="136">
                        rmoveto
265 235 24 116 -185 234 -75 -65 181 -221 -273 -223 rlineto
return
                    </CharString>
                    <CharString index="137">
                        49 -13 88 540 88 hstem
76 98 340 94 vstem
return
                    </CharString>
                    <CharString index="138">
                        28 callsubr
-104 -40 return
                    </CharString>
                    <CharString index="139">
                        71 299 75 hstem
return
                    </CharString>
                    <CharString index="140">
                        -90 -79 callgsubr
hintmask 10011100
return
                    </CharString>
                    <CharString index="141">
                        rmoveto
37 callgsubr
                    </CharString>
                    <CharString index="142">
                        272 -14 94 -91 87 127 62 211 81 -80 84 hstemhm
52 95 594 93 return
                    </CharString>
                    <CharString index="143">
                        rmoveto
-39 19 -67 -59 -48 -87 -9 -82 rlinecurve
125 3 -8 61 8 76 38 69 rlinecurve
return
                    </CharString>
                    <CharString index="144">
                        hstem
84 96 vstem
return
                    </CharString>
                    <CharString index="145">
                        0 11 -3 4 -5 -5 -3 -4 0 hflex1
return
                    </CharString>
                    <CharString index="146">
                        0 -12 3 -4 5 5 3 4 0 hflex1
return
                    </CharString>
                    <CharString index="147">
                        74 6 -20 313 71 hstemhm
return
                    </CharString>
                    <CharString index="148">
                        70 319 71 hstem
return
                    </CharString>
                    <CharString index="149">
                        80 200 80 vstem
return
                    </CharString>
                    <CharString index="150">
                        44 callsubr
hintmask 01101110
return
                    </CharString>
                    <CharString index="151">
                        hstemhm
52 95 223 93 return
                    </CharString>
                    <CharString index="152">
                        0 154.5 -69.5 15 callgsubr
hstemhm
return
                    </CharString>
                    <CharString index="153">
                        -117 -14 88 393 76 163 -20 return
                    </CharString>
                    <CharString index="154">
                        120 -15 87 513 -20 51 87 hstem
75 97 404 97 vstem
return
                    </CharString>
                    <CharString index="155">
                        238 rmoveto
24 135 rlineto
-128 hlineto
-24 -135 rlineto
endchar
                    </CharString>
                    <CharString index="156">
                        -8 -2 -5 -6 -11 hhcurveto
-13 -8 8 12 12 9 9 11 hvcurveto
return
                    </CharString>
                    <CharString index="157">
                        -403 rmoveto
24 122 rlineto
-106 hlineto
-24 -122 rlineto
endchar
                    </CharString>
                    <CharString index="158">
                        -20 28 callgsubr
return
                    </CharString>
                    <CharString index="159">
                        hstem
58 94 260 89 vstem
return
                    </CharString>
                    <CharString index="160">
                        -114 -585 rlineto
98 hlineto
return
                    </CharString>
                    <CharString index="161">
                        15 callgsubr
hstem
return
                    </CharString>
                    <CharString index="162">
                        77 169 76 return
                    </CharString>
                    <CharString index="163">
                        -64 callgsubr
-26 -137 return
                    </CharString>
                    <CharString index="164">
                        2 13 -21 29 -21 29 -21 462 91 220 -20 hstemhm
return
                    </CharString>
                    <CharString index="165">
                        51 callgsubr
hstem
74 97 229 96 return
                    </CharString>
                    <CharString index="166">
                        -45 -148 15 callgsubr
return
                    </CharString>
                    <CharString index="167">
                        -2 66 callsubr
return
                    </CharString>
                    <CharString index="168">
                        422 27 callgsubr
return
                    </CharString>
                    <CharString index="169">
                        26 callsubr
endchar
                    </CharString>
                    <CharString index="170">
                        hstemhm
59 98 296 93 return
                    </CharString>
                    <CharString index="171">
                        -61 -13 87 402 85 return
                    </CharString>
                    <CharString index="172">
                        -49 0 85 377 85 return
                    </CharString>
                    <CharString index="173">
                        -20 22 -20 hstemhm
return
                    </CharString>
                    <CharString index="174">
                        0 8 -2 4 -5 -4 -3 -3 0 hflex1
return
                    </CharString>
                    <CharString index="175">
                        -87 vvcurveto
-76 70 -22 155 87 vhcurveto
endchar
                    </CharString>
                    <CharString index="176">
                        hintmask 100000000000000000000000000000000000000000000000
return
                    </CharString>
                    <CharString index="177">
                        -4 21 -21 601 87 hstem
return
                    </CharString>
                    <CharString index="178">
                        64 157 57 return
                    </CharString>
                    <CharString index="179">
                        461 65 179 -20 166 71 hstemhm
return
                    </CharString>
                    <CharString index="180">
                        -21 24 -21 168 70 263 83 hstemhm
return
                    </CharString>
                    <CharString index="181">
                        -45 -239 77 callgsubr
100 67 100 return
                    </CharString>
                    <CharString index="182">
                        vstem
406 hmoveto
16 81 rlineto
-260 hlineto
return
                    </CharString>
                    <CharString index="183">
                        -46 160 89 vhcurveto
endchar
                    </CharString>
                    <CharString index="184">
                        hstem
101 97 vstem
return
                    </CharString>
                    <CharString index="185" fingerprint="c3284665">
                        rlineto
169 return
                    </CharString>
                <CharString name=".notdef">
                    -102 -200 50 900 50 hstem
0 50 400 50 vstem
-200 vmoveto
500 1000 -500 hlineto
71 -50 rmoveto
358 hlineto
-179 -390 rlineto
200 316 rmoveto
-752 vlineto
-172 376 rlineto
-228 -376 rmoveto
752 vlineto
172 -376 rlineto
28 -60 rmoveto
179 -390 rlineto
-358 hlineto
endchar
                </CharString>
                <CharString name="A">
                    -52 callgsubr
hstemhm
-1 572 hintmask 10011100
473 -4 -89 callgsubr
                </CharString>
                <CharString name="A.sc">
                    -80 callsubr
hstemhm
-2 517 hintmask 10011100
417 -3 -100 callgsubr
                </CharString>
                <CharString name="AE">
                    43 callgsubr
546 601 -45 callgsubr
                </CharString>
                <CharString name="AE.sc">
                    -9 callgsubr
473 505 -85 callgsubr
                </CharString>
                <CharString name="AEacute">
                    43 callgsubr
582 808 -107 callgsubr
-36 -207 -45 callgsubr
                </CharString>
                <CharString name="AEacute.sc">
                    -9 callgsubr
462 705 -107 callgsubr
11 -200 -85 callgsubr
                </CharString>
                <CharString name="Aacute">
                    -52 callgsubr
hstemhm
-1 622 hintmask 00111100
325 809 -107 callgsubr
hintmask 10011100
148 -813 -89 callgsubr
                </CharString>
                <CharString name="Aacute.sc">
                    -80 callsubr
hstemhm
-2 574 hintmask 00111100
276 706 -107 callgsubr
hintmask 10011100
141 -709 -100 callgsubr
                </CharString>
                <CharString name="Abreve">
                    -52 callgsubr
79 82 hstemhm
-1 664 hintmask 00111110
606 966 -104 callgsubr
hintmask 10011110
-190 -934 -82 callgsubr
                </CharString>
                <CharString name="Abreve.sc">
                    -80 callsubr
79 82 hstemhm
-2 616 hintmask 00111110
557 863 -104 callgsubr
hintmask 10011110
-197 -830 -105 callgsubr
                </CharString>
                <CharString name="Acircumflex">
                    -52 callgsubr
hstemhm
-1 627 hintmask 00111100
556 762 -96 callgsubr
hintmask 10011100
15 -886 -89 callgsubr
                </CharString>
                <CharString name="Acircumflex.sc">
                    -80 callsubr
hstemhm
-2 579 hintmask 00111100
507 659 -96 callgsubr
hintmask 10011100
8 -782 -100 callgsubr
                </CharString>
                <CharString name="Adieresis">
                    -52 callgsubr
90.5 -41 callgsubr
hstemhm
-1 636 hintmask 00111110
590 783 -103 callsubr
hintmask 10011110
208 -783 -82 callgsubr
                </CharString>
                <CharString name="Adieresis.sc">
                    -80 callsubr
90.5 -41 callgsubr
hstemhm
-2 588 hintmask 00111110
541 680 -103 callsubr
hintmask 10011110
201 -679 -105 callgsubr
                </CharString>
                <CharString name="Agrave">
                    -52 callgsubr
hstemhm
-1 572 hintmask 00111100
536 801 -99 callgsubr
hintmask 10011100
-39 -762 -89 callgsubr
                </CharString>
                <CharString name="Agrave.sc">
                    -80 callsubr
111 -20 hstemhm
-2 517 hintmask 00111110
488 698 -99 callgsubr
hintmask 10011110
-47 -658 -105 callgsubr
                </CharString>
                <CharString name="Amacron">
                    -52 callgsubr
121 86 hstemhm
-1 632 hintmask 00111110
631 897 -75 callgsubr
hintmask 10011110
-142 -815 -82 callgsubr
                </CharString>
                <CharString name="Amacron.sc">
                    -80 callsubr
121 86 hstemhm
-2 584 hintmask 00111110
582 794 -75 callgsubr
hintmask 10011110
-149 -711 -105 callgsubr
                </CharString>
                <CharString name="Aogonek">
                    67 -226 70 177 -21 25 -21 206 75 315 90 hstemhm
293 90 hintmask 10111100
538 -177 rmoveto
-52 callsubr
-24 229 -28 227 -32 230 rrcurveto
-137 hlineto
hintmask 11011100
-122 -229 -118 -232 -111 -229 rrcurveto
99 hlineto
34 70 34 70 35 70 rrcurveto
251 hlineto
7 -64 6 -63 6 -64 rrcurveto
-126 -54 -52 -60 -54 vvcurveto
hintmask 10111100
-71 8 callsubr
-139 777 rmoveto
7 hlineto
13 -105 13 -105 12 -105 rrcurveto
-206 hlineto
53 105 54 106 54 104 rrcurveto
endchar
                </CharString>
                <CharString name="Aogonek.sc">
                    -65 callgsubr
                </CharString>
                <CharString name="Aring">
                    -52 callgsubr
63 228 hstemhm
-1 586 hintmask 00111110
464 981 -79 callgsubr
hintmask 10011110
9 -985 -82 callgsubr
                </CharString>
                <CharString name="Aring.sc">
                    -80 callsubr
63 228 hstemhm
-2 538 hintmask 00111110
415 878 -79 callgsubr
hintmask 10011110
2 -881 -105 callgsubr
                </CharString>
                <CharString name="Aringacute">
                    -52 callgsubr
hstemhm
-1 672 hintmask 00111100
375 1071 -107 callgsubr
89 33 callsubr
9 -985 -89 callgsubr
                </CharString>
                <CharString name="Aringacute.sc">
                    -80 callsubr
hstemhm
-2 625 hintmask 00111100
327 968 -107 callgsubr
88 33 callsubr
2 -881 -100 callgsubr
                </CharString>
                <CharString name="Atilde">
                    -52 callgsubr
84 78 29 78 hstemhm
-1 669 hintmask 00111101
532 852 rmoveto
hintmask 00111111
-81 callgsubr
hintmask 00111101
-82 callsubr
hintmask 10011101
-59 -856 rmoveto
hintmask 00111101
98 8 -24 229 -28 227 -32 230 rlinecurve
-137 hlineto
hintmask 01011101
-122 -229 -118 -232 -111 -229 rrcurveto
99 hlineto
34 70 34 70 35 70 rrcurveto
251 hlineto
hintmask 10011101
7 -72 8 -71 6 -71 rrcurveto
hintmask 00111101
-74 604 rmoveto
7 hlineto
13 -105 13 -105 12 -105 rrcurveto
-206 hlineto
53 105 54 106 54 104 rrcurveto
endchar
                </CharString>
                <CharString name="Atilde.sc">
                    -74 callgsubr
                </CharString>
                <CharString name="B">
                    31 -9 84 -54 -21 311 60 243 82 hstemhm
456 98 -64 96 hintmask 10011000
554 212 rmoveto
70 -51 54 -79 20 vhcurveto
hintmask 01010100
101 38 61 67 80 vvcurveto
108 -115 78 -279 -43 vhcurveto
-133 -684 rlineto
hintmask 10011000
355 -44 140 128 128 vvcurveto
hintmask 10110100
-64 306 rmoveto
-70 -80 -65 -181 -12 vhcurveto
47 240 rlineto
141 14 73 -42 -65 vvcurveto
hintmask 10111000
-34 -316 rmoveto
-79 -92 -67 -191 24 vhcurveto
45 231 rlineto
166 12 72 -50 -71 vvcurveto
endchar
                </CharString>
                <CharString name="B.sc">
                    -57 callgsubr
                </CharString>
                <CharString name="C">
                    30 callsubr
441 703 -74 callsubr
                </CharString>
                <CharString name="C.sc">
                    -20 callgsubr
383 598 -94 callgsubr
                </CharString>
                <CharString name="Cacute">
                    30 callsubr
339 820 -107 callgsubr
102 -117 -74 callsubr
                </CharString>
                <CharString name="Cacute.sc">
                    -20 callgsubr
291 718 -107 callgsubr
92 -120 -94 callgsubr
                </CharString>
                <CharString name="Ccaron">
                    30 callsubr
447 768 -101 callgsubr
-5 -65 -74 callsubr
                </CharString>
                <CharString name="Ccaron.sc">
                    -20 callgsubr
398 666 -101 callgsubr
-14 -68 -94 callgsubr
                </CharString>
                <CharString name="Ccedilla">
                    49 -172 -21 135 133 -87 87 -55 -21 616 88 hstemhm
76 98 145 86 109 94 hintmask 10101111
537 26 rmoveto
9 89 rlineto
-248 -87 -124 58 185 vvcurveto
163 91 181 150 83 14 -56 -117 2 vhcurveto
94 1 rlineto
171 3 -38 89 -132 hhcurveto
-198 -167 -217 -235 hvcurveto
hintmask 10011111
-135 59 -87 105 -30 vhcurveto
-36 -24 -32 -48 -29 -75 51 -17 rcurveline
hintmask 11001111
-40 callgsubr
86 hlineto
hintmask 10101111
6 90 -18 59 -31 32 52 3 59 13 64 22 rrcurveto
endchar
                </CharString>
                <CharString name="Ccedilla.sc">
                    -64 callsubr
                </CharString>
                <CharString name="Cdotaccent">
                    49 -13 88 540 88 88.5 145 hstem
76 98 340 94 vstem
495 792 -77 callgsubr
51 -88 -74 callsubr
                </CharString>
                <CharString name="Cdotaccent.sc">
                    -14 -12 84 443 83 1 callsubr
59 98 287 93 vstem
446 690 -77 callgsubr
42 -91 -94 callgsubr
                </CharString>
                <CharString name="D">
                    56 callgsubr
638 422 -19 callgsubr
                </CharString>
                <CharString name="D.sc">
                    2 callgsubr
569 356 -73 callsubr
                </CharString>
                <CharString name="Dcaron">
                    56 callgsubr
423 764 -101 callgsubr
216 -342 -19 callgsubr
                </CharString>
                <CharString name="Dcaron.sc">
                    2 callgsubr
371 660 -101 callgsubr
199 -304 -73 callsubr
                </CharString>
                <CharString name="Dcroat">
                    -51 callgsubr
                </CharString>
                <CharString name="Dcroat.sc">
                    19 -88 callsubr
                </CharString>
                <CharString name="E">
                    -22 callgsubr
hstem
59 530 vstem
476 87 -89 callsubr
                </CharString>
                <CharString name="E.sc">
                    -62 callsubr
hstem
48 473 vstem
428 80 -103 callgsubr
                </CharString>
                <CharString name="Eacute">
                    -22 callgsubr
hstem
59 530 vstem
292 808 -107 callgsubr
184 -721 -89 callsubr
                </CharString>
                <CharString name="Eacute.sc">
                    -62 callsubr
hstem
48 495 vstem
247 705 -107 callgsubr
181 -625 -103 callgsubr
                </CharString>
                <CharString name="Ebreve">
                    -22 callgsubr
80 82 hstem
59 571 vstem
573 965 -104 callgsubr
-154 -842 -89 callsubr
                </CharString>
                <CharString name="Ebreve.sc">
                    -62 callsubr
80 82 hstem
48 537 vstem
528 862 -104 callgsubr
-157 -746 -103 callgsubr
                </CharString>
                <CharString name="Ecaron">
                    -22 callgsubr
hstem
59 559 vstem
399 756 -101 callgsubr
78 -669 -89 callsubr
                </CharString>
                <CharString name="Ecaron.sc">
                    -62 callsubr
hstem
48 525 vstem
354 653 -101 callgsubr
75 -573 -103 callgsubr
                </CharString>
                <CharString name="Ecircumflex">
                    -22 callgsubr
hstem
59 534 vstem
523 761 -96 callgsubr
51 -794 -89 callsubr
                </CharString>
                <CharString name="Ecircumflex.sc">
                    -62 callsubr
129 -20 hstem
48 500 vstem
478 658 -96 callgsubr
48 -698 -103 callgsubr
                </CharString>
                <CharString name="Edieresis">
                    -22 callgsubr
21 callgsubr
59 543 vstem
557 782 -103 callsubr
244 -691 -89 callsubr
                </CharString>
                <CharString name="Edieresis.sc">
                    -62 callsubr
21 callgsubr
48 509 vstem
512 679 -103 callsubr
241 -595 -103 callgsubr
                </CharString>
                <CharString name="Edotaccent">
                    -22 callgsubr
1 callsubr
59 530 vstem
447 780 -77 callgsubr
134 -692 -89 callsubr
                </CharString>
                <CharString name="Edotaccent.sc">
                    -62 callsubr
1 callsubr
48 473 vstem
402 677 -77 callgsubr
131 -596 -103 callgsubr
                </CharString>
                <CharString name="Egrave">
                    -22 callgsubr
hstem
59 530 vstem
504 800 -99 callgsubr
-4 -670 -89 callsubr
                </CharString>
                <CharString name="Egrave.sc">
                    -62 callsubr
112 -20 hstem
48 473 vstem
459 697 -99 callgsubr
-7 -574 -103 callgsubr
                </CharString>
                <CharString name="Emacron">
                    -22 callgsubr
122 86 hstem
59 539 vstem
598 896 -75 callgsubr
-106 -723 -89 callsubr
                </CharString>
                <CharString name="Emacron.sc">
                    -62 callsubr
122 86 hstem
48 505 vstem
553 793 -75 callgsubr
-109 -627 -103 callgsubr
                </CharString>
                <CharString name="Eogonek">
                    -11 -230 70 160 87 222 76 216 87 hstem
174 90 vstem
419 -181 rmoveto
-52 callsubr
-1 1 25 86 rlineto
-301 hlineto
43 222 rlineto
255 hlineto
15 76 rlineto
-256 hlineto
55 callgsubr
298 hlineto
17 87 rlineto
-397 hlineto
-133 -688 rlineto
260 hlineto
-102 -51 -43 -53 -49 vvcurveto
-71 85 76 callsubr
                </CharString>
                <CharString name="Eogonek.sc">
                    -49 callgsubr
                </CharString>
                <CharString name="Eth">
                    -51 callgsubr
                </CharString>
                <CharString name="Eth.sc">
                    18 -88 callsubr
                </CharString>
                <CharString name="Euro">
                    22 -13 85 127 85 -75 77 91 77 164 85 hstemhm
39 587 -500 90 318 92 hintmask 10111100
541 42 rmoveto
-12 57 -202 -59 -91 36 -18 133 rlinecurve
231 hlineto
19 77 rlineto
hintmask 10111011
-252 hlineto
1 30 5 31 8 30 rrcurveto
257 hlineto
19 77 rlineto
-250 hlineto
92 40 67 72 81 hhcurveto
62 20 -38 -71 8 hvcurveto
92 14 rlineto
122 -9 -46 58 -100 hhcurveto
-126 -115 -101 -140 -61 hvcurveto
-81 hlineto
-16 -85 rlineto
69 hlineto
hintmask 11011010
-8 -30 -5 -31 -2 -32 rrcurveto
-70 hlineto
-17 -85 rlineto
87 hlineto
hintmask 10111100
18 -183 135 -98 262 124 rrcurveto
endchar
                </CharString>
                <CharString name="F">
                    -30 21 -21 297 76 228 87 hstem
59 531 vstem
471 297 rmoveto
15 76 rlineto
-256 hlineto
44 228 rlineto
300 hlineto
16 87 rlineto
-398 hlineto
-133 -688 rlineto
98 hlineto
58 297 rlineto
endchar
                </CharString>
                <CharString name="F.sc">
                    -16 callsubr
                </CharString>
                <CharString name="G">
                    44 callgsubr
hstemhm
76 99 348 94 hintmask 10111000
500 -123 -72 callgsubr
hintmask 01111000
7 callgsubr
endchar
                </CharString>
                <CharString name="G.sc">
                    1 callgsubr
63 callsubr
hintmask 10111000
446 -103 -93 callgsubr
hintmask 01111000
-35 callsubr
endchar
                </CharString>
                <CharString name="Gbreve">
                    44 callgsubr
77 82 hstemhm
76 99 348 94 hintmask 10111100
630 977 -104 callgsubr
-187 -1064 -72 callgsubr
hintmask 01111100
7 callgsubr
endchar
                </CharString>
                <CharString name="Gbreve.sc">
                    1 callgsubr
80 82 63 callsubr
hintmask 10111100
574 875 -104 callgsubr
-185 -942 -93 callgsubr
hintmask 01111100
-35 callsubr
endchar
                </CharString>
                <CharString name="Gcommaaccent">
                    44 callgsubr
hstemhm
76 99 41 122 185 94 hintmask 10111100
500 -123 -72 callgsubr
hintmask 01111100
7 callgsubr
-232 -240 -102 callsubr
                </CharString>
                <CharString name="Gcommaaccent.sc">
                    1 callgsubr
hstemhm
59 98 23 122 151 93 hintmask 10110100
446 -103 -93 callgsubr
hintmask 01110100
-35 callsubr
hintmask 10111100
-216 -257 -102 callsubr
                </CharString>
                <CharString name="Gdotaccent">
                    44 callgsubr
88.5 145 hstemhm
76 99 348 94 hintmask 10111100
504 792 -77 callgsubr
101 -914 -72 callgsubr
hintmask 01111100
7 callgsubr
endchar
                </CharString>
                <CharString name="Gdotaccent.sc">
                    1 callgsubr
-20 callsubr
63 callsubr
hintmask 10111100
448 690 -77 callgsubr
103 -792 -93 callgsubr
hintmask 01111100
-35 callsubr
endchar
                </CharString>
                <CharString name="H">
                    122 21 -21 309 77 302 -20 hstem
59 634 vstem
461 hmoveto
98 hlineto
134 688 rlineto
-99 hlineto
-58 -302 rlineto
-303 hlineto
58 302 rlineto
-99 hlineto
-133 -688 rlineto
99 hlineto
60 309 rlineto
303 hlineto
endchar
                </CharString>
                <CharString name="H.sc">
                    -18 callsubr
                </CharString>
                <CharString name="Hbar">
                    153 21 -21 292 76 117 78 -74 70 -70 199 hstemhm
76 686 hintmask 11010100
549 368 rmoveto
-303 hlineto
24 121 rlineto
303 hlineto
-95 -489 rmoveto
98 hlineto
hintmask 11100100
94 485 rlineto
76 hlineto
16 78 rlineto
-76 hlineto
hintmask 11001100
24 125 rlineto
-99 hlineto
hintmask 11010100
-25 -129 rlineto
-303 hlineto
hintmask 11001100
25 129 rlineto
-99 hlineto
hintmask 11100100
-24 -125 rlineto
-75 hlineto
-15 -78 rlineto
75 hlineto
-94 -485 rlineto
99 hlineto
56 292 rlineto
303 hlineto
endchar
                </CharString>
                <CharString name="Hbar.sc">
                    -53 callgsubr
                </CharString>
                <CharString name="I">
                    29 callgsubr
hstem
30 522 vstem
290 82 -83 callgsubr
                </CharString>
                <CharString name="I.sc">
                    -30 callgsubr
hstem
21 468 vstem
262 75 -102 callgsubr
                </CharString>
                <CharString name="Iacute">
                    29 callgsubr
hstem
30 532 vstem
266 808 -107 callgsubr
24 -726 -83 callgsubr
                </CharString>
                <CharString name="Iacute.sc">
                    -30 callgsubr
hstem
21 495 vstem
220 705 -107 callgsubr
42 -630 -102 callgsubr
                </CharString>
                <CharString name="Ibreve">
                    29 callgsubr
80 82 hstem
30 575 vstem
548 965 -104 callgsubr
-315 -847 -83 callgsubr
                </CharString>
                <CharString name="Ibreve.sc">
                    -30 callgsubr
80 82 hstem
21 538 vstem
502 862 -104 callgsubr
-297 -751 -102 callgsubr
                </CharString>
                <CharString name="Icircumflex">
                    29 callgsubr
hstem
30 538 vstem
498 761 -96 callgsubr
-110 -799 -83 callgsubr
                </CharString>
                <CharString name="Icircumflex.sc">
                    -30 callgsubr
129 -20 hstem
21 501 vstem
452 658 -96 callgsubr
-92 -703 -102 callgsubr
                </CharString>
                <CharString name="Idieresis">
                    29 callgsubr
21 callgsubr
30 547 vstem
532 782 -103 callsubr
83 -696 -83 callgsubr
                </CharString>
                <CharString name="Idieresis.sc">
                    -30 callgsubr
21 callgsubr
21 510 vstem
486 679 -103 callsubr
101 -600 -102 callgsubr
                </CharString>
                <CharString name="Idotaccent">
                    29 callgsubr
1 callsubr
30 522 vstem
422 780 -77 callgsubr
-27 -697 -83 callgsubr
                </CharString>
                <CharString name="Idotaccent.sc">
                    -30 callgsubr
1 callsubr
21 468 vstem
376 677 -77 callgsubr
-9 -601 -102 callgsubr
                </CharString>
                <CharString name="Igrave">
                    29 callgsubr
hstem
30 522 vstem
478 800 -99 callgsubr
-164 -675 -83 callgsubr
                </CharString>
                <CharString name="Igrave.sc">
                    -30 callgsubr
112 -20 hstem
21 468 vstem
432 697 -99 callgsubr
-146 -579 -102 callgsubr
                </CharString>
                <CharString name="Imacron">
                    29 callgsubr
122 86 hstem
30 542 vstem
572 896 -75 callgsubr
-266 -728 -83 callgsubr
                </CharString>
                <CharString name="Imacron.sc">
                    -30 callgsubr
122 86 hstem
21 506 vstem
527 793 -75 callgsubr
-249 -632 -102 callgsubr
                </CharString>
                <CharString name="Iogonek">
                    -44 -230 70 160 82 525 81 hstem
69 90 vstem
314 28 callsubr
-101 -39 -42 15 38 vvcurveto
38 39 46 87 39 vhcurveto
135 hlineto
20 82 rlineto
-150 hlineto
102 525 rlineto
144 hlineto
16 81 rlineto
-390 hlineto
-16 -81 rlineto
147 hlineto
-101 -525 rlineto
-145 hlineto
-17 -82 rlineto
149 hlineto
-76 -50 -34 -54 -48 vvcurveto
-74 88 -43 157 88 vhcurveto
endchar
                </CharString>
                <CharString name="Iogonek.sc">
                    -45 callsubr
                </CharString>
                <CharString name="J">
                    -71 -13 96 524 81 hstem
18 488 vstem
18 -13 rmoveto
190 98 22 43 43 hvcurveto
31 31 13 25 42 216 71 364 rcurveline
-297 hlineto
-18 -81 rlineto
201 hlineto
-59 -300 -29 -153 -9 -27 -19 -18 rlinecurve
-24 -25 -54 -4 -165 3 rrcurveto
endchar
                </CharString>
                <CharString name="J.sc">
                    -32 callgsubr
                </CharString>
                <CharString name="K">
                    39 13 -21 29 -21 29 -21 680 -20 hstemhm
59 616 -10 callgsubr
endchar
                </CharString>
                <CharString name="K.sc">
                    22 callgsubr
48 557 -65 callsubr
endchar
                </CharString>
                <CharString name="Kcommaaccent">
                    39 13 -21 29 -21 29 -21 680 -20 hstemhm
218 122 -10 callgsubr
-113 -983 -102 callsubr
                </CharString>
                <CharString name="Kcommaaccent.sc">
                    22 callgsubr
184 122 -65 callsubr
-116 -879 -102 callsubr
                </CharString>
                <CharString name="L">
                    54 callgsubr
hstem
59 412 vstem
453 hmoveto
37 callgsubr
                </CharString>
                <CharString name="L.sc">
                    -1 callsubr
49 373 vstem
406 hmoveto
-15 callsubr
                </CharString>
                <CharString name="Lacute">
                    54 callgsubr
hstem
59 532 vstem
295 808 -107 callgsubr
158 -808 34 callsubr
                </CharString>
                <CharString name="Lacute.sc">
                    -24 callgsubr
                </CharString>
                <CharString name="Lcaron">
                    54 callgsubr
113 -20 hstem
465 111 vstem
465 775 -63 callsubr
-123 -781 34 callsubr
                </CharString>
                <CharString name="Lcaron.sc">
                    -21 callgsubr
                </CharString>
                <CharString name="Lcommaaccent">
                    54 callgsubr
hstem
179 122 vstem
453 hmoveto
-31 callgsubr
80 -287 -102 callsubr
                </CharString>
                <CharString name="Lcommaaccent.sc">
                    -1 callsubr
146 122 vstem
406 hmoveto
-68 callsubr
57 -287 -102 callsubr
                </CharString>
                <CharString name="Ldot">
                    -44 0 87 193 127 281 -20 hstem
59 458 vstem
453 hmoveto
-31 callgsubr
433 280 rmoveto
25 127 rlineto
-109 hlineto
-25 -127 rlineto
endchar
                </CharString>
                <CharString name="Ldot.sc">
                    -17 callsubr
                </CharString>
                <CharString name="Lslash">
                    54 callgsubr
hstem
41 430 vstem
453 hmoveto
18 87 rlineto
-296 hlineto
52 267 168 81 -4 78 -147 -71 47 246 rlineto
-99 hlineto
-58 -298 -93 -45 4 -78 72 35 -58 -302 rlineto
endchar
                </CharString>
                <CharString name="Lslash.sc">
                    -16 callgsubr
                </CharString>
                <CharString name="M">
                    235 21 -21 59.5 -41 callgsubr
363 121 -120 124 0 -20 hstemhm
59 746 hintmask 10001100
332 692 rmoveto
-140 -7 -133 -685 rlineto
91 hlineto
hintmask 11010100
103 568 rlineto
7 hlineto
73 -509 79 1 rlineto
hintmask 11100100
271 507 rlineto
7 hlineto
-116 -567 rlineto
98 hlineto
47 callgsubr
-145 hlineto
-258 -484 rlineto
-3 hlineto
endchar
                </CharString>
                <CharString name="M.sc">
                    -44 callsubr
                </CharString>
                <CharString name="N">
                    33 callgsubr
460 hmoveto
-61 callgsubr
endchar
                </CharString>
                <CharString name="N.sc">
                    63 0 149 -128 -21 460 127 -2 -20 22 -20 hstemhm
49 574 -12 callsubr
endchar
                </CharString>
                <CharString name="NUL">
                    -602 endchar
                </CharString>
                <CharString name="Nacute">
                    33 callgsubr
358 810 -107 callgsubr
102 -810 rmoveto
-61 callgsubr
endchar
                </CharString>
                <CharString name="Nacute.sc">
                    34 callgsubr
298 706 -107 callgsubr
107 -706 rmoveto
-87 callsubr
endchar
                </CharString>
                <CharString name="Ncaron">
                    33 callgsubr
465 758 -101 callgsubr
-4 -758 rmoveto
-61 callgsubr
endchar
                </CharString>
                <CharString name="Ncaron.sc">
                    -61 callsubr
hstemhm
49 575 hintmask 01001100
405 654 -101 callgsubr
1 -654 rmoveto
-87 callsubr
endchar
                </CharString>
                <CharString name="Ncommaaccent">
                    -24 callsubr
hstemhm
242 122 hintmask 01001100
460 hmoveto
-61 callgsubr
-62 -845 -102 callsubr
                </CharString>
                <CharString name="Ncommaaccent.sc">
                    -46 callsubr
                </CharString>
                <CharString name="Ntilde">
                    -24 callsubr
104 78 29 78 hstemhm
59 642 hintmask 01001101
565 853 rmoveto
hintmask 01001111
-81 callgsubr
hintmask 01001101
-82 callsubr
-105 -853 rmoveto
107 hlineto
hintmask 10010101
47 callgsubr
-90 hlineto
-100 -526 rlineto
-7 hlineto
hintmask 01001101
-188 529 -123 -6 -133 -685 rlineto
91 hlineto
hintmask 01100101
105 558 rlineto
9 hlineto
endchar
                </CharString>
                <CharString name="Ntilde.sc">
                    -66 callgsubr
                </CharString>
                <CharString name="O">
                    -12 callgsubr
439 703 -100 callsubr
                </CharString>
                <CharString name="O.sc">
                    -43 callsubr
-38 callgsubr
378 598 -107 callsubr
                </CharString>
                <CharString name="OE">
                    347 0 87 222 76 216 87 hstem
75 97 vstem
172 291 rmoveto
181 126 126 240 3 vhcurveto
-99 -514 rlineto
-171 2 -96 61 141 vvcurveto
662 -204 rmoveto
-298 hlineto
44 222 rlineto
250 hlineto
16 76 rlineto
-252 hlineto
43 216 rlineto
293 hlineto
17 87 rlineto
-329 hlineto
-371 -172 -178 -229 -202 151 -79 232 hvcurveto
351 hlineto
endchar
                </CharString>
                <CharString name="OE.sc">
                    -48 callsubr
                </CharString>
                <CharString name="Oacute">
                    -12 callgsubr
350 821 -107 callgsubr
89 -118 -100 callsubr
                </CharString>
                <CharString name="Oacute.sc">
                    -43 callsubr
-38 callgsubr
295 718 -107 callgsubr
83 -120 -107 callsubr
                </CharString>
                <CharString name="Obreve">
                    120 -15 87 544 87 78 82 hstem
76 98 403 98 vstem
631 978 -104 callgsubr
-249 -239 -100 callsubr
                </CharString>
                <CharString name="Obreve.sc">
                    -43 callsubr
80 82 -38 callgsubr
577 875 -104 callgsubr
-256 -241 -107 callsubr
                </CharString>
                <CharString name="Ocircumflex">
                    -12 callgsubr
581 774 -96 callgsubr
-44 -191 -100 callsubr
                </CharString>
                <CharString name="Ocircumflex.sc">
                    -43 callsubr
-38 callgsubr
527 671 -96 callgsubr
-51 -193 -107 callsubr
                </CharString>
                <CharString name="Odieresis">
                    120 -15 87 544 87 71 callgsubr
27 callsubr
76 98 403 98 vstem
615 795 -103 callsubr
149 -88 -100 callsubr
                </CharString>
                <CharString name="Odieresis.sc">
                    -43 callsubr
21 callgsubr
59 98 340 97 vstem
561 692 -103 callsubr
142 -90 -107 callsubr
                </CharString>
                <CharString name="Ograve">
                    -12 callgsubr
562 813 -99 callgsubr
-99 -67 -100 callsubr
                </CharString>
                <CharString name="Ograve.sc">
                    -43 callsubr
112 -20 -38 callgsubr
507 710 -99 callgsubr
-105 -69 -107 callsubr
                </CharString>
                <CharString name="Ohungarumlaut">
                    -12 callgsubr
328 779 -90 callsubr
-57 -112 -100 callsubr
                </CharString>
                <CharString name="Ohungarumlaut.sc">
                    -43 callsubr
114 -20 -38 callgsubr
274 676 -90 callsubr
-64 -114 -107 callsubr
                </CharString>
                <CharString name="Omacron">
                    120 -15 87 544 87 120 86 hstem
76 98 403 98 vstem
656 909 -75 callgsubr
-201 -120 -100 callsubr
                </CharString>
                <CharString name="Omacron.sc">
                    -43 callsubr
122 86 -38 callgsubr
602 806 -75 callgsubr
-208 -122 -107 callsubr
                </CharString>
                <CharString name="Omega">
                    109 0 87 -60 -21 605 92 hstemhm
132 87 331 94 hintmask 10111000
262 6 rmoveto
-30 119 -13 119 85 vvcurveto
195 82 87 106 85 58 -56 -101 vhcurveto
hintmask 01111000
-105 -68 -156 -127 -187 vhcurveto
3 -6 rlineto
hintmask 10111000
233 hlineto
17 87 rlineto
-129 hlineto
101 138 64 141 114 vvcurveto
138 -91 85 -134 -154 -133 -115 -224 -87 19 -99 28 -91 vhcurveto
-137 hlineto
-17 -87 rlineto
234 hlineto
endchar
                </CharString>
                <CharString name="Oslash">
                    47 callsubr
172 279 -59 callgsubr
                </CharString>
                <CharString name="Oslash.sc">
                    -43 callsubr
-47 -20 67 -20 hstemhm
59 98 340 97 hintmask 11001100
157 238 -94 callsubr
                </CharString>
                <CharString name="Oslashacute">
                    47 callsubr
350 824 -107 callgsubr
-178 -545 -59 callgsubr
                </CharString>
                <CharString name="Oslashacute.sc">
                    -43 callsubr
-47 -20 67 -20 hstemhm
59 98 340 97 hintmask 11001100
287 719 -107 callgsubr
-130 -481 -94 callsubr
                </CharString>
                <CharString name="Otilde">
                    120 -15 87 544 87 83 78 29 78 hstemhm
76 98 403 98 hintmask 11101100
557 864 rmoveto
hintmask 11111100
-81 callgsubr
hintmask 11101100
-82 callsubr
-118 -161 -100 callsubr
                </CharString>
                <CharString name="Otilde.sc">
                    -43 callsubr
85 78 29 78 hstemhm
59 98 340 97 hintmask 11101100
503 761 rmoveto
hintmask 11111100
-81 callgsubr
hintmask 11101100
-82 callsubr
-125 -163 -107 callsubr
                </CharString>
                <CharString name="P">
                    13 21 -21 612 83 hstem
504 97 vstem
158 hmoveto
55 callgsubr
251 27 150 107 155 vvcurveto
130 -118 91 -291 -41 vhcurveto
-133 -685 rlineto
445 488 rmoveto
-108 -99 -77 -187 7 vhcurveto
58 299 rlineto
152 17 76 -53 -85 vvcurveto
endchar
                </CharString>
                <CharString name="P.sc">
                    -32 callsubr
                </CharString>
                <CharString name="Q">
                    92 13 -21 626 85 hstem
89 98 368 101 vstem
522 -162 rmoveto
40 88 -246 105 rlineto
200 94 140 163 174 vvcurveto
136 -81 105 -154 -245 -173 -280 -291 130 vhcurveto
83 34 rlineto
287 -82 104 165 157 hhcurveto
100 60 -65 -104 -161 -146 -153 -205 -72 hvcurveto
-28 -71 rlineto
endchar
                </CharString>
                <CharString name="Q.sc">
                    -41 callsubr
                </CharString>
                <CharString name="R">
                    21 callsubr
497 100 hintmask 10011000
461 -9 -60 callsubr
                </CharString>
                <CharString name="R.sc">
                    -29 callgsubr
436 98 hintmask 10011000
405 -8 -85 callsubr
                </CharString>
                <CharString name="R_p">
                    475 73 callgsubr
26 -21 26 -21 472 89 -11 -20 81 84 hstemhm
458 99 385 92 hintmask 0101000111100000
23 callgsubr
hintmask 0100010111100000
18 callsubr
hintmask 0110001011100000
520 -241 rmoveto
-23 -37 7 12 -40 hvcurveto
25 129 26 131 6 35 rrcurveto
50 48 59 42 41 hhcurveto
39 30 -37 -80 -138 -78 -151 -96 hvcurveto
-153 -252 rmoveto
hintmask 0100100111100000
5 28 14 70 16 83 rrcurveto
hintmask 0110001011100000
-6 27 24 -3 22 hhcurveto
187 124 194 199 123 -60 59 -64 -53 -66 -47 -58 -56 hvcurveto
hintmask 1010000111100000
6 40 7 46 1 8 -92 -7 rcurveline
-24 -173 -42 -205 -68 -360 rrcurveto
endchar
                </CharString>
                <CharString name="Racute">
                    21 callsubr
497 100 hintmask 00111000
303 815 -107 callgsubr
hintmask 10011000
158 -824 -60 callsubr
                </CharString>
                <CharString name="Racute.sc">
                    -29 callgsubr
436 98 hintmask 00111000
261 711 -107 callgsubr
hintmask 10011000
144 -719 -85 callsubr
                </CharString>
                <CharString name="Rcaron">
                    21 callsubr
497 100 hintmask 00111000
410 763 -101 callgsubr
hintmask 10011000
52 -772 -60 callsubr
                </CharString>
                <CharString name="Rcaron.sc">
                    -29 callgsubr
436 98 hintmask 00111000
368 659 -101 callgsubr
hintmask 10011000
38 -667 -85 callsubr
                </CharString>
                <CharString name="Rcommaaccent">
                    21 callsubr
217 122 158 100 hintmask 10011100
461 -9 rmoveto
hintmask 00111100
106 17 -173 286 rlineto
119 60 84 75 102 vvcurveto
112 -108 81 -297 -38 vhcurveto
hintmask 01011100
-133 -686 rlineto
99 hlineto
117 607 rlineto
149 16 73 -37 -75 vvcurveto
-73 -59 -57 -160 -72 vhcurveto
-1 -2 rlineto
-100 -603 -102 callsubr
                </CharString>
                <CharString name="Rcommaaccent.sc">
                    -53 callsubr
                </CharString>
                <CharString name="S">
                    11 callsubr
543 513 -66 callsubr
                </CharString>
                <CharString name="S.sc">
                    -36 callsubr
484 433 -88 callgsubr
                </CharString>
                <CharString name="Sacute">
                    11 callsubr
285 820 -107 callgsubr
258 -307 -66 callsubr
                </CharString>
                <CharString name="Sacute.sc">
                    -36 callsubr
232 715 -107 callgsubr
252 -282 -88 callgsubr
                </CharString>
                <CharString name="Scaron">
                    11 callsubr
392 768 -101 callgsubr
152 -255 -66 callsubr
                </CharString>
                <CharString name="Scaron.sc">
                    -36 callsubr
339 663 -101 callgsubr
146 -230 -88 callgsubr
                </CharString>
                <CharString name="Scedilla">
                    -26 -171 -21 135 133 -83 83 -80 80 -62 -21 624 84 hstemhm
129 99 28 86 48 99 hintmask 1001011110000000
342 -192 rmoveto
7 97 -22 61 -36 30 rrcurveto
137 19 61 75 76 vvcurveto
hintmask 1010011010000000
149 -261 72 124 vvcurveto
57 45 49 65 63 37 -39 -85 16 vhcurveto
89 20 rlineto
121 -18 -50 67 -110 hhcurveto
-133 -103 -102 -107 hvcurveto
-161 261 -68 -111 vvcurveto
-63 -80 -49 -251 70 vhcurveto
hintmask 1000111010000000
-24 -97 rlineto
hintmask 1010011010000000
48 -11 44 -6 40 -3 -31 -26 -29 -45 -27 -69 51 -17 rcurveline
hintmask 1100011110000000
-40 callgsubr
endchar
                </CharString>
                <CharString name="Scedilla.sc">
                    -68 callgsubr
                </CharString>
                <CharString name="Scommaaccent">
                    -26 -9 85 -64 -21 626 84 hstemhm
129 99 -77 122 117 99 hintmask 10110100
543 513 rmoveto
121 -18 -50 67 -110 hhcurveto
-133 -103 -102 -107 hvcurveto
-161 261 -68 -111 vvcurveto
-63 -80 -49 -251 70 vhcurveto
hintmask 01110100
-24 -97 rlineto
hintmask 10110100
319 -71 135 111 113 149 -261 72 124 vvcurveto
57 45 49 65 63 37 -39 -85 16 vhcurveto
hintmask 10101100
-343 -789 -102 callsubr
                </CharString>
                <CharString name="Scommaaccent.sc">
                    -57 callsubr
                </CharString>
                <CharString name="T">
                    70 callsubr
112 518 vstem
412 601 -8 callsubr
endchar
                </CharString>
                <CharString name="T.sc">
                    -59 21 -21 505 80 hstem
90 467 vstem
365 505 26 callgsubr
                </CharString>
                <CharString name="Tcaron">
                    70 callsubr
112 518 vstem
393 756 -101 callgsubr
20 -155 -8 callsubr
endchar
                </CharString>
                <CharString name="Tcaron.sc">
                    -28 callgsubr
                </CharString>
                <CharString name="Tcommaaccent">
                    70 callsubr
170 122 vstem
412 601 -8 callsubr
-166 -287 -102 callsubr
                </CharString>
                <CharString name="Tcommaaccent.sc">
                    -59 21 -21 505 80 hstem
143 122 vstem
365 505 -54 callgsubr
-164 -287 -102 callsubr
                </CharString>
                <CharString name="Thorn">
                    15 0 203 -182 -21 508 79 -79 180 hstemhm
485 97 hintmask 01101000
159 hmoveto
21 108 rlineto
251 28 151 107 155 vvcurveto
114 -91 84 -218 -9 vhcurveto
hintmask 01011000
19 101 rlineto
-98 hlineto
-133 -688 rlineto
hintmask 10101000
424 381 rmoveto
-108 -99 -78 -188 8 vhcurveto
59 302 rlineto
153 17 75 -56 -85 vvcurveto
endchar
                </CharString>
                <CharString name="Thorn.sc">
                    -42 callgsubr
                </CharString>
                <CharString name="U">
                    13 callsubr
207 292 -97 callsubr
                </CharString>
                <CharString name="U.sc">
                    -34 callsubr
hstem
84 96 vstem
187 246 -106 callgsubr
                </CharString>
                <CharString name="Uacute">
                    13 callsubr
340 808 -107 callgsubr
-133 -516 -97 callsubr
                </CharString>
                <CharString name="Uacute.sc">
                    -34 callsubr
hstem
84 96 vstem
290 705 -107 callgsubr
-103 -459 -106 callgsubr
                </CharString>
                <CharString name="Ubreve">
                    106 -14 86 616 -20 100 82 hstem
100 98 vstem
621 965 -104 callgsubr
-471 -637 -97 callsubr
                </CharString>
                <CharString name="Ubreve.sc">
                    -34 callsubr
100 82 37 callsubr
571 862 -104 callgsubr
-441 -580 -106 callgsubr
                </CharString>
                <CharString name="Ucircumflex">
                    13 callsubr
571 761 -96 callgsubr
-266 -589 -97 callsubr
                </CharString>
                <CharString name="Ucircumflex.sc">
                    -34 callsubr
149 60 callgsubr
521 658 -96 callgsubr
-236 -532 -106 callgsubr
                </CharString>
                <CharString name="Udieresis">
                    106 -14 86 616 -20 111.5 27 callsubr
100 98 vstem
606 782 -103 callsubr
-74 -486 -97 callsubr
                </CharString>
                <CharString name="Udieresis.sc">
                    -34 callsubr
111.5 27 callsubr
84 96 vstem
556 679 -103 callsubr
-44 -429 -106 callgsubr
                </CharString>
                <CharString name="Ugrave">
                    13 callsubr
552 800 -99 callgsubr
-321 -465 -97 callsubr
                </CharString>
                <CharString name="Ugrave.sc">
                    -34 callsubr
132 60 callgsubr
502 697 -99 callgsubr
-291 -408 -106 callgsubr
                </CharString>
                <CharString name="Uhungarumlaut">
                    13 callsubr
318 766 -90 callsubr
-279 -510 -97 callsubr
                </CharString>
                <CharString name="Uhungarumlaut.sc">
                    -34 callsubr
134 60 callgsubr
268 663 -90 callsubr
-249 -453 -106 callgsubr
                </CharString>
                <CharString name="Umacron">
                    106 -14 86 616 -20 142 86 hstem
100 98 vstem
646 896 -75 callgsubr
-423 -518 -97 callsubr
                </CharString>
                <CharString name="Umacron.sc">
                    -34 callsubr
142 86 37 callsubr
596 793 -75 callgsubr
-393 -461 -106 callgsubr
                </CharString>
                <CharString name="Uogonek">
                    106 -230 70 148 84 616 -20 hstemhm
101 96 -27 89 hintmask 11101000
415 31 callsubr
-40 18 35 vvcurveto
45 60 33 82 41 vhcurveto
37 19 37 19 30 30 46 46 31 59 17 86 84 434 rcurveline
-98 hlineto
-85 -438 rlineto
-125 -24 -61 -53 -91 hhcurveto
hintmask 11110000
-87 -64 51 169 33 hvcurveto
77 396 rlineto
-98 hlineto
-74 -385 -43 -223 95 -85 131 -7 rlinecurve
hintmask 11101000
-90 -53 -34 -44 -44 vvcurveto
-71 85 76 callsubr
                </CharString>
                <CharString name="Uogonek.sc">
                    -55 callsubr
                </CharString>
                <CharString name="Uring">
                    106 -14 86 616 -20 84 228 hstem
100 98 vstem
480 980 -79 callgsubr
-273 -688 -97 callsubr
                </CharString>
                <CharString name="Uring.sc">
                    -34 callsubr
84 228 37 callsubr
430 877 -79 callgsubr
-243 -631 -106 callgsubr
                </CharString>
                <CharString name="V">
                    28 0 91 597 -20 24 -20 hstemhm
118 98 hintmask 10110000
331 hmoveto
hintmask 11010000
120 229 114 231 105 228 rrcurveto
-98 hlineto
-90 -199 -97 -198 -102 -200 rrcurveto
-13 hlineto
hintmask 10110000
-22 201 -19 201 -13 199 -98 -8 rcurveline
15 -229 24 -226 31 -229 rrcurveto
endchar
                </CharString>
                <CharString name="V.sc">
                    -36 callgsubr
                </CharString>
                <CharString name="W">
                    -5 callgsubr
463 hmoveto
-79 callsubr
                </CharString>
                <CharString name="W.sc">
                    -43 callgsubr
                </CharString>
                <CharString name="Wacute">
                    -5 callgsubr
378 808 -107 callgsubr
85 -808 rmoveto
-79 callsubr
                </CharString>
                <CharString name="Wacute.sc">
                    -58 callgsubr
                </CharString>
                <CharString name="Wcircumflex">
                    -5 callgsubr
609 761 -96 callgsubr
-48 -881 rmoveto
-79 callsubr
                </CharString>
                <CharString name="Wcircumflex.sc">
                    -19 callsubr
149 51 callsubr
hintmask 11101000
553 658 -96 callgsubr
-43 -778 -90 callgsubr
                </CharString>
                <CharString name="Wdieresis">
                    172 0 126 562 -20 111.5 -41 callgsubr
hstemhm
99 92 -92 673 hintmask 11101000
644 782 -103 callsubr
144 -778 rmoveto
104 hlineto
49 130 80 262 76 296 rrcurveto
-93 hlineto
-22 -83 -114 -438 -15 -41 rrcurveto
-5 hlineto
-59 367 rlineto
-69 hlineto
hintmask 11110000
-197 -367 rlineto
-7 hlineto
1 41 56 438 11 83 rrcurveto
-96 hlineto
-38 -296 -24 -262 -2 -130 rrcurveto
106 hlineto
196 353 rlineto
endchar
                </CharString>
                <CharString name="Wdieresis.sc">
                    -19 callsubr
111.5 -41 callgsubr
28 callgsubr
hintmask 11101000
587 679 -103 callsubr
150 -675 -90 callgsubr
                </CharString>
                <CharString name="Wgrave">
                    -5 callgsubr
590 800 -99 callgsubr
-103 -757 rmoveto
-79 callsubr
                </CharString>
                <CharString name="Wgrave.sc">
                    -19 callsubr
132 51 callsubr
hintmask 11101000
534 697 -99 callgsubr
-98 -654 -90 callgsubr
                </CharString>
                <CharString name="X">
                    45 18 -21 24 -21 24 -21 685 -20 24 -20 hstemhm
-4 690 hintmask 10001100
447 -3 rmoveto
hintmask 00110100
105 6 -156 337 290 348 rlineto
-112 hlineto
-216 -272 rlineto
hintmask 01001100
-125 276 -105 -7 157 -338 -289 -347 rlineto
111 hlineto
216 271 rlineto
endchar
                </CharString>
                <CharString name="X.sc">
                    -33 callgsubr
                </CharString>
                <CharString name="Y">
                    -2 callsubr
316 hmoveto
-56 callsubr
                </CharString>
                <CharString name="Y.sc">
                    -27 callgsubr
288 hmoveto
-76 callsubr
                </CharString>
                <CharString name="Yacute">
                    -2 callsubr
311 810 -107 callgsubr
5 -810 rmoveto
-56 callsubr
                </CharString>
                <CharString name="Yacute.sc">
                    -27 callgsubr
263 707 -107 callgsubr
25 -707 rmoveto
-76 callsubr
                </CharString>
                <CharString name="Ycircumflex">
                    -2 callsubr
542 763 -96 callgsubr
-128 -883 rmoveto
-56 callsubr
                </CharString>
                <CharString name="Ycircumflex.sc">
                    -27 callgsubr
494 660 -96 callgsubr
-108 -780 rmoveto
-76 callsubr
                </CharString>
                <CharString name="Ydieresis">
                    35 21 -21 688 -20 23 -20 110.5 -41 callgsubr
hstemhm
117 566 hintmask 10111000
576 784 -103 callsubr
65 -780 rmoveto
44 227 rlineto
hintmask 11011000
323 461 rlineto
-105 hlineto
-241 -360 rlineto
-6 hlineto
hintmask 10111000
-113 363 -101 -5 147 -446 -47 -240 rlineto
endchar
                </CharString>
                <CharString name="Ydieresis.sc">
                    -15 21 -21 585 -20 23 -20 110.5 -41 callgsubr
67 callgsubr
hintmask 10111000
528 681 -103 callsubr
85 -677 -55 callgsubr
                </CharString>
                <CharString name="Ygrave">
                    -2 callsubr
522 802 -99 callgsubr
-182 -759 rmoveto
-56 callsubr
                </CharString>
                <CharString name="Ygrave.sc">
                    -15 21 -21 585 -20 23 -20 131 -20 67 callgsubr
hintmask 10111000
474 699 -99 callgsubr
-162 -656 -55 callgsubr
                </CharString>
                <CharString name="Z">
                    2 callsubr
hstem
25 582 vstem
481 hmoveto
-39 callgsubr
                </CharString>
                <CharString name="Z.sc">
                    19 callsubr
520 vstem
429 hmoveto
-78 callsubr
                </CharString>
                <CharString name="Zacute">
                    2 callsubr
hstem
25 582 vstem
288 808 -107 callgsubr
193 -808 rmoveto
-39 callgsubr
                </CharString>
                <CharString name="Zacute.sc">
                    19 callsubr
520 vstem
233 705 -107 callgsubr
196 -705 rmoveto
-78 callsubr
                </CharString>
                <CharString name="Zcaron">
                    2 callsubr
hstem
25 589 vstem
395 756 -101 callgsubr
87 -756 rmoveto
-39 callgsubr
                </CharString>
                <CharString name="Zcaron.sc">
                    19 callsubr
543 vstem
341 653 -101 callgsubr
89 -653 rmoveto
-78 callsubr
                </CharString>
                <CharString name="Zdotaccent">
                    2 callsubr
1 callsubr
25 582 vstem
443 780 -77 callgsubr
143 -779 rmoveto
-39 callgsubr
                </CharString>
                <CharString name="Zdotaccent.sc">
                    -56 0 82 421 82 1 callsubr
17 520 vstem
389 677 -77 callgsubr
145 -676 rmoveto
-78 callsubr
                </CharString>
                <CharString name="a">
                    -37 callgsubr
44 callsubr
hintmask 10101100
213 80 -84 callgsubr
hintmask 01011100
373 -33 rmoveto
-13 48 -114 -34 -4 11 13 66 rlinecurve
79 398 rlineto
hintmask 10101100
-80 callgsubr
hintmask 01011100
-12 -112 51 -41 177 102 rrcurveto
endchar
                </CharString>
                <CharString name="a.sc">
                    -80 callsubr
hstemhm
-2 517 hintmask 10011100
417 -3 -100 callgsubr
                </CharString>
                <CharString name="aacute">
                    -37 callgsubr
242 -20 43 callsubr
275 675 -107 callgsubr
hintmask 10101110
-62 -595 -92 callsubr
                </CharString>
                <CharString name="aacute.sc">
                    -80 callsubr
hstemhm
-2 574 hintmask 00111100
276 706 -107 callgsubr
hintmask 10011100
141 -709 -100 callgsubr
                </CharString>
                <CharString name="abreve">
                    -37 callgsubr
98 82 43 callsubr
556 832 -104 callgsubr
hintmask 10101110
-400 -716 -92 callsubr
                </CharString>
                <CharString name="abreve.sc">
                    -80 callsubr
79 82 hstemhm
-2 616 hintmask 00111110
557 863 -104 callgsubr
hintmask 10011110
-197 -830 -105 callgsubr
                </CharString>
                <CharString name="acircumflex">
                    -37 callgsubr
147 -20 21 -20 44 callsubr
hintmask 01101011
506 628 rmoveto
70 56 -148 165 rlineto
hintmask 01100111
-220 -164 rlineto
hintmask 10101011
45 -52 155 115 rlineto
-195 -668 -84 callgsubr
hintmask 01010111
373 -33 rmoveto
-13 48 -114 -34 -4 11 13 66 rlinecurve
79 398 rlineto
hintmask 10100111
-80 callgsubr
hintmask 01010111
-12 -112 51 -41 177 102 rrcurveto
endchar
                </CharString>
                <CharString name="acircumflex.sc">
                    -80 callsubr
hstemhm
-2 579 hintmask 00111100
507 659 -96 callgsubr
hintmask 10011100
8 -782 -100 callgsubr
                </CharString>
                <CharString name="acute">
                    -33 621 230 hstem
164 296 vstem
164 666 -107 callgsubr
endchar
                </CharString>
                <CharString name="acute.cap">
                    -33 621 230 hstem
164 296 vstem
164 666 -107 callgsubr
endchar
                </CharString>
                <CharString name="adieresis">
                    -37 callgsubr
109.5 -41 callgsubr
43 callsubr
540 649 -103 callsubr
hintmask 10101110
-2 -565 -92 callsubr
                </CharString>
                <CharString name="adieresis.sc">
                    -80 callsubr
90.5 -41 callgsubr
hstemhm
-2 588 hintmask 00111110
541 680 -103 callsubr
hintmask 10011110
201 -679 -105 callgsubr
                </CharString>
                <CharString name="ae">
                    35 callsubr
hintmask 10101110
663 477 -67 callgsubr
                </CharString>
                <CharString name="ae.sc">
                    -9 callgsubr
473 505 -85 callgsubr
                </CharString>
                <CharString name="aeacute">
                    35 callsubr
hintmask 01110110
451 681 -107 callgsubr
hintmask 10101110
212 -204 -67 callgsubr
                </CharString>
                <CharString name="aeacute.sc">
                    -9 callgsubr
462 705 -107 callgsubr
11 -200 -85 callgsubr
                </CharString>
                <CharString name="agrave">
                    -37 callgsubr
44 callsubr
hintmask 01101100
487 667 -99 callgsubr
hintmask 10101100
-250 -544 -84 callgsubr
hintmask 01011100
373 -33 rmoveto
-13 48 -114 -34 -4 11 13 66 rlinecurve
79 398 rlineto
hintmask 10101100
-80 callgsubr
hintmask 01011100
-12 -112 51 -41 177 102 rrcurveto
endchar
                </CharString>
                <CharString name="agrave.sc">
                    -80 callsubr
111 -20 hstemhm
-2 517 hintmask 00111110
488 698 -99 callgsubr
hintmask 10011110
-47 -658 -105 callgsubr
                </CharString>
                <CharString name="amacron">
                    -37 callgsubr
140 86 43 callsubr
581 763 -75 callgsubr
hintmask 10101110
-352 -597 -92 callsubr
                </CharString>
                <CharString name="amacron.sc">
                    -80 callsubr
121 86 hstemhm
-2 584 hintmask 00111110
582 794 -75 callgsubr
hintmask 10011110
-149 -711 -105 callgsubr
                </CharString>
                <CharString name="ampersand">
                    80 -10 90 629 -20 hstem
26 96 vstem
578 -23 rmoveto
70 70 -56 52 -48 50 -40 49 rlinecurve
45 53 46 64 46 74 -89 30 rcurveline
-32 -61 -33 -52 -32 -44 -46 67 -31 64 -16 64 rrcurveto
72 66 39 69 51 vvcurveto
43 -28 23 -38 -59 -77 -80 -123 -8 0 -8 1 -9 vhcurveto
-163 -125 -83 -115 -105 vvcurveto
-90 56 -56 92 82 90 45 92 93 vhcurveto
40 -50 47 -50 52 -50 rrcurveto
-376 103 rmoveto
-47 -33 25 51 69 62 86 103 88 hvcurveto
19 -67 37 -72 50 -72 rrcurveto
-76 -73 -67 -32 -51 hhcurveto
endchar
                </CharString>
                <CharString name="ampersand.sc">
                    18 -9 82 -72 -21 hstemhm
21 94 119 190 hintmask 01110000
510 -20 rmoveto
71 61 -49 44 -43 42 -36 41 rlinecurve
40 45 41 54 41 64 -85 28 rcurveline
-28 -52 -29 -43 -28 -37 -39 54 -27 52 -15 52 rrcurveto
64 56 36 59 44 vvcurveto
38 -27 22 -38 -55 -70 -66 -104 -9 1 -10 1 -9 vhcurveto
-144 -103 -71 -98 -88 vvcurveto
hintmask 10100000
-77 51 -49 85 74 78 37 75 82 vhcurveto
hintmask 01110000
35 -41 40 -41 44 -41 rrcurveto
hintmask 10100000
-326 93 rmoveto
-41 -28 21 43 55 51 69 86 71 hvcurveto
18 -55 32 -58 44 -59 rrcurveto
-61 -62 -56 -26 -44 hhcurveto
endchar
                </CharString>
                <CharString name="aogonek">
                    18 -230 70 146 94 -73 -21 40 -21 42 29 400 81 0 -20 hstemhm
52 95 138 89 -4 93 hintmask 1001110110000000
530 31 callsubr
-40 18 36 vvcurveto
40 53 59 149 67 vhcurveto
3 1 4 2 3 1 -13 48 rcurveline
hintmask 1001101101000000
-114 -34 -4 11 13 66 79 398 rcurveline
hintmask 1100010101000000
-80 callgsubr
hintmask 1010010101000000
-5 -52 10 -32 36 -9 rrcurveto
hintmask 1001010110000000
-91 -59 -35 -53 -48 vvcurveto
hintmask 1001110110000000
-69 8 callsubr
hintmask 1100010101000000
-317 261 -84 callgsubr
endchar
                </CharString>
                <CharString name="aogonek.sc">
                    -65 callgsubr
                </CharString>
                <CharString name="approxequal">
                    22 122 85 19 85 37 85 20 84 hstemhm
55 533 hintmask 01111000
442 348 rmoveto
66 36 53 116 44 hvcurveto
-65 25 rlineto
-63 -27 -23 -46 -28 -48 -47 104 -89 hhcurveto
hintmask 01011000
-69 -44 -53 -104 -43 hvcurveto
65 -26 rlineto
57 27 24 42 30 hhcurveto
hintmask 01111000
50 51 -105 90 hhcurveto
hintmask 11011000
-47 -226 rmoveto
65 35 47 103 42 hvcurveto
-64 25 rlineto
-52 -25 -22 -38 -28 -48 -47 104 -89 hhcurveto
hintmask 01011000
-69 -46 -59 -118 -44 hvcurveto
65 -25 rlineto
68 29 25 49 29 hhcurveto
hintmask 11011000
51 51 -104 90 hhcurveto
endchar
                </CharString>
                <CharString name="aring">
                    -37 callgsubr
82 228 43 callsubr
415 847 -79 callgsubr
hintmask 10101110
-202 -767 -92 callsubr
                </CharString>
                <CharString name="aring.sc">
                    -80 callsubr
63 228 hstemhm
-2 538 hintmask 00111110
415 878 -79 callgsubr
hintmask 10011110
2 -881 -105 callgsubr
                </CharString>
                <CharString name="aringacute">
                    -37 callgsubr
44 callsubr
hintmask 01101100
326 937 -107 callgsubr
89 -90 -79 callgsubr
hintmask 10101100
-202 -767 -84 callgsubr
hintmask 01011100
373 -33 rmoveto
-13 48 -114 -34 -4 11 13 66 rlinecurve
79 398 rlineto
hintmask 10101100
-80 callgsubr
hintmask 01011100
-12 -112 51 -41 177 102 rrcurveto
endchar
                </CharString>
                <CharString name="aringacute.sc">
                    -80 callsubr
hstemhm
-2 625 hintmask 00111100
327 968 -107 callgsubr
88 33 callsubr
2 -881 -100 callgsubr
                </CharString>
                <CharString name="arrow.1_E">
                    100 291 83 181 -20 hstem
63 616 vstem
311 40 rmoveto
368 295 -368 293 -56 -73 251 -183 -103 2 rlineto
-340 -83 340 hlineto
103 2 -251 -180 rlineto
endchar
                </CharString>
                <CharString name="arrow.1_N">
                    100 21 -21 695 -20 hstem
319 87 vstem
406 397 rmoveto
-4 121 174 -251 71 55 -282 373 -288 -373 72 -55 174 252 -4 -123 rlineto
-396 87 vlineto
endchar
                </CharString>
                <CharString name="arrow.1_S">
                    100 14 -21 695 -20 hstem
319 86 vstem
360 -7 rmoveto
287 373 -71 55 -175 -252 4 123 rlineto
396 -86 -397 vlineto
3 -121 -174 251 -71 -55 rlineto
endchar
                </CharString>
                <CharString name="arrow.1_W">
                    100 291 83 178 -20 hstem
46 616 vstem
469 109 rmoveto
-251 184 104 -2 rlineto
340 83 -341 hlineto
-102 -2 251 180 -57 73 -367 -294 367 -295 rlineto
endchar
                </CharString>
                <CharString name="asciicircum">
                    22 551 -20 hstem
61 507 vstem
485 165 rmoveto
83 55 -210 331 -20 -3 -277 -329 66 -55 206 249 rlineto
endchar
                </CharString>
                <CharString name="asciitilde">
                    22 216 96 54 95 hstem
43 568 vstem
427 216 rmoveto
68 56 75 137 60 hvcurveto
-69 27 rlineto
-84 -37 -37 -59 -31 -51 -62 149 -92 hhcurveto
-69 -63 -79 -133 -57 hvcurveto
68 -27 rlineto
84 36 37 60 32 51 67 -150 93 hhcurveto
endchar
                </CharString>
                <CharString name="asterisk">
                    6 551 -20 hstem
120 477 vstem
402 266 rmoveto
57 23 -34 169 172 32 -3 61 -172 20 22 174 -60 17 -74 -159 -155 75 -35 -51 129 -119 -119 -125 38 -48 151 83 rlineto
endchar
                </CharString>
                <CharString name="asterisk.alt">
                    19 597 -20 hstem
104 503 vstem
404 595 rmoveto
53 151 -93 21 -16 -161 rlineto
-38 -9 rmoveto
-105 121 -64 -71 131 -94 rlineto
178 -42 rmoveto
157 32 -29 90 -147 -67 rlineto
-170 -50 rmoveto
-157 -31 29 -90 147 66 rlineto
121 -30 rmoveto
106 -121 64 70 -131 95 rlineto
-133 -42 rmoveto
-53 -152 94 -20 15 161 rlineto
endchar
                </CharString>
                <CharString name="at">
                    218 -172 82 146 90 303 82 149 79 hstemhm
79 89 156 93 191.5 82.5 -8 89 hintmask 11111101
599 -148 rmoveto
9 82 rlineto
-326 -77 -114 110 215 vvcurveto
264 169 234 210 109 39 -53 -103 -12 vhcurveto
5 -27 -25 2 -25 hhcurveto
-172 -110 -156 -165 -102 48 -52 63 hvcurveto
hintmask 11111110
54 69 46 55 56 hvcurveto
-11 -85 88 -3 7 68 10 67 11 56 rlinecurve
43 217 rlineto
hintmask 11111101
180 35 -57 102 -165 hhcurveto
-279 -217 -285 -304 -249 147 -155 373 86 hvcurveto
-126 294 rmoveto
-33 -23 28 61 105 62 109 79 26 40 -7 -11 42 hvcurveto
-40 -197 rlineto
-48 -46 -66 -40 -41 hhcurveto
endchar
                </CharString>
                <CharString name="atilde">
                    -37 callgsubr
103 78 29 78 44 callsubr
hintmask 01101011
482 718 rmoveto
hintmask 01101111
-81 callgsubr
hintmask 01101011
-82 callsubr
hintmask 10101011
-269 -638 -84 callgsubr
hintmask 01011011
373 -33 rmoveto
-13 48 -114 -34 -4 11 13 66 rlinecurve
79 398 rlineto
hintmask 10101011
-80 callgsubr
hintmask 01011011
-12 -112 51 -41 177 102 rrcurveto
endchar
                </CharString>
                <CharString name="atilde.sc">
                    -74 callgsubr
                </CharString>
                <CharString name="b">
                    10 -13 80 404 90 220 -20 hstem
464 93 vstem
211 -13 rmoveto
210 136 193 199 122 -55 60 -69 -59 -73 -47 -60 -62 hvcurveto
63 327 -95 -8 -147 -758 rlineto
-15 46 61 -13 44 hhcurveto
71 80 rmoveto
-27 -42 7 14 -46 hvcurveto
56 284 rlineto
53 54 67 46 46 75 callgsubr
-100 hvcurveto
endchar
                </CharString>
                <CharString name="b.sc">
                    -57 callgsubr
                </CharString>
                <CharString name="backslash">
                    -92 -208 1006 hstem
84 352 vstem
163 798 rmoveto
-79 -23 272 -983 80 24 rlineto
endchar
                </CharString>
                <CharString name="backslash.tab">
                    22 -203 1001 hstem
153 364 vstem
153 776 rmoveto
279 -979 85 21 -280 980 rlineto
endchar
                </CharString>
                <CharString name="bar">
                    -243 -179 -21 982 -20 hstem
45 279 vstem
236 46 callgsubr
                </CharString>
                <CharString name="bar.tab">
                    -156 -179 -21 982 -20 hstem
87 279 vstem
278 46 callgsubr
                </CharString>
                <CharString name="braceleft">
                    -117 -234 1036 hstemhm
63 97 11 90 -71 92 -47 89 hintmask 11001000
318 -234 -51 callsubr
                </CharString>
                <CharString name="braceleft.cap">
                    -116 -176 1036 hstemhm
71 97 11 90 -71 92 -47 89 hintmask 11001000
326 -176 -51 callsubr
                </CharString>
                <CharString name="braceright">
                    -117 -233 1036 hstemhm
165 89 -46 92 -71 90 11 96 hintmask 11001000
-28 -233 -50 callsubr
                </CharString>
                <CharString name="braceright.cap">
                    -118 783 -20 hstemhm
171 89 -46 92 -71 90 11 96 hintmask 11001000
-22 -176 -50 callsubr
                </CharString>
                <CharString name="bracketleft">
                    -126 -198 82 801 81 hstem
15 505 vstem
15 -198 23 callsubr
                </CharString>
                <CharString name="bracketleft.cap">
                    -125 -143 82 801 81 hstem
26 505 vstem
26 -143 23 callsubr
                </CharString>
                <CharString name="bracketright">
                    -126 -196 81 801 81 hstem
-39 505 vstem
466 767 24 callgsubr
                </CharString>
                <CharString name="bracketright.cap">
                    -126 -142 81 801 81 hstem
-29 505 vstem
476 821 24 callgsubr
                </CharString>
                <CharString name="breve">
                    -33 626 82 hstem
113 393 vstem
449 823 -104 callgsubr
endchar
                </CharString>
                <CharString name="breve.cap">
                    -33 626 82 hstem
113 393 vstem
449 823 -104 callgsubr
endchar
                </CharString>
                <CharString name="bullet">
                    -57 182 294 hstem
146 278 vstem
424 347 rmoveto
75 -52 54 -76 -78 -72 -66 -97 -75 55 -56 71 78 74 67 98 vhcurveto
endchar
                </CharString>
                <CharString name="bullet.alt">
                    -50 206 251 hstem
135 300 vstem
385 206 rmoveto
50 251 rlineto
-250 hlineto
-50 -251 rlineto
endchar
                </CharString>
                <CharString name="c">
                    64 callsubr
52 callsubr
501 373 -71 callgsubr
                </CharString>
                <CharString name="c.sc">
                    -20 callgsubr
383 598 -94 callgsubr
                </CharString>
                <CharString name="cacute">
                    64 callsubr
221 -20 52 callsubr
270 678 -107 callgsubr
231 -305 -71 callgsubr
                </CharString>
                <CharString name="cacute.sc">
                    -20 callgsubr
291 718 -107 callgsubr
92 -120 -94 callgsubr
                </CharString>
                <CharString name="caron">
                    -10 callsubr
                </CharString>
                <CharString name="caron.alt">
                    -34 611 281 hstem
309 111 vstem
309 886 -63 callsubr
endchar
                </CharString>
                <CharString name="caron.alt.cap">
                    -34 611 281 hstem
309 111 vstem
309 886 -63 callsubr
endchar
                </CharString>
                <CharString name="caron.cap">
                    -10 callsubr
                </CharString>
                <CharString name="ccaron">
                    64 callsubr
52 callsubr
377 626 -101 callgsubr
125 -253 -71 callgsubr
                </CharString>
                <CharString name="ccaron.sc">
                    -20 callgsubr
398 666 -101 callgsubr
-14 -68 -94 callgsubr
                </CharString>
                <CharString name="ccedilla">
                    -61 -194 268 -133 133 -83 83 -55 -21 478 85 hstemhm
58 94 98 86 76 89 hintmask 00101111
464 53 rmoveto
-12 48 rlineto
-225 -61 -75 42 131 vvcurveto
139 87 124 102 53 19 -31 -74 -1 vhcurveto
89 2 rlineto
134 9 -41 54 -98 hhcurveto
-164 -149 -175 -193 hvcurveto
hintmask 00011111
-93 37 -74 77 -28 vhcurveto
-36 -23 -32 -48 -30 -76 51 -17 rcurveline
hintmask 01001111
66 30 30 41 29 hhcurveto
hintmask 10001111
27 15 -38 -97 -6 hvcurveto
86 hlineto
hintmask 00101111
7 94 -21 60 -33 31 50 7 58 20 67 35 rrcurveto
endchar
                </CharString>
                <CharString name="ccedilla.sc">
                    -64 callsubr
                </CharString>
                <CharString name="cdotaccent">
                    64 callsubr
88.5 145 52 callsubr
425 650 -77 callgsubr
181 -276 -71 callgsubr
                </CharString>
                <CharString name="cdotaccent.sc">
                    -14 -12 84 443 83 1 callsubr
59 98 287 93 vstem
446 690 -77 callgsubr
42 -91 -94 callgsubr
                </CharString>
                <CharString name="cedilla">
                    -14 callsubr
                </CharString>
                <CharString name="cedilla.cap">
                    -14 callsubr
                </CharString>
                <CharString name="cent">
                    22 31 88 319 97 153 -20 hstem
85 91 vstem
176 289 rmoveto
68 34 59 132 19 vhcurveto
-63 -277 rlineto
-75 30 -28 46 55 vvcurveto
300 -258 rmoveto
16 88 -56 3 -46 6 -39 8 rlinecurve
68 306 36 1 42 -1 47 -4 rlinecurve
18 97 -42 3 -38 1 -35 -2 rlinecurve
35 151 rlineto
-93 hlineto
-32 -161 rlineto
-198 -37 -74 -120 -105 vvcurveto
-89 57 -68 109 -39 vhcurveto
-40 -163 rlineto
93 hlineto
30 140 42 -8 48 -5 52 -2 rlinecurve
endchar
                </CharString>
                <CharString name="check.1">
                    23 -20 137.5 -116.5 -21 723 -20 hstemhm
80 571 hintmask 01110000
651 703 rmoveto
-92 47 rlineto
hintmask 10110000
-125 -187 -105 -216 -85 -230 -5 1 rcurveline
-67 292 -92 -33 105 -395 80 -2 rlineto
hintmask 01110000
107 270 132 238 147 215 rrcurveto
endchar
                </CharString>
                <CharString name="check.2">
                    23 13 -21 22 -21 37 -21 695 -20 hstemhm
30 604 hintmask 10011000
326 -8 rmoveto
hintmask 00111000
97 17 -93 288 304 407 -91 49 -245 -363 -57 189 -96 -30 82 -247 rlineto
hintmask 01011000
-197 -276 61 -33 167 222 rlineto
endchar
                </CharString>
                <CharString name="circumflex">
                    -33 619 221 hstem
109 368 vstem
407 619 -96 callgsubr
endchar
                </CharString>
                <CharString name="circumflex.cap">
                    -33 619 221 hstem
109 368 vstem
407 619 -96 callgsubr
endchar
                </CharString>
                <CharString name="colon">
                    -253 0 134 278 135 hstem
61 233 vstem
269 11 callgsubr
                </CharString>
                <CharString name="colon.alt">
                    -253 62 134 279 134 hstem
69 233 vstem
277 475 16 callgsubr
48 -413 16 callgsubr
endchar
                </CharString>
                <CharString name="colon.tab">
                    -156 0 134 278 135 hstem
95 233 vstem
303 11 callgsubr
                </CharString>
                <CharString name="colonmonetary">
                    22 576 89 hstem
74 87 vstem
353 135 rmoveto
-26 6 -24 7 -21 8 107 392 rcurveline
24 6 27 6 30 4 rrcurveto
-309 -251 rmoveto
85 36 77 116 49 vhcurveto
-92 -336 rlineto
-41 30 -19 39 56 vvcurveto
129 -395 rmoveto
79 hlineto
31 117 23 -4 24 -3 26 -3 rlinecurve
38 83 -33 4 -31 5 -28 5 rlinecurve
123 450 28 2 29 1 32 1 rlinecurve
9 89 -24 -1 -23 -1 -22 -2 rlinecurve
30 108 rlineto
-79 hlineto
-31 -117 -28 -5 -26 -4 -24 -6 rlinecurve
36 132 rlineto
-79 hlineto
-42 -157 rlineto
-192 -69 -62 -125 -124 vvcurveto
-88 38 -62 77 -44 vhcurveto
-52 -182 rlineto
80 hlineto
41 151 21 -7 23 -7 25 -6 rlinecurve
endchar
                </CharString>
                <CharString name="comma">
                    -238 -183 318 hstem
98 125 vstem
12 -159 rmoveto
-39 callsubr
endchar
                </CharString>
                <CharString name="comma.tab">
                    -156 -183 318 hstem
135 125 vstem
49 -159 rmoveto
-39 callsubr
endchar
                </CharString>
                <CharString name="commaaccent">
                    -33 -306 228 hstem
226 122 vstem
186 -287 -102 callsubr
                </CharString>
                <CharString name="commaaccent.cap">
                    -33 -306 228 hstem
226 122 vstem
186 -287 -102 callsubr
                </CharString>
                <CharString name="commaaccent.rot">
                    -33 626 228 hstem
216 122 vstem
379 835 36 callsubr
endchar
                </CharString>
                <CharString name="copyright">
                    320 -34 68 115 69 252 67 118 68 hstem
87 74 151 79 152 74 160 74 vstem
509 723 rmoveto
-226 -196 -165 -254 -218 150 -120 198 226 190 159 253 220 -147 125 -195 hvcurveto
-3 -68 rmoveto
153 118 -101 -183 -207 -154 -130 -184 -160 -118 94 183 207 160 137 185 hvcurveto
1 -118 rmoveto
-108 -87 -115 -121 -133 103 -53 163 56 hvcurveto
6 70 rlineto
-133 -48 -60 27 93 vvcurveto
73 41 84 64 42 4 -41 -48 1 vhcurveto
74 hlineto
90 5 -27 66 -88 hhcurveto
endchar
                </CharString>
                <CharString name="d">
                    38 callgsubr
hintmask 10101110
222 78 -15 callgsubr
hintmask 01011110
371 -31 rmoveto
-13 48 -113 -33 -4 10 12 68 rlinecurve
126 641 -95 -8 -42 -216 rlineto
hintmask 10101110
-5 callsubr
60 63 hvcurveto
hintmask 01011110
-10 -108 54 76 callgsubr
                </CharString>
                <CharString name="d.sc">
                    2 callgsubr
569 356 -73 callsubr
                </CharString>
                <CharString name="dagger">
                    -78 582 -20 213 -20 hstem
112 419 vstem
262 148 rmoveto
96 368 150 -16 23 82 -154 16 38 168 -93 9 -36 -167 -152 16 -22 -82 157 -17 -85 -394 13 -10 rlineto
endchar
                </CharString>
                <CharString name="daggerdbl">
                    -77 582 -20 213 -20 hstem
59 472 vstem
251 93 rmoveto
51 205 152 -16 23 81 -154 17 34 136 151 -16 23 82 -154 17 38 167 -93 9 -35 -167 -153 17 -23 -83 158 -17 -29 -136 -159 17 -22 -83 163 -17 -49 -230 13 -11 rlineto
endchar
                </CharString>
                <CharString name="dcaron">
                    38 callgsubr
220 111 hintmask 01101111
690 886 -63 callsubr
hintmask 10101111
-579 -814 -15 callgsubr
hintmask 01011111
371 -31 rmoveto
-13 48 -113 -33 -4 10 12 68 rlinecurve
126 641 -95 -8 -42 -216 rlineto
hintmask 10101111
-5 callsubr
60 63 hvcurveto
hintmask 01011111
-10 -108 54 76 callgsubr
                </CharString>
                <CharString name="dcaron.sc">
                    2 callgsubr
371 660 -101 callgsubr
199 -304 -73 callsubr
                </CharString>
                <CharString name="dcroat">
                    25 -14 92 -89 88 404 80 -4 -20 99 70 75 -20 hstemhm
55 93 228 94 hintmask 10101111
222 78 -15 callgsubr
hintmask 01011111
375 -31 rmoveto
-13 48 -118 -33 -3 10 12 68 rlinecurve
97 496 rlineto
75 hlineto
14 70 rlineto
-75 hlineto
15 75 -95 -8 -13 -67 rlineto
-144 hlineto
-14 -70 rlineto
144 hlineto
-15 -79 rlineto
hintmask 10101111
-5 callsubr
61 63 hvcurveto
hintmask 01011111
-9 -109 57 76 callgsubr
                </CharString>
                <CharString name="dcroat.sc">
                    19 -88 callsubr
                </CharString>
                <CharString name="degree">
                    22 346 75 256 74 hstem
162 81 233 81 vstem
379 751 rmoveto
-113 -104 -88 -133 -113 75 -71 103 113 104 88 134 112 -75 71 -103 hvcurveto
-28 -330 rmoveto
-65 -43 50 67 82 55 57 70 65 43 -50 -67 -83 -55 -56 -70 hvcurveto
endchar
                </CharString>
                <CharString name="dieresis">
                    -18 callgsubr
                </CharString>
                <CharString name="dieresis.cap">
                    -18 callgsubr
                </CharString>
                <CharString name="divide">
                    22 79 112 93 86 93 113 hstem
76 493 vstem
402 463 rmoveto
23 113 rlineto
-109 hlineto
-23 -113 rlineto
276 -93 rmoveto
-476 hlineto
-17 -86 rlineto
476 hlineto
-223 -205 rmoveto
23 112 rlineto
-109 hlineto
-24 -112 rlineto
endchar
                </CharString>
                <CharString name="dollar">
                    23 32 80 hstem
138 93 192 93 vstem
231 525 rmoveto
33 37 22 92 -7 vhcurveto
-47 -156 rlineto
-46 40 -36 37 31 vvcurveto
192 -361 rmoveto
-34 -39 -22 -92 4 vhcurveto
49 161 rlineto
46 -40 36 -37 -32 vvcurveto
-179 -247 rmoveto
29 115 rlineto
179 1 64 66 68 vvcurveto
70 -72 68 -72 61 vhcurveto
61 198 38 -7 43 -10 50 -14 rlinecurve
17 94 -41 9 -38 7 -34 4 rlinecurve
41 123 rlineto
-93 hlineto
-34 -116 rlineto
-179 4 -65 -70 -70 vvcurveto
-69 72 -66 71 -60 vhcurveto
-63 -204 -42 7 -50 10 -57 14 rlinecurve
-23 -93 52 -10 48 -7 42 -4 rlinecurve
-36 -119 rlineto
endchar
                </CharString>
                <CharString name="dotaccent">
                    6 callsubr
                </CharString>
                <CharString name="dotaccent.cap">
                    6 callsubr
                </CharString>
                <CharString name="dotlessi">
                    4 callsubr
77 callsubr
385 54 -86 callgsubr
                </CharString>
                <CharString name="dotlessi.sc">
                    -30 callgsubr
hstem
21 468 vstem
262 75 -102 callgsubr
                </CharString>
                <CharString name="e">
                    -22 callsubr
14 callsubr
484 64 -101 callsubr
                </CharString>
                <CharString name="e.sc">
                    -62 callsubr
hstem
48 473 vstem
428 80 -103 callgsubr
                </CharString>
                <CharString name="eacute">
                    -22 callsubr
222 -20 14 callsubr
274 679 -107 callgsubr
210 -615 -101 callsubr
                </CharString>
                <CharString name="eacute.sc">
                    -62 callsubr
hstem
48 495 vstem
247 705 -107 callgsubr
181 -625 -103 callgsubr
                </CharString>
                <CharString name="ebreve">
                    -22 callsubr
78 82 14 callsubr
555 836 -104 callgsubr
-128 -736 -101 callsubr
                </CharString>
                <CharString name="ebreve.sc">
                    -62 callsubr
80 82 hstem
48 537 vstem
528 862 -104 callgsubr
-157 -746 -103 callgsubr
                </CharString>
                <CharString name="ecaron">
                    -22 callsubr
14 callsubr
381 627 -101 callgsubr
104 -563 -101 callsubr
                </CharString>
                <CharString name="ecaron.sc">
                    -62 callsubr
hstem
48 525 vstem
354 653 -101 callgsubr
75 -573 -103 callgsubr
                </CharString>
                <CharString name="ecircumflex">
                    -22 callsubr
127 -20 21 -20 hstemhm
57 93 269 93 hintmask 11110110
505 632 rmoveto
70 56 -148 165 rlineto
hintmask 11101110
-220 -164 rlineto
hintmask 11110110
45 -52 155 115 rlineto
77 -688 -101 callsubr
                </CharString>
                <CharString name="ecircumflex.sc">
                    -62 callsubr
129 -20 hstem
48 500 vstem
478 658 -96 callgsubr
48 -698 -103 callgsubr
                </CharString>
                <CharString name="edieresis">
                    -22 callsubr
71 callgsubr
144.5 14 callsubr
539 653 -103 callsubr
270 -585 -101 callsubr
                </CharString>
                <CharString name="edieresis.sc">
                    -62 callsubr
21 callgsubr
48 509 vstem
512 679 -103 callsubr
241 -595 -103 callgsubr
                </CharString>
                <CharString name="edotaccent">
                    -22 callsubr
71 callgsubr
145 14 callsubr
429 651 -77 callgsubr
160 -586 -101 callsubr
                </CharString>
                <CharString name="edotaccent.sc">
                    -62 callsubr
1 callsubr
48 473 vstem
402 677 -77 callgsubr
131 -596 -103 callgsubr
                </CharString>
                <CharString name="egrave">
                    -22 callsubr
14 callsubr
486 671 -99 callgsubr
22 -564 -101 callsubr
                </CharString>
                <CharString name="egrave.sc">
                    -62 callsubr
112 -20 hstem
48 473 vstem
459 697 -99 callgsubr
-7 -574 -103 callgsubr
                </CharString>
                <CharString name="eight">
                    22 -13 80 486 -20 83 85 -3 -20 hstemhm
57 96 -1 93 173 90 hintmask 11100110
508 171 rmoveto
70 -62 65 -64 61 vhcurveto
58 34 72 40 90 48 -41 64 rcurveline
-93 -52 -77 -45 -63 -39 rrcurveto
-46 45 -37 41 39 vvcurveto
53 55 44 194 -36 vhcurveto
hintmask 11010110
20 95 rlineto
hintmask 11100110
-229 21 -133 -87 -109 vvcurveto
-57 43 -53 51 -49 vhcurveto
hintmask 11101010
-155 -105 -34 -58 -66 vvcurveto
-87 82 -61 121 vhcurveto
hintmask 11100110
142 106 83 101 hvcurveto
-222 -104 rmoveto
hintmask 11101010
-72 -61 33 58 37 18 38 128 83 hvcurveto
61 -55 58 -51 -51 vvcurveto
hintmask 11100110
-52 -54 -40 -78 vhcurveto
endchar
                </CharString>
                <CharString name="eight.den">
                    -11 65 325 71 hstemhm
-7 5 callgsubr
hintmask 11011000
306 111 -106 callsubr
hintmask 11101000
-69 callgsubr
hintmask 11011000
5 callsubr
hintmask 11101000
-91 callgsubr
                </CharString>
                <CharString name="eight.den_afrc">
                    -45 8 callgsubr
hstemhm
49 5 callgsubr
hintmask 11101100
362 -122 -106 callsubr
hintmask 11110100
-69 callgsubr
hintmask 11101100
5 callsubr
hintmask 11110100
-91 callgsubr
                </CharString>
                <CharString name="eight.den_afrc2">
                    374 8 callgsubr
hstemhm
259 5 callgsubr
hintmask 11101100
572 -122 -106 callsubr
hintmask 11110100
-69 callgsubr
hintmask 11101100
5 callsubr
hintmask 11110100
-91 callgsubr
                </CharString>
                <CharString name="eight.inf">
                    -107 -178 65 325 71 hstemhm
31 5 callgsubr
hintmask 11011000
344 -56 -106 callsubr
hintmask 11101000
-69 callgsubr
hintmask 11011000
5 callsubr
hintmask 11101000
-91 callgsubr
                </CharString>
                <CharString name="eight.num">
                    239 65 294 -20 51 71 -5 -20 hstemhm
104 5 callgsubr
hintmask 11100110
417 361 rmoveto
45 -39 41 -41 36 vhcurveto
37 19 44 22 55 26 -26 48 rcurveline
-61 -29 -50 -26 -42 -22 rrcurveto
-29 25 -22 24 21 vvcurveto
31 35 23 124 -28 vhcurveto
hintmask 11010110
25 78 rlineto
hintmask 11100110
-167 23 -93 -64 -71 vvcurveto
-37 27 -33 33 -30 vhcurveto
hintmask 11101010
-69 callgsubr
hintmask 11100110
5 callsubr
hintmask 11101010
-91 callgsubr
                </CharString>
                <CharString name="eight.num_afrc">
                    -45 72 callsubr
170 5 callgsubr
hintmask 11101100
483 583 -106 callsubr
hintmask 11110100
-69 callgsubr
hintmask 11101100
5 callsubr
hintmask 11110100
-91 callgsubr
                </CharString>
                <CharString name="eight.num_afrc2">
                    374 72 callsubr
379 5 callgsubr
hintmask 11101100
692 583 -106 callsubr
hintmask 11110100
-69 callgsubr
hintmask 11101100
5 callsubr
hintmask 11110100
-91 callgsubr
                </CharString>
                <CharString name="eight.small">
                    -11 65 325 71 hstemhm
24 5 callgsubr
hintmask 11011000
337 111 -106 callsubr
hintmask 11101000
-69 callgsubr
hintmask 11011000
5 callsubr
hintmask 11101000
-91 callgsubr
                </CharString>
                <CharString name="eight.sup">
                    -107 350 65 179 -20 135 -20 51 71 hstemhm
117 5 callgsubr
hintmask 11110110
430 472 -106 callsubr
hintmask 11111010
-69 callgsubr
hintmask 11110110
5 callsubr
hintmask 11111010
-91 callgsubr
                </CharString>
                <CharString name="ellipsis">
                    417 0 134 hstem
64 151 184 151 184 151 cntrmask 01110000
862 -1 callgsubr
-207 -1 callgsubr
-207 -1 callgsubr
endchar
                </CharString>
                <CharString name="emacron">
                    -22 callsubr
120 86 14 callsubr
580 767 -75 callgsubr
-80 -617 -101 callsubr
                </CharString>
                <CharString name="emacron.sc">
                    -62 callsubr
122 86 hstem
48 505 vstem
553 793 -75 callgsubr
-109 -627 -103 callgsubr
                </CharString>
                <CharString name="emdash">
                    221 289 76 hstem
74 689 vstem
763 365 rmoveto
-675 hlineto
-14 -76 rlineto
675 hlineto
endchar
                </CharString>
                <CharString name="emspace">
                    398 endchar
                </CharString>
                <CharString name="endash">
                    -35 289 76 hstem
74 433 vstem
507 365 rmoveto
-419 hlineto
-14 -76 rlineto
419 hlineto
endchar
                </CharString>
                <CharString name="endash.tab">
                    22 289 76 hstem
81 482 vstem
563 365 rmoveto
-468 hlineto
-14 -76 rlineto
468 hlineto
endchar
                </CharString>
                <CharString name="enspace">
                    -102 endchar
                </CharString>
                <CharString name="eogonek">
                    -50 -230 70 148 87 128 62 212 84 hstemhm
57 93 24 89 156 93 vstemhm
419 31 callsubr
-40 18 36 vvcurveto
46 58 53 163 88 vhcurveto
-12 48 rlineto
hintmask 11111010
-242 -72 -80 32 131 vvcurveto
225 17 137 77 133 vvcurveto
80 -52 51 -89 -173 -141 -194 -181 -112 60 -86 119 15 17 2 4 17 vhcurveto
hintmask 11011110
-77 -53 -34 -49 -47 vvcurveto
hintmask 11111110
-69 8 callsubr
hintmask 11111010
-77 658 rmoveto
49 28 -29 -43 -85 -105 -43 -158 -12 hvcurveto
110 19 70 102 97 hhcurveto
endchar
                </CharString>
                <CharString name="eogonek.sc">
                    -49 callgsubr
                </CharString>
                <CharString name="equal">
                    22 170 86 153 85 hstem
70 508 vstem
578 494 rmoveto
-445 hlineto
-17 -85 rlineto
445 hlineto
-29 -153 rmoveto
-446 hlineto
-16 -86 rlineto
444 hlineto
endchar
                </CharString>
                <CharString name="eth">
                    -3 -14 81 362 80 hstem
59 95 294 93 vstem
254 -14 rmoveto
163 124 151 209 100 -29 92 -60 87 hvcurveto
101 30 -17 64 -128 -37 -32 37 -38 37 -44 36 rlinecurve
-66 -62 32 -26 28 -25 24 -25 rlinecurve
-128 -37 19 -65 157 46 24 -31 18 -31 14 -33 rlinecurve
4 -21 -19 2 -20 hhcurveto
-159 -138 -145 -168 -126 75 -84 120 hvcurveto
24 81 rmoveto
-76 -48 59 93 109 67 101 98 28 47 -8 -18 49 hvcurveto
3 -22 2 -23 -24 vvcurveto
-152 -65 -115 -105 vhcurveto
endchar
                </CharString>
                <CharString name="eth.sc">
                    18 -88 callsubr
                </CharString>
                <CharString name="exclam">
                    -227 0 126 hstem
67 277 vstem
218 264 rmoveto
13 58 98 366 15 61 rrcurveto
-126 hlineto
-11 -61 -42 -366 -12 -58 rrcurveto
42 -264 rmoveto
24 126 rlineto
-128 hlineto
-24 -126 rlineto
endchar
                </CharString>
                <CharString name="exclamdown">
                    -227 562 126 hstem
57 277 vstem
206 688 rmoveto
-25 -126 rlineto
129 hlineto
24 126 rlineto
-151 -263 rmoveto
-13 -59 -99 -365 -14 -62 rrcurveto
125 hlineto
11 62 43 365 11 59 rrcurveto
endchar
                </CharString>
                <CharString name="f">
                    -37 -199 82 391 76.5 45 callgsubr
16 rmoveto
77 -34 88 -99 95 vhcurveto
222 -4 15 78 -295 -25 callsubr
124 vhcurveto
-148 -133 rmoveto
-54 -37 46 123 63 8 67 14 66 hvcurveto
108 -89 42 -83 -83 vvcurveto
-64 -31 -46 -50 vhcurveto
endchar
                </CharString>
                <CharString name="f.lig">
                    -66 -199 82 390 77.5 45 callgsubr
12 rmoveto
80 -37 89 -97 94 vhcurveto
194 -4 15 79 -266 -25 callsubr
120 vhcurveto
-148 -129 rmoveto
-54 -37 46 123 63 8 66 13 65 hvcurveto
105 -87 46 -85 -81 vvcurveto
-64 -31 -46 -50 vhcurveto
endchar
                </CharString>
                <CharString name="f.sc">
                    -16 callsubr
                </CharString>
                <CharString name="figurespace">
                    -52 endchar
                </CharString>
                <CharString name="five">
                    22 -4 93 -68 -21 602 86 hstemhm
439 91 hintmask 10110000
530 224 rmoveto
80 -64 81 -213 45 vhcurveto
41 172 rlineto
273 hlineto
27 86 rlineto
-370 hlineto
-75 -324 rlineto
219 -38 71 -56 -64 vvcurveto
-69 -77 -71 -285 30 vhcurveto
hintmask 01110000
-13 -96 rlineto
hintmask 10110000
335 -29 131 134 119 vvcurveto
endchar
                </CharString>
                <CharString name="five.den">
                    -2 4 callgsubr
hstem
238 78 vstem
316 143 -105 callsubr
endchar
                </CharString>
                <CharString name="five.den_afrc">
                    -45 -35 callgsubr
hstem
294 78 vstem
372 -90 -105 callsubr
endchar
                </CharString>
                <CharString name="five.den_afrc2">
                    374 -35 callgsubr
hstem
504 78 vstem
582 -90 -105 callsubr
endchar
                </CharString>
                <CharString name="five.inf">
                    -107 -169 4 callgsubr
hstem
276 78 vstem
354 -24 -105 callsubr
endchar
                </CharString>
                <CharString name="five.num">
                    248 4 callgsubr
hstem
349 78 vstem
427 393 -105 callsubr
endchar
                </CharString>
                <CharString name="five.num_afrc">
                    -45 470 -9 callsubr
415 78 hintmask 10111000
20 callgsubr
hintmask 01111000
144 -21 50 -30 -36 vvcurveto
-38 -53 -39 -184 17 vhcurveto
hintmask 10111000
62 callsubr
                </CharString>
                <CharString name="five.num_afrc2">
                    374 470 -9 callsubr
624 78 hintmask 10111000
702 -34 callgsubr
hintmask 01111000
144 -21 50 -30 -36 vvcurveto
-38 -53 -39 -184 17 vhcurveto
hintmask 10111000
62 callsubr
                </CharString>
                <CharString name="five.small">
                    -2 4 callgsubr
hstem
269 78 vstem
347 143 -105 callsubr
endchar
                </CharString>
                <CharString name="five.sup">
                    -107 359 72 151 -20 166.5 -26 callgsubr
hstem
362 78 vstem
440 504 -105 callsubr
endchar
                </CharString>
                <CharString name="fiveeighths">
                    522 -11 65 194 72 59 71 167.5 -26 callgsubr
17 -20 hstemhm
349 78 258 5 callgsubr
hintmask 1011010110000000
322 -23 rmoveto
hintmask 1010110110000000
-70 callsubr
729 92 -106 callsubr
hintmask 1011011010000000
-69 callgsubr
hintmask 1010110110000000
5 callsubr
hintmask 1111011010000000
-571 282 -105 callsubr
417 -339 rmoveto
-45 -37 19 34 21 13 23 76 45 hvcurveto
39 -32 35 -29 -28 vvcurveto
-30 -34 -23 -47 vhcurveto
endchar
                </CharString>
                <CharString name="fiveeighths.afrc">
                    -45 8 callgsubr
88 67 98 -9 callsubr
49 5 callgsubr
53 78 hintmask 1111101101110000
20 callgsubr
hintmask 1111011101110000
144 -21 50 -30 -36 vvcurveto
-38 -53 -39 -184 17 vhcurveto
hintmask 1111101101110000
26 callsubr
hintmask 1111011101110000
-431 -310 -67 callsubr
hintmask 1111011110110000
-69 callgsubr
hintmask 1111011101110000
5 callsubr
hintmask 1111011110110000
-91 callgsubr
                </CharString>
                <CharString name="fivesixths">
                    522 -11 71 callsubr
-19 4 callgsubr
17 -20 hstemhm
349 78 270 55 callsubr
hintmask 11010111
326 -23 rmoveto
hintmask 11001111
-70 callsubr
574 -30 rmoveto
96 76 64 97 114 -122 42 -111 -81 hvcurveto
24 61 62 64 142 34 -17 69 rcurveline
-219 -59 -81 -130 -122 vvcurveto
-102 63 -51 87 vhcurveto
hintmask 10110111
-420 404 -105 callsubr
433 -340 rmoveto
-44 -42 28 76 hvcurveto
hintmask 11010111
6 0 7 1 6 vhcurveto
90 63 78 -31 -69 vvcurveto
hintmask 10110111
-46 -28 -40 -55 vhcurveto
endchar
                </CharString>
                <CharString name="fivesixths.afrc">
                    -45 -244 71 callsubr
271 67 98 -9 callsubr
61 55 callsubr
32 78 hintmask 1111011111000000
20 callgsubr
hintmask 1110111111000000
144 -21 50 -30 -36 vvcurveto
-38 -53 -39 -184 17 vhcurveto
hintmask 1111011111000000
26 callsubr
hintmask 1110111111000000
-431 -310 -62 callgsubr
136 -616 -104 callsubr
                </CharString>
                <CharString name="four">
                    22 21 -21 139 86.5 464.5 -20 26 -20 hstemhm
55 512 hintmask 11011000
539 139 rmoveto
28 86 rlineto
-83 hlineto
47 240 -92 -9 -45 -231 -244 1 rlineto
hintmask 11101000
89 129 64 121 71 214 rrcurveto
hintmask 11011000
-104 6 -65 -211 -59 -130 -89 -151 rlinecurve
-2 -65 rlineto
323 hlineto
-27 -139 rlineto
89 hlineto
27 139 rlineto
endchar
                </CharString>
                <CharString name="four.den">
                    45 callsubr
-8 353 hintmask 01100000
325 -25 callgsubr
                </CharString>
                <CharString name="four.den_afrc">
                    59 callsubr
hstem
48 353 vstem
381 -148 -83 callsubr
                </CharString>
                <CharString name="four.den_afrc2">
                    374 -148 54 callsubr
258 353 vstem
591 -148 -83 callsubr
                </CharString>
                <CharString name="four.inf">
                    -107 -82 15 callgsubr
21.5 -21 hstemhm
30 353 hintmask 10100000
363 -82 56 callsubr
rlineto
hintmask 01100000
-13 callsubr
hintmask 10100000
-7 callsubr
-16 -85 rlineto
74 hlineto
16 85 rlineto
endchar
                </CharString>
                <CharString name="four.num">
                    335 15 callgsubr
143.5 -20 161 -20 25 -20 hstemhm
103 353 hintmask 11011000
436 335 56 callsubr
-139 1 rlineto
hintmask 11101000
52 78 39 76 44 130 rrcurveto
hintmask 11011000
-85 5 -40 -130 -36 -79 -54 -94 rlinecurve
-5 -56 rlineto
-42 callsubr
endchar
                </CharString>
                <CharString name="four.num_afrc">
                    -45 557 54 callsubr
169 353 -17 callgsubr
endchar
                </CharString>
                <CharString name="four.num_afrc2">
                    374 557 54 callsubr
378 353 vstem
711 557 -83 callsubr
                </CharString>
                <CharString name="four.small">
                    45 callsubr
23 353 hintmask 01100000
356 -25 callgsubr
                </CharString>
                <CharString name="four.sup">
                    -107 446 54 callsubr
116 353 vstem
449 446 -83 callsubr
                </CharString>
                <CharString name="fourfifths">
                    66 callgsubr
337 15 callgsubr
-37 -26 callgsubr
110 -20 161 -20 25 -20 31 -20 hstemhm
930 78 hintmask 0101100110000000
329 -23 rmoveto
-70 callsubr
hintmask 0110110010000000
160 316 rmoveto
20 69 rlineto
-56 hlineto
28 144 -75 -7 -50 callgsubr
hintmask 1010101010000000
-85 5 -40 -130 -36 -79 -54 -94 rlinecurve
-5 -56 rlineto
-42 callsubr
621 -192 rmoveto
hintmask 1001100110000000
54 -45 49 -141 27 vhcurveto
22 95 184 -1 21 71 rlineto
-263 hlineto
-50 -217 rlineto
144 -21 50 -30 -36 vvcurveto
-38 -53 -39 -184 17 vhcurveto
-10 -76 rlineto
hintmask 1010101010000000
-54 callsubr
endchar
                </CharString>
                <CharString name="fourfifths.afrc">
                    -45 -35 callgsubr
100 67 185 54 callsubr
294 78 -17 callgsubr
-391 -252 -29 callsubr
                </CharString>
                <CharString name="fourperemspace">
                    -352 endchar
                </CharString>
                <CharString name="fraction">
                    -315 705 -20 hstem
-149 608 vstem
-96 -23 rmoveto
-70 callsubr
endchar
                </CharString>
                <CharString name="fraction.afrc">
                    -45 305 67 hstem
62 458 vstem
62 305 -62 callgsubr
endchar
                </CharString>
                <CharString name="fraction.afrc2">
                    374 305 67 hstem
63 877 vstem
63 305 rmoveto
864 hlineto
13 67 rlineto
-864 hlineto
endchar
                </CharString>
                <CharString name="fraction.tab">
                    -315 705 -20 hstem
-149 608 vstem
-96 -23 rmoveto
-70 callsubr
endchar
                </CharString>
                <CharString name="g">
                    15 callsubr
hstemhm
61 94 237 72 hintmask 10111100
236 119 -77 callsubr
hintmask 01111100
3 callsubr
hintmask 10111100
12 callsubr
                </CharString>
                <CharString name="g.sc">
                    1 callgsubr
63 callsubr
hintmask 10111000
446 -103 -93 callgsubr
hintmask 01111000
-35 callsubr
endchar
                </CharString>
                <CharString name="gbreve">
                    15 callsubr
81 82 hstemhm
61 94 237 72 hintmask 10111110
567 838 -104 callgsubr
-388 -683 -77 callsubr
hintmask 01111110
3 callsubr
hintmask 10111110
12 callsubr
                </CharString>
                <CharString name="gbreve.sc">
                    1 callgsubr
80 82 63 callsubr
hintmask 10111100
574 875 -104 callgsubr
-185 -942 -93 callgsubr
hintmask 01111100
-35 callsubr
endchar
                </CharString>
                <CharString name="gcommaaccent">
                    15 callsubr
hstemhm
61 94 178 122 -63 72 hintmask 10111100
496 850 36 callsubr
-260 -731 rmoveto
-46 -35 32 74 118 73 135 99 26 40 -10 -25 46 hvcurveto
-28 -66 -24 -85 -7 -79 rrcurveto
-60 -48 -49 -34 -47 hhcurveto
hintmask 10111010
229 -199 rmoveto
32 63 -34 84 1 137 rrcurveto
9 1 10 9 vvcurveto
66 112 53 134 45 vvcurveto
20 -34 19 -28 -10 -12 -10 -19 -13 vhcurveto
18 -34 -34 9 -36 hhcurveto
-192 -130 -180 -185 -113 57 -57 74 67 66 47 61 54 hvcurveto
hintmask 01111010
3 callsubr
hintmask 10111010
12 callsubr
                </CharString>
                <CharString name="gcommaaccent.sc">
                    1 callgsubr
hstemhm
59 98 23 122 151 93 hintmask 10110100
446 -103 -93 callgsubr
hintmask 01110100
-35 callsubr
hintmask 10111100
-216 -257 -102 callsubr
                </CharString>
                <CharString name="gdotaccent">
                    15 callsubr
92.5 145 hstemhm
61 94 237 72 hintmask 10111110
441 653 -77 callgsubr
-100 -533 -77 callsubr
hintmask 01111110
3 callsubr
hintmask 10111110
12 callsubr
                </CharString>
                <CharString name="gdotaccent.sc">
                    1 callgsubr
-20 callsubr
63 callsubr
hintmask 10111100
448 690 -77 callgsubr
103 -792 -93 callgsubr
hintmask 01111100
-35 callsubr
endchar
                </CharString>
                <CharString name="germandbls">
                    31 -9 89 -89 94 -85 80 618 83 hstemhm
477 90 -89 97 hintmask 10010100
238 -9 rmoveto
hintmask 10011000
242 -9 87 87 88 vvcurveto
71 -61 76 -99 77 vhcurveto
hintmask 00110100
111 98 57 83 85 vvcurveto
73 -51 61 -98 -128 -107 -97 -287 -56 vhcurveto
-78 -397 rlineto
94 hlineto
77 403 rlineto
240 47 55 55 69 hhcurveto
52 27 -32 -43 -70 -47 -64 -142 -132 hvcurveto
hintmask 01011000
136 -100 52 -68 -49 vvcurveto
-53 -59 -17 -166 15 vhcurveto
endchar
                </CharString>
                <CharString name="germandbls.sc">
                    425 -10 80 -62 62 448 78 hstemhm
107 98 133 99 172 98 133 99 hintmask 10111110
986 16 callsubr
hintmask 01111110
-20 -91 rlineto
hintmask 10111110
290 -59 118 95 97 128 -232 64 100 vvcurveto
45 37 40 55 54 32 -32 -71 14 vhcurveto
-415 18 rmoveto
105 -17 -47 58 -100 hhcurveto
-121 -92 -87 -91 hvcurveto
-138 231 -62 -87 vvcurveto
-51 -70 -39 -219 58 vhcurveto
hintmask 01111110
-20 -91 rlineto
hintmask 10111110
290 -59 118 95 97 128 -232 64 100 vvcurveto
45 37 40 55 54 32 -32 -71 14 vhcurveto
endchar
                </CharString>
                <CharString name="grave">
                    -33 775 -20 hstem
152 265 vstem
417 658 -99 callgsubr
endchar
                </CharString>
                <CharString name="grave.cap">
                    -33 775 -20 hstem
152 265 vstem
417 658 -99 callgsubr
endchar
                </CharString>
                <CharString name="greater">
                    22 591 -20 hstem
82 468 vstem
112 69 rmoveto
417 204 21 105 -348 213 -48 -84 294 -173 -1 -10 -365 -171 rlineto
endchar
                </CharString>
                <CharString name="greaterequal">
                    22 14 86 hstem
39 509 vstem
205 616 rmoveto
-49 -81 286 -157 -1 -7 -346 -134 22 -78 413 161 18 96 rlineto
-46 -316 rmoveto
-446 58 callgsubr
                </CharString>
                <CharString name="guillemotleft">
                    161 4 -21 hstem
62 681 vstem
247 -17 9 callsubr
49 callgsubr
                </CharString>
                <CharString name="guillemotleft.cap">
                    161 553 -20 25 -20 hstemhm
74 681 hintmask 01100000
259 48 9 callsubr
rlineto
hintmask 10100000
49 callgsubr
                </CharString>
                <CharString name="guillemotright">
                    168 6 -21 23 -21 hstemhm
29 681 hintmask 10100000
421 -15 29 callsubr
hintmask 01100000
19 callgsubr
                </CharString>
                <CharString name="guillemotright.cap">
                    168 49 585 hstem
40 681 vstem
432 49 29 callsubr
19 callgsubr
                </CharString>
                <CharString name="guilsinglleft">
                    -161 4 -21 hstem
62 359 vstem
241 -17 30 callgsubr
                </CharString>
                <CharString name="guilsinglleft.cap">
                    -161 556 -20 hstem
67 359 vstem
246 51 30 callgsubr
                </CharString>
                <CharString name="guilsinglright">
                    -158 5 -21 hstem
25 359 vstem
85 -16 25 callgsubr
                </CharString>
                <CharString name="guilsinglright.cap">
                    -158 51 583 hstem
36 359 vstem
96 51 25 callgsubr
                </CharString>
                <CharString name="h">
                    66 -10 85 -54 -21 470 91 220 -20 hstemhm
402 102 -28 104 hintmask 10111000
31 callgsubr
hintmask 01110100
60 76 191 109 vvcurveto
58 -27 47 -78 -73 -85 -42 -85 -82 vhcurveto
67 347 -95 -8 -150 -773 rlineto
94 hlineto
67 344 rlineto
86 76 68 40 54 hhcurveto
43 17 -22 -38 hvcurveto
hintmask 10111000
50 callgsubr
                </CharString>
                <CharString name="h.sc">
                    -18 callsubr
                </CharString>
                <CharString name="hairspace">
                    -527 endchar
                </CharString>
                <CharString name="hbar">
                    66 -10 85 -54 -21 470 91 75 70 -70 145 hstemhm
402 102 -28 104 hintmask 10110100
31 callgsubr
hintmask 10110010
60 76 191 109 vvcurveto
58 -27 47 -78 -73 -85 -42 -85 -82 vhcurveto
39 202 rlineto
144 hlineto
13 70 rlineto
-144 hlineto
hintmask 10101010
15 75 -95 -8 rlineto
hintmask 01110010
-13 -67 rlineto
-75 hlineto
-14 -70 rlineto
75 hlineto
-123 -636 rlineto
94 hlineto
67 344 rlineto
86 76 68 40 54 hhcurveto
43 17 -22 -38 hvcurveto
hintmask 10110100
50 callgsubr
                </CharString>
                <CharString name="hbar.sc">
                    -53 callgsubr
                </CharString>
                <CharString name="hcoslug">
                    92 -100 100 6 12 -11 11 -11 18 -18 25 -25 41 -36 14 -13 10 -3 14 -11 9 0 16 -9 15 -15 20 -19 34 -19 19 -15 15 7 8 -1 13 -7 12 6 10 -9 43 -42 11 hstemhm
50 82 13 10 -10 22 -5 12 6 9 -2 16 -1 16 -2 9 12 13 -3 14 -14 56 -41 12 -1 9 4 16 -8 14 5 13 -6 7 8 17 -12 14 8 7 -5 15 -13 8 hintmask 001000000000001000001010001000100000100000010000
644 700 rmoveto
-594 hlineto
hintmask 100000000000000000001010000000001000000001000000
-800 594 vlineto
-397 528 rmoveto
-23 15 -14 23 -22 vhcurveto
11 17 7 16 17 vvcurveto
23 -12 15 -17 -16 -11 -12 -17 vhcurveto
65 -86 rmoveto
16 -16 12 -15 13 -15 19 33 5 24 -23 23 -9 -10 -14 -11 -19 -13 rrcurveto
-51 -123 rmoveto
15 12 3 9 11 hvcurveto
-28 35 -28 30 -18 17 rrcurveto
-11 -11 -5 -14 -15 vvcurveto
-31 22 -23 30 vhcurveto
121 45 rmoveto
-29 25 17 -12 20 hhcurveto
21 12 12 17 10 hvcurveto
7 -2 rlineto
-58 -2 -35 -36 -43 hhcurveto
-30 -22 11 34 -33 hvcurveto
-31 -28 -34 -14 -42 hhcurveto
-60 -49 40 53 42 29 31 53 18 hvcurveto
-21 22 -10 18 29 vvcurveto
43 42 42 67 62 33 -39 -35 -13 -3 -11 -6 -10 vhcurveto
27 1 20 -11 2 -27 rrcurveto
24 16 19 14 25 hhcurveto
28 22 -21 -31 -31 -22 -23 -28 -18 -16 10 15 -9 hvcurveto
-15 -9 -16 -13 -15 -20 rrcurveto
hintmask 000000000000000000001000000000000001000000000000
-96 -140 rmoveto
-11 13 -7 vlineto
hintmask 000000000000000000100000000000000001000000000000
-13 -20 hlineto
-3 1 -2 3 2 2 2 5 1 vhcurveto
5 -2 rlineto
hintmask 100000000000000000100000000000000100000000000000
-2 -9 -4 -4 -8 -8 -4 5 0 hflex1
20 -7 7 7 9 vlineto
hintmask 000000000000001000000000010000000000000000000000
-100 -28 rmoveto
hintmask 000000000000000000100000010001000000000000000000
39 callgsubr
hintmask 000000000000001000000000000001000000000000000000
-12 -9 -9 -12 vhcurveto
hintmask 000000000000001000000000010000000000000000000000
-12 -9 8 13 hvcurveto
hintmask 000000000000000000100010000100000000000000100000
29 hmoveto
38 callsubr
39 callsubr
176 -1 rmoveto
0 8 -2 5 -5 -6 -2 -6 0 hflex1
0 -8 2 -5 6 5 2 5 0 hflex1
-160 -12 rmoveto
6 hlineto
hintmask 000000000000000000100000000001000000000000000000
25 -6 7 vlineto
hintmask 000000000000000000001000000000100000000000000000
17 -10 hlineto
hintmask 000000000000000000001000000000000100000000000000
7 3 4 4 7 hhcurveto
9 3 -6 -8 hvcurveto
hintmask 000000000000000000100000000000000100000000000000
-19 6 -7 vlineto
hintmask 100000000000000000100000000000100000000000000000
-22 7 4 18 hlineto
4 -2 3 -4 -4 -3 -4 -6 vhcurveto
-15 4 -7 vlineto
hintmask 000000000000001000000010000000000000000000000000
-22 hlineto
hintmask 000000000000000010000010000000000000000000000000
-94 7 rmoveto
7 hlineto
hintmask 000000000000000000010010000000000000000000000000
41 -7 7 vlineto
hintmask 000000000000000000001000000100000000000000000000
51 hlineto
hintmask 000000000000000000100000000100000000000000000000
-20 -8 vlineto
hintmask 000000000000000000010001000000000000000000000000
11 -2 -2 2 -7 hhcurveto
-12 -18 4 hlineto
5 0 1 7 1 hvcurveto
7 hlineto
hintmask 000000000000000010000000010000000000000000000000
-23 -7 vlineto
7 -1 0 1 -5 hhcurveto
-4 hlineto
hintmask 000000000000000010000001000000000000000000000000
-16 10 -7 vlineto
hintmask 000000000000001000000010000000000000000000000000
-30 hlineto
hintmask 000000000000000000100000000000000001000000000000
177 14 rmoveto
7 hlineto
hintmask 000000000000000000000100000000000000010000000000
-6 4 3 -3 5 hhcurveto
3 2 2 2 hvcurveto
hintmask 000000000000000000000100000000000001000000000000
8 -24 -5 16 vvcurveto
6 5 6 9 5 4 -2 -3 2 vhcurveto
2 5 rlineto
6 hlineto
hintmask 100000000000000001000000000000000000000100000000
-13 -7 vlineto
4 -3 -3 3 -4 hhcurveto
-3 -2 -2 -2 hvcurveto
-8 24 6 -16 vvcurveto
-7 -5 -6 -9 vhcurveto
hintmask 100000000000000000000000000000000000010000000000
-7 -3 3 2 -3 hvcurveto
-1 -4 rlineto
-7 hlineto
hintmask 000000000000000000000100000000000000000100000000
50 51 rmoveto
-6 7 hlineto
hintmask 000000000000000000001000000000000000000000100000
18 hlineto
hintmask 100000000000000000000100000000000000000000100000
-27 vlineto
6 2 5 3 6 hhcurveto
9 6 -8 -12 -9 -4 -12 -12 -7 -4 3 5 -3 hvcurveto
-4 -8 rlineto
-6 hlineto
53 -8 rmoveto
4 3 3 5 1 hvcurveto
-4 10 -12 23 0 vvcurveto
-5 7 hlineto
hintmask 000000000000000000001000000000000000000000000000
25 -7 -6 hlineto
hintmask 100000000000100000001000000000000000000000100000
9 -20 8 20 rlineto
-5 7 17 -7 -5 hlineto
-13 -31 rlineto
-10 -4 -5 -6 -9 hhcurveto
-7 -4 4 5 4 3 3 4 hvcurveto
hintmask 100000000000000000000100000000000000000000100000
7 1 -7 -3 -3 hvcurveto
hintmask 000000000010000000000000000000000000000000000000
59 -32 rmoveto
-7 -5 vlineto
hintmask 000000100000000000000000000000000000000000000000
-3 -6 -3 -4 -3 -4 rrcurveto
2 -3 2 -2 2 2 1 1 1 hflex1
5 -1 rlineto
69 callsubr
-7 -2 -3 -5 -8 hhcurveto
-5 0 -3 1 -4 5 -4 -4 -5 -2 -6 flex1
-12 -6 6 8 hvcurveto
hintmask 000010000000000000000000000000000000000000000000
8 6 5 7 2 vhcurveto
-4 4 -2 3 5 vvcurveto
7 7 7 10 9 5 -6 -6 vhcurveto
-6 -4 -3 -7 -3 vhcurveto
hintmask 000000100000000000000000000000000000000000000000
5 -5 3 -4 4 -4 2 2 3 4 1 3 rrcurveto
-6 7 hlineto
hintmask 100000000001000000000000000000000000100000000000
-152 6 rmoveto
14 5 hlineto
-3 -3 2 4 2 1 1 0 hvcurveto
0 -1 1 -2 -3 -3 -2 -10 vhcurveto
175 -15 rmoveto
69 callgsubr
18 13 12 14 vhcurveto
7 5 -3 -4 4 hvcurveto
1 6 rlineto
8 hlineto
-22 -8 vlineto
hintmask 000000000010000000000000000000000000000000000000
12 -4 -3 4 -8 hhcurveto
-8 -6 -6 -16 hvcurveto
hintmask 010000000000000000000000000000000000000000000000
-15 6 -7 10 8 5 7 9 1 vhcurveto
8 hlineto
69 callsubr
-14 -1 -8 -9 -15 hhcurveto
hintmask 100000000001000000000000000000000000100000000000
-18 -11 11 17 hvcurveto
hintmask 000001000000000000000000000000000000000000000000
-38 6 rmoveto
3 2 2 3 4 vvcurveto
3 -2 3 -4 -3 -2 -2 -3 -3 2 -3 4 -4 vhcurveto
hintmask 001000000000000000000000000000010000000000000000
-184 -15 rmoveto
hintmask 010000000000000000000000000000010000000000000000
62 callgsubr
hintmask 100000000000010000000000000010000010000000000000
49 callsubr
hintmask 001000000000000000000000000000000010000000000000
14 6 -9 -13 -1 hvcurveto
hintmask 100000000010000000000000001000010000000000000000
-84 2 rmoveto
39 callgsubr
-12 -9 -9 -12 -12 -9 8 13 vhcurveto
336 hmoveto
69 callgsubr
39 callgsubr
69 callsubr
-12 -9 -9 -12 vhcurveto
hintmask 100000000010000000000000001000010000000000000000
-12 -9 8 13 hvcurveto
hintmask 001000000000000000000000000000000000000010000000
-185 -2 rmoveto
hintmask 010000000000000000000000000000000000000010000000
62 callgsubr
hintmask 100000000000010000000000000000000000001000010000
49 callsubr
hintmask 001000000000000000000000000000000000000000010000
14 6 -9 -13 -1 hvcurveto
hintmask 000000010000000000000000000000010000000000000000
-119 5 rmoveto
hintmask 000000000100000000000000000000010000000000000000
14 hlineto
hintmask 000000010000000000000000000000010000000000000000
67 callsubr
hintmask 001000000000000000000000000010000000000000000000
-29 -3 rmoveto
hintmask 000000000010000000000000000010000000000000000000
38 callsubr
hintmask 001000000000000000000000000010000000000000000000
39 callsubr
40 callgsubr
336 hmoveto
69 callgsubr
38 callsubr
40 callgsubr
39 callsubr
hintmask 000000010000000000000000000000000000000010000000
-214 3 rmoveto
hintmask 000000000100000000000000000000000000000010000000
14 hlineto
hintmask 000000010000000000000000000000000000000010000000
67 callsubr
hintmask 001000000000000000000000000000000010000000000000
-64 -16 rmoveto
6 hlineto
hintmask 000000000100000000000000000000000010000000000000
25 -7 7 7 1 vlineto
hintmask 001000000000000100000000000000000010001000000000
13 9 6 10 3 4 -1 -1 2 vhcurveto
10 2 rlineto
-52 6 -7 vlineto
hintmask 100000000000000000000000000000000000100000000000
-23 7 5 hlineto
hintmask 000010000000000000000000000000000000100000000000
25 -14 vlineto
hintmask 001000000000000000000000000000000000100000000000
-25 5 -7 vlineto
hintmask 100000000000000000000000000000000010000000000000
-23 hlineto
hintmask 001000000000000000000000000000000000001000000000
92 7 rmoveto
6 hlineto
hintmask 000000000100000000000000000000000000000000010000
25 -6 7 vlineto
hintmask 000000000000010000000000000000000000000000000000
18 -10 hlineto
8 3 4 3 5 hhcurveto
5 3 -3 -5 -4 -3 -3 -4 -3 -3 2 4 hvcurveto
1 vlineto
-2 -3 -4 -5 -2 hvcurveto
40 callgsubr
-16 8 -7 vlineto
hintmask 100000000000000000000000000000000000001000000000
-26 hlineto
40 callgsubr
69 9 rmoveto
hintmask 000100000000000000000000000000000000000000000000
-5 6 -4 5 -5 5 rrcurveto
-2 -2 -2 -3 -4 vvcurveto
-6 4 -4 6 vhcurveto
40 callgsubr
2 3 1 2 3 hvcurveto
hintmask 001000000000000000000010000000000000000000000000
-313 -2 rmoveto
8 hlineto
hintmask 000000000010000000000010000000000000000000000000
41 -8 7 vlineto
hintmask 000000000000001000000000100000000000000000000000
29 -7 -8 hlineto
hintmask 000000000010000000000000100000000000000000000000
-16 22 16 -8 7 vlineto
hintmask 001000000000001000000000001000000000000000000000
29 -7 -8 -41 8 -7 hlineto
hintmask 100000000000000000000000100000000000000000000000
-29 7 8 hlineto
hintmask 000100000000000000000000100000000000000000000000
18 -22 vlineto
hintmask 001000000000000000000000100000000000000000000000
-18 8 -7 vlineto
hintmask 100000000000000000000010000000000000000000000000
-29 hlineto
459 6 rmoveto
0 -4 -3 -3 -4 -4 -3 3 0 hflex1
0 4 3 3 4 4 3 -3 0 hflex1
endchar
                </CharString>
                <CharString name="hungarumlaut">
                    -33 623 252 hstem
146 443 vstem
190 624 -90 callsubr
endchar
                </CharString>
                <CharString name="hungarumlaut.cap">
                    -33 623 252 hstem
146 443 vstem
190 624 -90 callsubr
endchar
                </CharString>
                <CharString name="hyphen">
                    -156 285 84 hstem
68 318 vstem
386 369 rmoveto
-302 hlineto
-16 -84 rlineto
303 hlineto
endchar
                </CharString>
                <CharString name="hyphen.tab">
                    22 285 84 hstem
128 388 vstem
516 369 rmoveto
-373 hlineto
-15 -84 rlineto
373 hlineto
endchar
                </CharString>
                <CharString name="i">
                    4 callsubr
108.5 141.5 77 callsubr
321 643 rmoveto
46 145 -115 -7 -36 -145 rlineto
169 -582 -86 callgsubr
                </CharString>
                <CharString name="i.dot">
                    4 callsubr
108.5 141.5 77 callsubr
321 643 rmoveto
46 145 -115 -7 -36 -145 rlineto
169 -582 -86 callgsubr
                </CharString>
                <CharString name="i.sc">
                    -30 callgsubr
hstem
21 468 vstem
262 75 -102 callgsubr
                </CharString>
                <CharString name="iacute">
                    4 callsubr
243 -20 77 callsubr
154 670 -107 callgsubr
231 -616 -86 callgsubr
                </CharString>
                <CharString name="iacute.sc">
                    -30 callgsubr
hstem
21 495 vstem
220 705 -107 callgsubr
42 -630 -102 callgsubr
                </CharString>
                <CharString name="ibreve">
                    4 callsubr
99 82 77 callsubr
435 827 -104 callgsubr
-107 -737 -86 callgsubr
                </CharString>
                <CharString name="ibreve.sc">
                    -30 callgsubr
80 82 hstem
21 538 vstem
502 862 -104 callgsubr
-297 -751 -102 callgsubr
                </CharString>
                <CharString name="icircumflex">
                    4 callsubr
77 callsubr
385 623 -96 callgsubr
98 -689 -86 callgsubr
                </CharString>
                <CharString name="icircumflex.sc">
                    -30 callgsubr
129 -20 hstem
21 501 vstem
452 658 -96 callgsubr
-92 -703 -102 callgsubr
                </CharString>
                <CharString name="idieresis">
                    4 callsubr
110.5 27 callsubr
101 97 vstem
419 644 -103 callsubr
291 -586 -86 callgsubr
                </CharString>
                <CharString name="idieresis.sc">
                    -30 callgsubr
21 callgsubr
21 510 vstem
486 679 -103 callsubr
101 -600 -102 callgsubr
                </CharString>
                <CharString name="idotaccent.sc">
                    -30 callgsubr
1 callsubr
21 468 vstem
376 677 -77 callgsubr
-9 -601 -102 callgsubr
                </CharString>
                <CharString name="igrave">
                    4 callsubr
248 -20 77 callsubr
366 662 -99 callgsubr
43 -565 -86 callgsubr
                </CharString>
                <CharString name="igrave.sc">
                    -30 callgsubr
112 -20 hstem
21 468 vstem
432 697 -99 callgsubr
-146 -579 -102 callgsubr
                </CharString>
                <CharString name="imacron">
                    4 callsubr
141 86 77 callsubr
460 758 -75 callgsubr
-59 -618 -86 callgsubr
                </CharString>
                <CharString name="imacron.sc">
                    -30 callgsubr
122 86 hstem
21 506 vstem
527 793 -75 callgsubr
-249 -632 -102 callgsubr
                </CharString>
                <CharString name="iogonek">
                    -203 -230 70 149 87 475 -20 118.5 145 hstemhm
78 90 -67 97 hintmask 11110100
323 653 rmoveto
45 145 -115 -7 -35 -145 rlineto
hintmask 11111000
106 -827 rmoveto
-12 44 rlineto
-105 -40 -39 18 36 vvcurveto
44 65 57 152 76 vhcurveto
-12 48 rlineto
hintmask 11110100
-169 -47 -24 11 28 118 86 367 rcurveline
-94 -7 -102 -134 63 -40 -50 -204 -26 -103 24 -66 74 -8 rlinecurve
hintmask 11111000
-70 -48 -35 -51 -45 vvcurveto
-69 86 76 callsubr
                </CharString>
                <CharString name="iogonek.sc">
                    -45 callsubr
                </CharString>
                <CharString name="j">
                    -235 -190 96 -96 99 643 -20 108.5 147.5 hstemhm
174 74.91 hintmask 10111000
341 644 rmoveto
46 147 -115 -6 -37 -148 rlineto
-321 -827 rmoveto
139 2 77 11 44 44 79 79 -69 168 131 438 -94 -7 rcurveline
-113 -128 66 -56 rlineto
hintmask 01111000
-59 -278 28 -124 -33 -33 -20 -21 -38 -2 -130 6 rrcurveto
endchar
                </CharString>
                <CharString name="j.sc">
                    -32 callgsubr
                </CharString>
                <CharString name="k">
                    57 callsubr
468 104 hintmask 10011100
437 -8 rmoveto
hintmask 00111100
10 callsubr
hintmask 01011100
18 callgsubr
endchar
                </CharString>
                <CharString name="k.sc">
                    22 callgsubr
48 557 -65 callsubr
endchar
                </CharString>
                <CharString name="kcommaaccent">
                    57 callsubr
206 122 140 104 hintmask 10011110
437 -8 rmoveto
hintmask 00111110
10 callsubr
hintmask 01011110
18 callgsubr
-82 -514 -102 callsubr
                </CharString>
                <CharString name="kcommaaccent.sc">
                    22 callgsubr
184 122 -65 callsubr
-116 -879 -102 callsubr
                </CharString>
                <CharString name="l">
                    -97 -10 81 612 100 hstem
430 -48 callgsubr
endchar
                </CharString>
                <CharString name="l.sc">
                    -1 callsubr
49 373 vstem
406 hmoveto
-15 callsubr
                </CharString>
                <CharString name="l.ultra">
                    58 callsubr
vstem
-37 callsubr
endchar
                </CharString>
                <CharString name="lacute">
                    74 callgsubr
vstem
343 895 -107 callgsubr
109 -821 -97 callgsubr
endchar
                </CharString>
                <CharString name="lacute.sc">
                    -24 callgsubr
                </CharString>
                <CharString name="lacute.ultra">
                    58 callsubr
vstem
312 895 -107 callgsubr
111 -821 -92 callgsubr
endchar
                </CharString>
                <CharString name="lcaron">
                    74 callgsubr
94 111 vstem
620 886 -63 callsubr
-279 -818 -97 callgsubr
endchar
                </CharString>
                <CharString name="lcaron.sc">
                    -21 callgsubr
                </CharString>
                <CharString name="lcaron.ultra">
                    58 callsubr
94 111 vstem
590 886 -63 callsubr
-278 -818 -92 callgsubr
endchar
                </CharString>
                <CharString name="lcommaaccent">
                    70 callgsubr
143 122 165 -48 callgsubr
-284 -980 -102 callsubr
                </CharString>
                <CharString name="lcommaaccent.sc">
                    -1 callsubr
146 122 vstem
406 hmoveto
-68 callsubr
57 -287 -102 callsubr
                </CharString>
                <CharString name="lcommaaccent.ultra">
                    51 callgsubr
hstemhm
74 97 -59 122 166 96 hintmask 11101000
-37 callsubr
hintmask 11011000
-285 -980 -102 callsubr
                </CharString>
                <CharString name="ldot">
                    -27 -10 81 209 122 281 100 hstem
430 -48 callgsubr
188 50 callsubr
                </CharString>
                <CharString name="ldot.sc">
                    -17 callsubr
                </CharString>
                <CharString name="ldot.ultra">
                    -46 -10 82 208 122 281 100 hstem
74 97 229 96 vstem
-37 callsubr
198 50 callsubr
                </CharString>
                <CharString name="less">
                    22 584 -20 hstem
94 467 vstem
442 61 rmoveto
48 84 -294 174 2 10 363 171 -29 84 -417 -204 -21 -105 rlineto
endchar
                </CharString>
                <CharString name="lessequal">
                    22 14 86 hstem
39 531 vstem
539 616 rmoveto
-408 -199 -20 -96 363 -162 34 81 -289 129 1 7 350 163 rlineto
-69 -439 rmoveto
-445 58 callgsubr
                </CharString>
                <CharString name="lslash">
                    64 callgsubr
85 73 hstem
109 66 255 96 vstem
109 793 rmoveto
-44 27 -33 43 -34 vhcurveto
54 67 rlineto
-37 29 -21 18 17 vvcurveto
55 200 31 269 -78 vhcurveto
31 80 rlineto
-322 86 -244 -61 -133 vvcurveto
343 -719 -97 callgsubr
endchar
                </CharString>
                <CharString name="lslash.sc">
                    -16 callgsubr
                </CharString>
                <CharString name="lslash.ultra">
                    51 callgsubr
85 73 hstemhm
74 97 -92 67 254 96 hintmask 11101100
79 793 rmoveto
-44 28 -33 42 -34 vhcurveto
54 67 rlineto
-36 29 -21 17 18 vvcurveto
54 199 32 269 -78 vhcurveto
31 80 rlineto
-321 86 -245 -61 -133 vvcurveto
hintmask 11110100
344 -719 -92 callgsubr
endchar
                </CharString>
                <CharString name="m">
                    345 -10 85 -54 -21 471 90 -11 -20 hstemhm
442 93 145 101 -27 103 hintmask 10011100
904 20 callsubr
hintmask 10101010
60 76 191 109 vvcurveto
58 -23 47 -76 -69 -77 -42 -84 -77 vhcurveto
88 5 -32 38 -66 hhcurveto
-65 -72 -40 -82 -72 hvcurveto
hintmask 01011010
6 44 8 57 1 10 -93 -7 rcurveline
-22 -161 -25 -122 -51 -260 rrcurveto
94 hlineto
8 43 47 233 15 80 rrcurveto
hintmask 01101010
78 61 59 37 51 hhcurveto
49 10 -33 -82 -16 hvcurveto
-72 -356 rlineto
93 hlineto
75 361 rlineto
74 66 56 35 47 hhcurveto
41 13 -23 -38 hvcurveto
hintmask 10011100
-86 -74 -179 -87 vvcurveto
-76 69 -22 155 87 vhcurveto
endchar
                </CharString>
                <CharString name="m.sc">
                    -44 callsubr
                </CharString>
                <CharString name="macron">
                    24 callsubr
                </CharString>
                <CharString name="macron.cap">
                    24 callsubr
                </CharString>
                <CharString name="minus">
                    22 284 86 hstem
91 462 vstem
553 370 rmoveto
-445 58 callgsubr
                </CharString>
                <CharString name="mu">
                    65 -174 -21 181 91 -86 84 472 -20 25 -20 hstemhm
414 95 hintmask 10101100
115 -186 rmoveto
hintmask 11001100
35 202 rlineto
-21 16 24 -9 29 hhcurveto
63 61 45 84 75 hvcurveto
hintmask 10110100
-19 -125 53 -46 184 104 -13 46 rcurveline
-118 -34 -4 10 14 69 82 408 rcurveline
-93 hlineto
-70 -347 rlineto
hintmask 11001100
-83 -71 -54 -40 -54 hhcurveto
-52 -26 34 89 18 hvcurveto
74 352 -95 -7 -153 -740 rlineto
endchar
                </CharString>
                <CharString name="multiply">
                    22 546 -20 29 -20 hstemhm
73 499 hintmask 01100000
445 99 rmoveto
72 61 -129 162 rlineto
hintmask 10100000
184 153 -57 71 -184 -153 rlineto
hintmask 01100000
-130 162 -72 -61 129 -162 -185 -154 57 -71 185 154 rlineto
endchar
                </CharString>
                <CharString name="n">
                    14 callgsubr
hstemhm
402 102 -28 104 hintmask 10011000
627 46 -76 callgsubr
                </CharString>
                <CharString name="n.sc">
                    63 0 149 -128 -21 460 127 -2 -20 22 -20 hstemhm
49 574 -12 callsubr
endchar
                </CharString>
                <CharString name="nacute">
                    14 callgsubr
hstemhm
402 102 -28 104 hintmask 10010100
294 680 -107 callgsubr
hintmask 10011000
333 -634 -76 callgsubr
                </CharString>
                <CharString name="nacute.sc">
                    34 callgsubr
298 706 -107 callgsubr
107 -706 rmoveto
-87 callsubr
endchar
                </CharString>
                <CharString name="naira">
                    22 0 157 -136 -21 185.5 82 -77 73.5 -72.5 82.5 130.5 82 -76 82 -76.5 74 41 160 -3 -20 23 -20 hstemhm
10 626 hintmask 1001000110010000
230 531 rmoveto
7 hlineto
67 -266 -125 -2 rlineto
235 -106 rmoveto
-63 258 119 2 -49 -260 rlineto
-50 -157 rmoveto
95 hlineto
hintmask 0100101001010000
37 191 75 1 17 82 rlineto
-76 hlineto
26 136 75 1 16 82 -75 -1 38 196 rlineto
-78 hlineto
hintmask 0101000100110000
-37 -197 -152 -2 -49 202 -101 -6 rlineto
hintmask 0110010000110000
-38 -198 -76 -1 -16 -82 76 1 -26 -137 -76 -1 -16 -82 76 1 -36 -186 rlineto
79 hlineto
hintmask 0101000100110000
36 189 158 3 rlineto
endchar
                </CharString>
                <CharString name="ncaron">
                    14 callgsubr
hstemhm
402 102 -28 104 hintmask 10010100
401 628 -101 callgsubr
hintmask 10011000
227 -582 -76 callgsubr
                </CharString>
                <CharString name="ncaron.sc">
                    -61 callsubr
hstemhm
49 575 hintmask 01001100
405 654 -101 callgsubr
1 -654 rmoveto
-87 callsubr
endchar
                </CharString>
                <CharString name="ncommaaccent">
                    14 callgsubr
hstemhm
216 122 64 102 -28 104 hintmask 10011100
31 callgsubr
hintmask 10101010
60 76 191 109 vvcurveto
58 -27 47 -78 -74 -86 -43 -87 -83 vhcurveto
hintmask 01011010
6 44 9 64 1 11 -93 -7 rcurveline
-22 -161 -25 -122 -51 -260 rrcurveto
94 hlineto
8 41 44 222 17 86 rrcurveto
hintmask 10101010
82 76 68 39 53 hhcurveto
42 17 -23 -39 hvcurveto
hintmask 10011100
-85 -74 -179 -87 vvcurveto
-76 70 -22 155 87 vhcurveto
hintmask 10011010
-451 -343 -102 callsubr
                </CharString>
                <CharString name="ncommaaccent.sc">
                    -46 callsubr
                </CharString>
                <CharString name="nine">
                    22 1 -21 288 77 276 82 hstem
109 89 281 91 vstem
132 -20 rmoveto
319 102 119 202 185 vvcurveto
155 -88 79 -121 -136 -116 -100 -151 -180 188 -69 165 138 vhcurveto
-36 -100 -96 -109 -223 -63 rrcurveto
91 398 rmoveto
84 52 70 90 73 66 -47 -132 -11 -1 -12 -1 -12 vhcurveto
-142 -112 -137 51 121 vvcurveto
endchar
                </CharString>
                <CharString name="nine.den">
                    6 -21 186 57 157 64 hstem
24 72 callgsubr
vstem
46 -15 -81 callsubr
                </CharString>
                <CharString name="nine.den_afrc">
                    -45 -20 15 157 64 hstem
80 72 callgsubr
vstem
102 -248 -81 callsubr
                </CharString>
                <CharString name="nine.den_afrc2">
                    374 -20 15 157 64 hstem
290 72 callgsubr
vstem
312 -248 -81 callsubr
                </CharString>
                <CharString name="nine.inf">
                    -107 4 53 callgsubr
62 72 callgsubr
hintmask 10111000
84 -182 -78 callgsubr
                </CharString>
                <CharString name="nine.num">
                    421 57 157 64 hstem
135 72 callgsubr
vstem
157 235 -81 callsubr
                </CharString>
                <CharString name="nine.num_afrc">
                    -45 643 53 callgsubr
201 72 callgsubr
hintmask 10111000
223 457 -78 callgsubr
                </CharString>
                <CharString name="nine.num_afrc2">
                    374 643 53 callgsubr
410 72 callgsubr
hintmask 10111000
432 457 -78 callgsubr
                </CharString>
                <CharString name="nine.small">
                    6 -21 186 57 157 64 hstem
55 72 callgsubr
vstem
77 -15 -81 callsubr
                </CharString>
                <CharString name="nine.sup">
                    -107 532 53 callgsubr
148 72 callgsubr
hintmask 10111000
170 346 -78 callgsubr
                </CharString>
                <CharString name="notequal">
                    22 24 -21 167 86 153 85 hstem
70 508 vstem
514 170 rmoveto
18 86 rlineto
-207 hlineto
89 153 rlineto
147 hlineto
17 85 rlineto
-115 hlineto
78 134 -71 33 -97 -167 rlineto
-240 hlineto
-17 -85 rlineto
208 hlineto
-89 -153 rlineto
-149 hlineto
-16 -86 rlineto
115 hlineto
-78 -135 71 -32 97 167 rlineto
endchar
                </CharString>
                <CharString name="ntilde">
                    14 callgsubr
115 78 -39 -20 88 78 hstemhm
402 102 -28 104 hintmask 1001101010000000
502 723 rmoveto
hintmask 1001011010000000
-81 callgsubr
hintmask 1001101010000000
-82 callsubr
hintmask 1001011100000000
125 -677 -23 callsubr
hintmask 1010011010000000
60 76 191 109 vvcurveto
58 -27 47 -78 -74 -86 -43 -87 -83 vhcurveto
hintmask 0101011010000000
6 44 9 64 1 11 -93 -7 rcurveline
-22 -161 -25 -122 -51 -260 rrcurveto
94 hlineto
8 41 44 222 17 86 rrcurveto
hintmask 1010011010000000
82 76 68 39 53 hhcurveto
42 17 -23 -39 hvcurveto
hintmask 1001011100000000
-85 -74 -179 68 callsubr
                </CharString>
                <CharString name="ntilde.sc">
                    -66 callgsubr
                </CharString>
                <CharString name="numbersign">
                    22 1 -21 47 -21 548 -20 154 -20 46 -20 hstemhm
42 560 hintmask 01101100
243 266 rmoveto
31 141 125 22 -30 -140 rlineto
hintmask 10101100
-186 -300 rmoveto
40 186 126 22 rlineto
hintmask 01101100
-41 -191 74 8 43 197 108 19 18 91 -106 -19 31 141 108 19 18 92 -106 -19 39 179 -76 -9 -40 -184 -125 -22 rlineto
hintmask 10110100
41 189 -75 -9 -42 -194 -106 -19 -18 -91 104 18 -31 -140 -106 -19 -19 -92 105 19 -39 -181 rlineto
endchar
                </CharString>
                <CharString name="numero">
                    569 0 93 -93 175 -165 83 99 82 271 146 -78 81 -6 -20 23 -20 hstemhm
687 94 252 94 hintmask 0011010011000000
1127 500 rmoveto
123 -67 71 -101 -144 -128 -142 -165 -124 67 -71 101 144 128 143 165 vhcurveto
-94 -18 rmoveto
-111 -57 -97 -92 -67 -36 45 85 111 58 98 91 67 36 -45 -86 vhcurveto
hintmask 1001001011000000
-629 -482 rmoveto
108 hlineto
47 callgsubr
-88 hlineto
hintmask 0101000111000000
-98 -513 rlineto
-8 hlineto
-133 516 -125 -6 rlineto
hintmask 1001100011000000
-132 -685 rlineto
88 hlineto
104 545 rlineto
9 hlineto
hintmask 0011010011000000
360 -535 rmoveto
407 hlineto
16 83 rlineto
-407 hlineto
endchar
                </CharString>
                <CharString name="o">
                    -7 callgsubr
59 208 -98 callsubr
                </CharString>
                <CharString name="o.sc">
                    -43 callsubr
-38 callgsubr
378 598 -107 callsubr
                </CharString>
                <CharString name="oacute">
                    7 -14 81 414 80 222 -20 hstem
35 callgsubr
vstem
266 679 -107 callgsubr
-207 -471 -98 callsubr
                </CharString>
                <CharString name="oacute.sc">
                    -43 callsubr
-38 callgsubr
295 718 -107 callgsubr
83 -120 -107 callsubr
                </CharString>
                <CharString name="obreve">
                    7 -14 81 414 80 78 82 hstem
35 callgsubr
vstem
547 836 -104 callgsubr
-545 -592 -98 callsubr
                </CharString>
                <CharString name="obreve.sc">
                    -43 callsubr
80 82 -38 callgsubr
577 875 -104 callgsubr
-256 -241 -107 callsubr
                </CharString>
                <CharString name="ocircumflex">
                    7 -14 81 414 80 127 -20 21 -20 hstemhm
35 callgsubr
hintmask 11101100
497 632 rmoveto
70 56 -148 165 rlineto
hintmask 11011100
-220 -164 rlineto
hintmask 11101100
45 -52 155 115 rlineto
-340 -544 -98 callsubr
                </CharString>
                <CharString name="ocircumflex.sc">
                    -43 callsubr
-38 callgsubr
527 671 -96 callgsubr
-51 -193 -107 callsubr
                </CharString>
                <CharString name="odieresis">
                    7 -14 81 414 80 71 callgsubr
27 callsubr
35 callgsubr
vstem
531 653 -103 callsubr
-147 -441 -98 callsubr
                </CharString>
                <CharString name="odieresis.sc">
                    -43 callsubr
21 callgsubr
59 98 340 97 vstem
561 692 -103 callsubr
142 -90 -107 callsubr
                </CharString>
                <CharString name="oe">
                    331 -13 80 -80 88 128 62 212 84 -81 81 hstemhm
58 97 299 77 269 93 hintmask 01001111
454 317 rmoveto
hintmask 10001111
-129 -71 -121 -107 -75 -46 60 102 130 71 121 107 vhcurveto
hintmask 01001111
76 45 -60 -103 hvcurveto
hintmask 01110111
268 160 rmoveto
50 28 -29 -43 -84 -106 -43 -157 -13 hvcurveto
110 19 70 102 96 hhcurveto
142 -413 rmoveto
-11 48 rlineto
-242 -72 -80 32 131 vvcurveto
225 17 137 77 133 vvcurveto
hintmask 01001111
80 -52 51 -90 -89 -78 -52 -75 -55 vhcurveto
81 -25 -60 46 -87 hhcurveto
-155 -144 -163 -191 -139 76 -81 118 80 75 43 68 53 hvcurveto
hintmask 01110111
40 -115 128 -48 236 129 rrcurveto
endchar
                </CharString>
                <CharString name="oe.sc">
                    -48 callsubr
                </CharString>
                <CharString name="ogonek">
                    -14 callgsubr
                </CharString>
                <CharString name="ogonek.cap">
                    -14 callgsubr
                </CharString>
                <CharString name="ograve">
                    -7 callgsubr
478 671 -99 callgsubr
-395 -420 -98 callsubr
                </CharString>
                <CharString name="ograve.sc">
                    -43 callsubr
112 -20 -38 callgsubr
507 710 -99 callgsubr
-105 -69 -107 callsubr
                </CharString>
                <CharString name="ohungarumlaut">
                    -7 callgsubr
244 637 -90 callsubr
-353 -465 -98 callsubr
                </CharString>
                <CharString name="ohungarumlaut.sc">
                    -43 callsubr
114 -20 -38 callgsubr
274 676 -90 callsubr
-64 -114 -107 callsubr
                </CharString>
                <CharString name="omacron">
                    7 -14 81 414 80 120 86 hstem
35 callgsubr
vstem
572 767 -75 callgsubr
-497 -473 -98 callsubr
                </CharString>
                <CharString name="omacron.sc">
                    -43 callsubr
122 86 -38 callgsubr
602 806 -75 callgsubr
-208 -122 -107 callsubr
                </CharString>
                <CharString name="one">
                    22 0 83 446 185 0 -20 hstemhm
62 459 hintmask 10110000
497 hmoveto
24 83 rlineto
-168 hlineto
123 631 -96 -8 rlineto
hintmask 11010000
-17 -86 -177 -21 -11 -72 171 4 -86 -448 rlineto
-182 hlineto
-16 -83 rlineto
endchar
                </CharString>
                <CharString name="one.den">
                    0 0 callgsubr
-15 330 vstem
297 6 callgsubr
                </CharString>
                <CharString name="one.den_afrc">
                    -45 -233 0 callgsubr
41 330 vstem
353 -233 -49 callsubr
                </CharString>
                <CharString name="one.den_afrc2">
                    374 -233 0 callgsubr
251 330 vstem
563 -233 -49 callsubr
                </CharString>
                <CharString name="one.inf">
                    -107 -167 0 callgsubr
23 330 vstem
335 -167 -49 callsubr
                </CharString>
                <CharString name="one.num">
                    250 69 248 140 0 -20 hstemhm
96 330 hintmask 10110000
-47 callgsubr
hintmask 11010000
-13 -64 -121 -15 -8 -57 116 4 -49 -250 rlineto
-125 hlineto
-13 -69 rlineto
endchar
                </CharString>
                <CharString name="one.num_afrc">
                    -45 472 0 callgsubr
162 330 vstem
474 472 -49 callsubr
                </CharString>
                <CharString name="one.num_afrc2">
                    374 472 0 callgsubr
371 330 vstem
683 472 -49 callsubr
                </CharString>
                <CharString name="one.small">
                    0 0 callgsubr
16 330 vstem
328 6 callgsubr
                </CharString>
                <CharString name="one.sup">
                    -107 361 0 callgsubr
109 330 vstem
421 361 -49 callsubr
                </CharString>
                <CharString name="oneeighth">
                    522 -11 65 196 69 60 71 117 32 callgsubr
685 5 callgsubr
hintmask 1110010110000000
-47 callgsubr
hintmask 1111000110000000
-13 -64 -121 -15 -8 -57 116 4 -49 -250 rlineto
-125 hlineto
-13 -69 rlineto
230 -273 rmoveto
hintmask 1110100110000000
-70 callsubr
725 92 -106 callsubr
hintmask 1110011010000000
-69 callgsubr
hintmask 1110100110000000
5 callsubr
hintmask 1110011010000000
-91 callgsubr
                </CharString>
                <CharString name="oneeighth.afrc">
                    -45 8 callgsubr
88 67 100 69 248 137 hstemhm
49 5 callgsubr
hintmask 1111110110000000
474 472 rmoveto
-96 callsubr
-100 -167 -67 callsubr
hintmask 1111111010000000
-69 callgsubr
hintmask 1111110110000000
5 callsubr
hintmask 1111111010000000
-91 callgsubr
                </CharString>
                <CharString name="onefifth">
                    66 callgsubr
252 69 48.5 -26 callgsubr
129 32 callgsubr
930 78 hintmask 01110011
-47 callgsubr
hintmask 01111001
-13 -64 -121 -15 -8 -57 116 4 -49 -250 rlineto
-125 hlineto
-13 -69 rlineto
230 -273 rmoveto
hintmask 01110101
-70 callsubr
hintmask 10110011
735 124 -105 callsubr
endchar
                </CharString>
                <CharString name="onefifth.afrc">
                    -45 -35 callgsubr
100 59 callgsubr
294 78 vstem
474 472 rmoveto
-96 callsubr
-100 -167 -29 callsubr
                </CharString>
                <CharString name="onehalf">
                    522 0 71 -50 -21 250 69 51 75 122 32 callgsubr
943 85 hintmask 10110011
-47 callgsubr
hintmask 10111001
-13 -64 -121 -15 -8 -57 116 4 -49 -250 rlineto
-125 hlineto
-13 -69 rlineto
234 -273 rmoveto
hintmask 01110101
-70 callsubr
hintmask 10110011
705 -19 -87 callgsubr
                </CharString>
                <CharString name="onehalf.afrc">
                    -45 -233 71 299 75 93 59 callgsubr
307 85 vstem
474 472 rmoveto
-96 callsubr
-21 callsubr
271 -605 -87 callgsubr
                </CharString>
                <CharString name="onequarter">
                    36 callgsubr
95.5 69 248 32 callgsubr
96 941 hintmask 10010011
-47 callgsubr
hintmask 10011001
-13 -64 -121 -15 -8 -57 116 4 -49 -250 rlineto
-125 hlineto
-13 -69 rlineto
241 -273 rmoveto
hintmask 01110101
-70 callsubr
733 66 -64 callgsubr
rlineto
hintmask 10010011
-26 -137 -13 callsubr
hintmask 00110011
-7 callsubr
hintmask 10010011
-16 -85 rlineto
74 hlineto
hintmask 00110011
16 85 rlineto
endchar
                </CharString>
                <CharString name="onequarter.afrc">
                    59 callsubr
383.5 59 callgsubr
48 472 vstem
474 472 rmoveto
-96 callsubr
-21 callsubr
306 -520 -83 callsubr
                </CharString>
                <CharString name="onesixth">
                    522 -11 71 callsubr
-17 69 248 32 callgsubr
697 55 callsubr
hintmask 10100111
-47 callgsubr
hintmask 10110011
-13 -64 -121 -15 -8 -57 116 4 -49 -250 rlineto
-125 hlineto
-13 -69 rlineto
238 -273 rmoveto
hintmask 11001011
-70 callsubr
566 -30 -104 callsubr
                </CharString>
                <CharString name="onesixth.afrc">
                    -45 -244 71 callsubr
271 59 callgsubr
61 42 callgsubr
474 472 rmoveto
-96 callsubr
-21 callsubr
136 -616 -104 callsubr
                </CharString>
                <CharString name="onethird">
                    522 -6 74 -49 -21 252 69 48 71 129 32 callgsubr
924 80 hintmask 10110011
-47 callgsubr
hintmask 10111001
-13 -64 -121 -15 -8 -57 116 4 -49 -250 rlineto
-125 hlineto
-13 -69 rlineto
234 -273 rmoveto
hintmask 01110101
-70 callsubr
hintmask 10110011
727 109 -99 callsubr
hintmask 01110011
-10 -76 rlineto
hintmask 10110011
17 callgsubr
                </CharString>
                <CharString name="onethird.afrc">
                    74 callsubr
69 248 137 hstem
288 80 vstem
474 472 rmoveto
-96 callsubr
-21 callsubr
293 -477 -99 callsubr
-10 -76 rlineto
17 callgsubr
                </CharString>
                <CharString name="ordfeminine">
                    -56 127 70 77 64 -64 75 280 66 hstemhm
110 81 157 80 hintmask 10111100
240 349 rmoveto
-28 -21 24 51 100 59 105 72 19 28 -5 -8 29 hvcurveto
-39 -195 rlineto
-39 -38 -49 -33 -32 hhcurveto
hintmask 11011100
257 -38 rmoveto
-8 35 -63 -17 -4 9 10 50 rlinecurve
57 291 rlineto
12 -45 -40 4 -35 hhcurveto
-155 -104 -147 -150 hvcurveto
hintmask 10111100
-84 39 -40 49 44 57 36 44 49 vhcurveto
hintmask 11011100
-7 -80 39 -30 117 67 rrcurveto
-415 -114 rmoveto
-14 -70 rlineto
380 hlineto
14 70 rlineto
endchar
                </CharString>
                <CharString name="ordmasculine">
                    -43 127 70 77 69 284 69 hstem
132 81 220 81 vstem
514 534 rmoveto
102 -58 60 -89 -125 -110 -122 -139 -102 58 -59 89 125 110 122 138 vhcurveto
-81 -16 rmoveto
-94 -49 -81 -81 -58 -32 40 69 93 49 82 81 58 32 -40 -69 vhcurveto
-342 -321 rmoveto
-14 -70 rlineto
353 hlineto
13 70 rlineto
endchar
                </CharString>
                <CharString name="oslash">
                    -7 callgsubr
155 231 -58 callsubr
                </CharString>
                <CharString name="oslash.sc">
                    -43 callsubr
-47 -20 67 -20 hstemhm
59 98 340 97 hintmask 11001100
157 238 -94 callsubr
                </CharString>
                <CharString name="oslashacute">
                    -7 callgsubr
267 685 -107 callgsubr
-112 -454 -58 callsubr
                </CharString>
                <CharString name="oslashacute.sc">
                    -43 callsubr
-47 -20 67 -20 hstemhm
59 98 340 97 hintmask 11001100
287 719 -107 callgsubr
-130 -481 -94 callsubr
                </CharString>
                <CharString name="otilde">
                    7 -14 81 414 80 83 78 29 78 hstemhm
35 callgsubr
hintmask 11101100
473 722 rmoveto
hintmask 11111100
-81 callgsubr
hintmask 11101100
-82 callsubr
-414 -514 -98 callsubr
                </CharString>
                <CharString name="otilde.sc">
                    -43 callsubr
85 78 29 78 hstemhm
59 98 340 97 hintmask 11101100
503 761 rmoveto
hintmask 11111100
-81 callgsubr
hintmask 11101100
-82 callsubr
-125 -163 -107 callsubr
                </CharString>
                <CharString name="p">
                    9 73 callgsubr
481 90 -11 -20 hstemhm
464 93 hintmask 01100110
281 66 rmoveto
-27 -42 7 13 -44 hvcurveto
hintmask 01101010
25 125 24 128 8 38 rrcurveto
51 54 65 43 46 hhcurveto
42 32 -37 -79 hvcurveto
hintmask 01100110
-138 -82 -151 -101 vhcurveto
-166 -252 rmoveto
hintmask 01010110
5 27 14 69 16 80 rrcurveto
hintmask 01101010
-3 21 21 -1 19 hhcurveto
210 136 193 200 122 -55 60 -69 -61 -75 -49 -61 -63 hvcurveto
hintmask 10100110
6 41 7 50 1 8 -93 -7 rcurveline
-24 -173 -42 -205 -69 -360 rrcurveto
endchar
                </CharString>
                <CharString name="p.sc">
                    -32 callsubr
                </CharString>
                <CharString name="paragraph">
                    153 101 84 506 -20 hstem
90 98 vstem
530 185 rmoveto
-41 2 -38 5 -35 6 77 399 rcurveline
36 1 39 0 42 -3 rrcurveto
-422 -205 rmoveto
90 64 80 154 28 vhcurveto
-72 -367 rlineto
-95 37 -51 60 72 vvcurveto
166 -509 rmoveto
45 231 36 -6 38 -3 41 -2 rlinecurve
-40 -204 91 10 153 784 rlineto
-389 22 -239 -143 -199 vvcurveto
-111 81 -86 142 -43 vhcurveto
-50 -260 rlineto
endchar
                </CharString>
                <CharString name="parenleft">
                    -126 -228 1017 hstem
75 92 vstem
458 789 -11 callgsubr
                </CharString>
                <CharString name="parenleft.cap">
                    -127 783 -20 hstem
84 92 vstem
467 853 -11 callgsubr
                </CharString>
                <CharString name="parenright">
                    -126 783 -20 hstem
307 92 vstem
16 -233 -11 callsubr
                </CharString>
                <CharString name="parenright.cap">
                    -126 -169 1016 hstem
316 92 vstem
25 -169 -11 callsubr
                </CharString>
                <CharString name="percent">
                    290 6 -21 27 -21 706 -20 25 -20 hstemhm
108 700 hintmask 01011000
302 702 rmoveto
-78 -74 -75 -97 -74 50 -44 61 78 75 75 97 75 -51 43 -61 hvcurveto
-144 -711 rmoveto
hintmask 01101000
650 652 -49 54 -651 -652 rlineto
hintmask 10011000
505 -60 rmoveto
78 74 75 96 75 -50 43 -62 -78 -74 -75 -96 -75 50 -43 62 hvcurveto
endchar
                </CharString>
                <CharString name="period">
                    -253 0 134 hstem
64 151 vstem
192 -1 callgsubr
endchar
                </CharString>
                <CharString name="period.tab">
                    -156 0 134 hstem
101 151 vstem
229 -1 callgsubr
endchar
                </CharString>
                <CharString name="periodcentered">
                    -253 238 135 hstem
110 152 vstem
238 48 callsubr
                </CharString>
                <CharString name="periodcentered.tab">
                    -155 238 135 hstem
147 152 vstem
275 48 callsubr
                </CharString>
                <CharString name="peso">
                    22 21 -21 404 82 -75 74 208 -20 hstemhm
50 600 hintmask 10111000
491 485 rmoveto
-251 hlineto
24 126 143 15 76 -61 8 -80 rlinecurve
-289 -192 rmoveto
23 118 rlineto
256 hlineto
-30 -78 -93 -50 -149 9 rrcurveto
hintmask 11011000
425 112 rmoveto
16 82 rlineto
-65 hlineto
-3 134 -118 104 -281 -39 -39 -199 rcurveline
-78 hlineto
-16 -82 rlineto
78 hlineto
-78 -404 rlineto
95 hlineto
38 197 207 21 139 74 42 112 rlinecurve
endchar
                </CharString>
                <CharString name="plus">
                    22 284 86 hstem
76 493 vstem
552 284 rmoveto
17 86 rlineto
-193 hlineto
39 201 rlineto
-91 hlineto
-39 -201 rlineto
-192 hlineto
-17 -86 rlineto
192 hlineto
-39 -201 rlineto
91 hlineto
39 201 rlineto
endchar
                </CharString>
                <CharString name="plusminus">
                    22 64 84 180 84 hstem
42 528 vstem
501 64 rmoveto
17 84 rlineto
-185 hlineto
35 180 rlineto
185 hlineto
17 84 rlineto
-186 hlineto
38 194 rlineto
-91 hlineto
-38 -194 rlineto
-185 hlineto
-17 -84 rlineto
186 hlineto
-35 -180 rlineto
-184 hlineto
-16 -84 rlineto
endchar
                </CharString>
                <CharString name="published">
                    317 -34 68 122 168 331 68 hstem
87 74 405 80 131 -38 callsubr
-112 -499 rmoveto
18 98 rlineto
131 11 103 58 95 vvcurveto
82 -84 49 -174 -22 vhcurveto
-72 -371 rlineto
250 252 rmoveto
-52 -49 -35 -93 3 vhcurveto
25 140 rlineto
79 11 38 -28 -39 vvcurveto
endchar
                </CharString>
                <CharString name="q">
                    7 -199 89 96 91 404 80 hstem
55 93 186 100 vstem
562 -139 rmoveto
-14 48 -118 -31 -4 5 12 60 rlinecurve
115 589 rlineto
16 -46 -61 13 -45 hhcurveto
-210 -136 -193 -200 -122 55 -60 70 59 72 46 58 62 hvcurveto
-34 -176 -23 -124 61 -30 185 101 rlinecurve
-341 216 rmoveto
-41 -32 36 79 138 82 151 100 27 43 -7 -13 44 hvcurveto
-56 -293 rlineto
-50 -54 -66 -41 -47 hhcurveto
endchar
                </CharString>
                <CharString name="q.sc">
                    -41 callsubr
                </CharString>
                <CharString name="question">
                    -39 0 126 hstem
426 110 vstem
157 654 rmoveto
180 -26 89 -30 -78 vvcurveto
-62 -60 -54 -169 -97 vhcurveto
34 -54 rlineto
219 119 86 91 94 vvcurveto
107 -120 60 -239 28 vhcurveto
67 -752 rmoveto
25 126 rlineto
-129 hlineto
-24 -126 rlineto
endchar
                </CharString>
                <CharString name="questiondown">
                    -39 562 126 hstem
60 110 vstem
352 688 rmoveto
-24 -126 rlineto
128 hlineto
24 126 rlineto
-41 -654 rmoveto
-180 26 -89 30 78 vvcurveto
62 60 54 169 97 vhcurveto
-34 55 rlineto
-218 -120 -87 -91 -93 vvcurveto
-107 120 -61 239 -28 vhcurveto
endchar
                </CharString>
                <CharString name="quotedbl">
                    34 430 317 hstem
176 408 vstem
476 48 callgsubr
-162 hmoveto
104 283 3 34 rlineto
-120 hlineto
-56 -317 rlineto
endchar
                </CharString>
                <CharString name="quotedblbase">
                    -2 -183 318 hstem
112 125 111 125 vstem
26 -159 rmoveto
-39 callsubr
236 hmoveto
-39 callsubr
endchar
                </CharString>
                <CharString name="quotedblleft">
                    -31 439 318 hstem
132 125 111 125 vstem
579 733 rmoveto
-3 callsubr
-236 hmoveto
-3 callsubr
endchar
                </CharString>
                <CharString name="quotedblright">
                    -46 425 318 hstem
199 125 111 125 vstem
113 448 rmoveto
-2 callgsubr
236 hmoveto
-2 callgsubr
endchar
                </CharString>
                <CharString name="quoteleft">
                    -267 439 318 hstem
132 125 vstem
343 733 rmoveto
-3 callsubr
endchar
                </CharString>
                <CharString name="quoteright">
                    -282 425 318 hstem
199 125 vstem
113 448 rmoveto
-2 callgsubr
endchar
                </CharString>
                <CharString name="quotesinglbase">
                    -238 -183 318 hstem
112 125 vstem
26 -159 rmoveto
-39 callsubr
endchar
                </CharString>
                <CharString name="quotesingle">
                    -218 430 317 hstem
175 177 vstem
244 48 callgsubr
endchar
                </CharString>
                <CharString name="r">
                    7 callsubr
9 99 hintmask 11101000
549 33 -73 callgsubr
                </CharString>
                <CharString name="r.sc">
                    -29 callgsubr
436 98 hintmask 10011000
405 -8 -85 callsubr
                </CharString>
                <CharString name="racute">
                    7 callsubr
9 99 hintmask 11101000
285 684 -107 callgsubr
264 -651 -73 callgsubr
                </CharString>
                <CharString name="racute.sc">
                    -29 callgsubr
436 98 hintmask 00111000
261 711 -107 callgsubr
hintmask 10011000
144 -719 -85 callsubr
                </CharString>
                <CharString name="rcaron">
                    7 callsubr
9 99 hintmask 11101000
392 632 -101 callgsubr
158 -599 -73 callgsubr
                </CharString>
                <CharString name="rcaron.sc">
                    -29 callgsubr
436 98 hintmask 00111000
368 659 -101 callgsubr
hintmask 10011000
38 -667 -85 callsubr
                </CharString>
                <CharString name="rcommaaccent">
                    7 callsubr
-151 122 38 99 hintmask 11100100
549 33 rmoveto
-9 49 -163 -49 -29 24 186 468 rlinecurve
-38 25 rlineto
hintmask 11110100
-57 -27 -79 -23 -68 -11 rrcurveto
4 16 2 15 14 vvcurveto
35 -19 18 -28 -60 -61 -65 -52 -31 24 -19 36 -7 vhcurveto
-31 -66 -49 -66 -69 -85 39 -37 rcurveline
75 81 66 90 39 78 46 3 52 10 51 15 rrcurveto
hintmask 11100100
-177 -423 59 -93 258 113 rrcurveto
hintmask 11101100
-442 -320 -102 callsubr
                </CharString>
                <CharString name="rcommaaccent.sc">
                    -53 callsubr
                </CharString>
                <CharString name="registered">
                    103 210 54 181.5 166.5 84 54 hstem
108 59 421 59 vstem
647 506 rmoveto
158 -103 86 -138 -156 -142 -119 -179 -155 102 -87 139 157 141 119 177 vhcurveto
-59 -7 rmoveto
-141 -110 -94 -126 -106 -79 65 128 144 111 95 128 104 78 -65 -132 vhcurveto
-168 -143 rmoveto
67 8 -60 98 rlineto
50 22 20 27 31 vvcurveto
48 -54 35 -133 -17 vhcurveto
-48 -248 rlineto
65 hlineto
16 83 25 5 rlineto
endchar
                </CharString>
                <CharString name="registered.alt">
                    317 -34 68 430 69 122 68 hstem
87 74 388 79 149 -38 callsubr
30 -504 rmoveto
77 10 -86 143 rlineto
66 37 35 41 51 vvcurveto
69 -75 51 -173 -27 vhcurveto
-72 -370 rlineto
78 hlineto
55 308 rlineto
74 9 34 -19 -34 vvcurveto
-40 -30 -26 -75 -35 vhcurveto
-1 -1 rlineto
endchar
                </CharString>
                <CharString name="ring">
                    -33 610 228 hstem
205 264 vstem
348 838 -79 callgsubr
endchar
                </CharString>
                <CharString name="ring.cap">
                    -33 610 228 hstem
205 264 vstem
348 838 -79 callgsubr
endchar
                </CharString>
                <CharString name="ruble">
                    22 21 -21 129 78 82 82 240 82 hstem
520 97 vstem
520 503 rmoveto
-84 -78 -46 -177 -2 vhcurveto
46 240 rlineto
143 12 66 -42 -78 vvcurveto
-74 -374 rmoveto
23 78 rlineto
-236 hlineto
17 88 rlineto
254 23 113 86 120 vvcurveto
118 -112 77 -278 -34 vhcurveto
-61 -314 rlineto
-86 hlineto
-15 -82 rlineto
30 28 0 1 28 hvcurveto
-15 -79 rlineto
-88 hlineto
-15 -82 rlineto
87 hlineto
-25 -129 rlineto
98 hlineto
25 129 rlineto
endchar
                </CharString>
                <CharString name="rupee">
                    360 -9 85 -85 90 -60 -21 587 -20 44 84 hstemhm
458 99 102 182 -22 92 hintmask 10001101
23 callgsubr
hintmask 00101101
18 callsubr
hintmask 10001101
663 -155 rmoveto
90 -100 88 -39 76 vhcurveto
hintmask 10011110
112 99 -20 69 -65 hhcurveto
-55 -72 -56 -80 -22 5 -21 7 -20 hvcurveto
-25 -28 -34 -31 -49 -39 25 -42 rcurveline
43 30 37 29 31 27 rrcurveto
hintmask 01001101
47 -76 73 -64 -57 vvcurveto
-50 -46 -22 -187 16 vhcurveto
hintmask 10001101
-5 -90 rlineto
260 -10 70 82 89 vvcurveto
endchar
                </CharString>
                <CharString name="rupeeindia">
                    22 2 -21 417 78 126 86 hstem
67 553 vstem
497 34 rmoveto
-132 118 -69 56 -82 28 134 21 91 63 27 78 rrcurveto
89 hlineto
15 78 rlineto
-97 hlineto
-9 50 -34 48 -65 28 rrcurveto
233 hlineto
22 86 rlineto
-454 hlineto
-21 -85 153 -15 62 -51 14 -61 rlinecurve
-251 hlineto
-14 -78 rlineto
258 hlineto
-25 -59 -77 -48 -165 -8 -33 -79 rcurveline
138 -41 49 -41 156 -141 rrcurveto
endchar
                </CharString>
                <CharString name="s">
                    12 callgsubr
462 152 -69 callsubr
                </CharString>
                <CharString name="s.sc">
                    -36 callsubr
484 433 -88 callgsubr
                </CharString>
                <CharString name="sacute">
                    12 callgsubr
238 693 -107 callgsubr
224 -541 -69 callsubr
                </CharString>
                <CharString name="sacute.sc">
                    -36 callsubr
232 715 -107 callgsubr
252 -282 -88 callgsubr
                </CharString>
                <CharString name="scaron">
                    12 callgsubr
345 641 -101 callgsubr
118 -489 -69 callsubr
                </CharString>
                <CharString name="scaron.sc">
                    -36 callsubr
339 663 -101 callgsubr
146 -230 -88 callgsubr
                </CharString>
                <CharString name="scedilla">
                    -80 -168 -21 179 86 -86 91 -77 72 511 -20 hstemhm
206 182 -114 86 8 94 hintmask 10011011
360 -189 rmoveto
7 103 -25 63 -40 27 rrcurveto
hintmask 10011001
119 26 41 59 63 vvcurveto
93 -106 90 -36 78 vhcurveto
hintmask 11001100
110 97 -19 64 -62 hhcurveto
-54 -76 -56 -80 -18 3 -18 6 -17 hvcurveto
-36 -40 -54 -46 -78 -60 28 -40 rcurveline
69 45 56 43 44 38 rrcurveto
hintmask 10101001
48 -77 76 -66 -58 vvcurveto
-50 -58 -23 -202 17 vhcurveto
hintmask 11001011
-5 -90 rlineto
-1 27 25 0 24 hhcurveto
-29 -26 -27 -44 -25 -64 51 -17 rcurveline
-40 callgsubr
endchar
                </CharString>
                <CharString name="scedilla.sc">
                    -68 callgsubr
                </CharString>
                <CharString name="schwa">
                    -50 -14 85 212 61 128 87 hstem
48 92 270 93 vstem
189 -14 rmoveto
173 141 194 182 171 -137 108 -290 -158 hvcurveto
12 -48 rlineto
241 72 81 -32 -130 vvcurveto
-1 vlineto
-225 -17 -137 -76 -133 vvcurveto
-81 52 -51 89 vhcurveto
29 85 rmoveto
-49 -29 28 44 84 106 43 158 13 hvcurveto
-110 -19 -70 -102 -97 hhcurveto
endchar
                </CharString>
                <CharString name="scommaaccent">
                    -80 -9 85 -85 90 506 -20 hstemhm
135 122 -51 182 -20 94 hintmask 10110100
462 152 rmoveto
93 -106 90 -36 78 vhcurveto
hintmask 10101000
110 97 -19 64 -62 hhcurveto
-54 -76 -56 -80 -18 3 -18 6 -17 hvcurveto
-36 -40 -54 -46 -78 -60 28 -40 rcurveline
69 45 56 43 44 38 rrcurveto
hintmask 01110100
48 -77 76 -66 -58 vvcurveto
-50 -58 -23 -202 17 vhcurveto
hintmask 10110100
-5 -90 rlineto
274 -11 85 82 90 vvcurveto
-367 -448 -102 callsubr
                </CharString>
                <CharString name="scommaaccent.sc">
                    -57 callsubr
                </CharString>
                <CharString name="section">
                    23 -119 84 653 83 hstemhm
78 92 9 98 99 99 -17 93 hintmask 11110100
170 281 rmoveto
46 70 33 69 11 vhcurveto
73 -39 76 -31 -43 vvcurveto
-33 -43 -27 -110 -22 vhcurveto
-70 32 -65 30 43 vvcurveto
hintmask 11011000
305 -259 rmoveto
51 -42 36 -53 29 vhcurveto
hintmask 11010100
116 33 55 40 60 127 -274 35 107 vvcurveto
42 42 36 62 61 33 -31 -78 16 vhcurveto
86 18 rlineto
114 -18 -45 60 -106 hhcurveto
-133 -96 -90 -89 -47 29 -36 39 -29 hvcurveto
hintmask 11111000
-97 -22 -72 -50 -73 -138 298 -29 -85 vvcurveto
-46 -74 -29 -251 62 vhcurveto
-23 -98 rlineto
hintmask 11011000
319 -63 128 91 92 vvcurveto
endchar
                </CharString>
                <CharString name="semicolon">
                    -253 412 135 hstem
93 125 vstem
268 -6 callsubr
                </CharString>
                <CharString name="semicolon.tab">
                    -156 412 135 hstem
127 125 vstem
302 -6 callsubr
                </CharString>
                <CharString name="servicemark">
                    368 287 67 238 96 -96 98 -57 63 hstemhm
146 77 86 78 hintmask 11001100
582 592 rmoveto
5 hlineto
46 -264 rlineto
63 hlineto
148 264 rlineto
5 hlineto
-61 -298 rlineto
76 hlineto
77 394 rlineto
-115 hlineto
-141 -251 rlineto
hintmask 10101100
-43 253 -111 -4 -76 -392 rlineto
73 hlineto
-109 287 rmoveto
hintmask 10011100
74 -10 -37 41 -72 hhcurveto
-86 -68 -62 -60 hvcurveto
-93 163 -48 -51 vvcurveto
-32 -48 -10 -151 38 vhcurveto
-17 -76 rlineto
212 -46 82 70 65 89 -164 50 56 vvcurveto
29 27 18 35 35 23 -22 -45 9 vhcurveto
endchar
                </CharString>
                <CharString name="seven">
                    22 13 -21 34 -21 596 87 hstemhm
113 513 hintmask 10110000
207 -8 rmoveto
111 206 133 215 158 197 17 78 rcurveline
-451 hlineto
-18 -87 rlineto
345 hlineto
1 -5 rlineto
hintmask 01110000
-155 -192 -127 -200 -108 -199 rrcurveto
endchar
                </CharString>
                <CharString name="seven.den">
                    15 -21 31 -21 364 72 hstemhm
24 353 hintmask 10110000
109 -4 callgsubr
                </CharString>
                <CharString name="seven.den_afrc">
                    -45 135 72 hstem
80 353 vstem
165 -239 -75 callsubr
                </CharString>
                <CharString name="seven.den_afrc2">
                    374 135 72 hstem
290 353 vstem
375 -239 -75 callsubr
                </CharString>
                <CharString name="seven.inf">
                    -107 201 72 hstem
62 353 vstem
147 -173 -75 callsubr
                </CharString>
                <CharString name="seven.num">
                    618 72 hstem
135 353 vstem
220 244 -75 callsubr
                </CharString>
                <CharString name="seven.num_afrc">
                    -45 840 72 hstem
201 353 vstem
0 callsubr
endchar
                </CharString>
                <CharString name="seven.num_afrc2">
                    374 840 72 hstem
410 353 vstem
495 466 -75 callsubr
                </CharString>
                <CharString name="seven.small">
                    15 -21 31 -21 364 72 hstemhm
55 353 hintmask 10110000
140 -4 callgsubr
                </CharString>
                <CharString name="seven.sup">
                    -107 729 72 hstem
148 353 vstem
233 355 -75 callsubr
                </CharString>
                <CharString name="seveneighths">
                    522 -11 65 325 71 168 72 15 -20 hstemhm
685 5 callgsubr
hintmask 11100110
310 -23 rmoveto
hintmask 11010110
-70 callsubr
-37 225 rmoveto
hintmask 11100110
-84 callsubr
863 -143 -106 callsubr
hintmask 11101010
-69 callgsubr
hintmask 11100110
5 callsubr
hintmask 11101010
-91 callgsubr
                </CharString>
                <CharString name="seveneighths.afrc">
                    -45 8 callgsubr
88 67 468 72 hstemhm
49 5 callgsubr
hintmask 11111011
0 callsubr
-139 -171 -67 callsubr
hintmask 11111101
-69 callgsubr
hintmask 11111011
5 callsubr
hintmask 11111101
-91 callgsubr
                </CharString>
                <CharString name="six">
                    22 -14 83 276 76 288 -20 hstem
79 92 280 89 vstem
288 -14 rmoveto
136 116 100 151 180 -188 68 -164 -136 hvcurveto
36 100 95 109 223 62 -25 89 rcurveline
-319 -102 -119 -202 -185 vvcurveto
-155 88 -79 121 vhcurveto
21 83 rmoveto
-73 -65 46 133 11 1 12 1 12 hvcurveto
142 112 136 -51 -122 vvcurveto
-84 -52 -69 -90 vhcurveto
endchar
                </CharString>
                <CharString name="six.den">
                    -11 71 callsubr
hstem
5 42 callgsubr
155 -11 -104 callsubr
                </CharString>
                <CharString name="six.den_afrc">
                    -45 -244 71 callsubr
hstem
61 42 callgsubr
211 -244 -104 callsubr
                </CharString>
                <CharString name="six.den_afrc2">
                    374 -244 71 callsubr
hstem
271 42 callgsubr
421 -244 -104 callsubr
                </CharString>
                <CharString name="six.inf">
                    -107 -178 64 144 -21 34 57 hstem
43 42 callgsubr
193 -178 -104 callsubr
                </CharString>
                <CharString name="six.num">
                    239 71 callsubr
186 -20 hstem
116 42 callgsubr
266 239 -104 callsubr
                </CharString>
                <CharString name="six.num_afrc">
                    -45 461 64 157 15 hstem
182 42 callgsubr
332 461 -104 callsubr
                </CharString>
                <CharString name="six.num_afrc2">
                    374 461 64 157 15 hstem
391 42 callgsubr
541 461 -104 callsubr
                </CharString>
                <CharString name="six.small">
                    -11 71 callsubr
hstem
36 42 callgsubr
186 -11 -104 callsubr
                </CharString>
                <CharString name="six.sup">
                    -107 350 64 157 15 hstem
129 42 callgsubr
279 350 -104 callsubr
                </CharString>
                <CharString name="slash">
                    -92 -179 -21 hstem
-100 720 vstem
538 793 rmoveto
-638 -974 87 -19 633 965 rlineto
endchar
                </CharString>
                <CharString name="slash.tab">
                    22 -177 -21 hstem
-86 757 vstem
671 765 rmoveto
-81 28 -676 -972 89 -19 rlineto
endchar
                </CharString>
                <CharString name="space">
                    -292 endchar
                </CharString>
                <CharString name="sterling">
                    22 -7 91 -78 -21 50 49 192 82 255 91 hstemhm
168 92 -82 91 233 97 hintmask 10011011
560 139 rmoveto
-44 25 rlineto
hintmask 10011101
-64 -105 -61 18 -166 33 20 51 9 57 6 58 rrcurveto
200 hlineto
14 82 rlineto
hintmask 10011011
-205 hlineto
7 61 9 57 22 45 rrcurveto
53 27 43 39 52 hhcurveto
45 28 -29 -97 hvcurveto
97 4 rlineto
137 4 -42 76 -105 hhcurveto
-104 -86 -81 -83 -42 hvcurveto
-29 -58 -10 -60 -7 -64 rrcurveto
hintmask 01111101
-80 hlineto
-17 -82 rlineto
87 hlineto
-6 -47 -8 -51 -16 -53 rrcurveto
11 -159 -36 -151 122 hhcurveto
42 41 18 32 32 hvcurveto
hintmask 10011011
236 -61 69 -16 75 181 rrcurveto
endchar
                </CharString>
                <CharString name="t">
                    46 callsubr
hstem
107 95 vstem
437 59 -56 callgsubr
endchar
                </CharString>
                <CharString name="t.sc">
                    -59 21 -21 505 80 hstem
90 467 vstem
365 505 26 callgsubr
                </CharString>
                <CharString name="tcaron">
                    46 callsubr
hstem
107 95 240 111 vstem
442 919 -63 callsubr
-116 -866 -56 callgsubr
endchar
                </CharString>
                <CharString name="tcaron.sc">
                    -28 callgsubr
                </CharString>
                <CharString name="tcommaaccent">
                    46 callsubr
hstemhm
107 95 -67 122 hintmask 11110000
437 59 -56 callgsubr
hintmask 11101000
-342 -361 -102 callsubr
                </CharString>
</ttFont>
